G04*
G04 #@! TF.GenerationSoftware,Altium Limited,Altium Designer,25.0.2 (28)*
G04*
G04 Layer_Color=16711935*
%FSLAX44Y44*%
%MOMM*%
G71*
G04*
G04 #@! TF.SameCoordinates,EC434AE0-B9B9-438B-98C1-4E927CCEC0A2*
G04*
G04*
G04 #@! TF.FilePolarity,Positive*
G04*
G01*
G75*
%ADD103C,0.1000*%
%ADD104C,0.0762*%
%ADD105C,0.0254*%
D103*
X865390Y951900D02*
G03*
X865390Y951900I-5000J0D01*
G01*
X799390Y942900D02*
Y1012900D01*
X869390Y942900D02*
Y1012900D01*
X799390D02*
X869390D01*
X799390Y942900D02*
X869390D01*
D104*
X1475200Y910336D02*
X1466736Y918800D01*
Y910336D02*
X1475200Y918800D01*
X1470968Y910336D02*
Y918800D01*
X1466736Y914568D02*
X1475200D01*
X1480816Y932815D02*
X1470236D01*
X1468120Y934931D01*
Y939163D01*
X1470236Y941279D01*
X1480816D01*
X1478700Y945511D02*
X1480816Y947627D01*
Y951859D01*
X1478700Y953975D01*
X1476584D01*
X1474468Y951859D01*
Y949743D01*
Y951859D01*
X1472352Y953975D01*
X1470236D01*
X1468120Y951859D01*
Y947627D01*
X1470236Y945511D01*
X132715Y322584D02*
Y333164D01*
X134831Y335280D01*
X139063D01*
X141179Y333164D01*
Y322584D01*
X145411D02*
X153875D01*
Y324700D01*
X145411Y333164D01*
Y335280D01*
X135763Y287870D02*
X144227Y296334D01*
X135763D02*
X144227Y287870D01*
X135763Y292102D02*
X144227D01*
X139995Y296334D02*
Y287870D01*
D105*
X170688Y284988D02*
G03*
X164592Y284988I-3048J0D01*
G01*
X1359408Y931926D02*
Y940054D01*
X1425956Y1038225D02*
X1434084D01*
X1438656D02*
X1446784D01*
X1438656D02*
X1446784D01*
X1451356D02*
X1459484D01*
X1451356D02*
X1459484D01*
X1464056D02*
X1472184D01*
X1464056D02*
X1472184D01*
X1476756D02*
X1484884D01*
X1359408Y970026D02*
Y978154D01*
Y970026D02*
Y978154D01*
Y982726D02*
Y990854D01*
Y982726D02*
Y990854D01*
Y995426D02*
Y1003554D01*
Y995426D02*
Y1003554D01*
Y1008126D02*
Y1016254D01*
Y1008126D02*
Y1016254D01*
X1425956Y1038225D02*
X1434084D01*
X1359408Y931926D02*
Y940054D01*
X1476756Y1038225D02*
X1484884D01*
X1489456D02*
X1497584D01*
X1489456D02*
X1497584D01*
X1502156D02*
X1510284D01*
X1502156D02*
X1510284D01*
X1514856D02*
X1522984D01*
X1514856D02*
X1522984D01*
X1359408Y944626D02*
Y952754D01*
Y897255D02*
Y1038225D01*
X1589532D01*
Y897255D02*
Y1038225D01*
X1359408Y897255D02*
X1589532D01*
X1359408Y944626D02*
Y952754D01*
Y957326D02*
Y965454D01*
Y957326D02*
Y965454D01*
X1466906Y897255D02*
X1475034D01*
X1466906D02*
X1475034D01*
X1454206D02*
X1462334D01*
X1454206D02*
X1462334D01*
X1489456D02*
X1497584D01*
X1489456D02*
X1497584D01*
X1476756D02*
X1484884D01*
X1476756D02*
X1484884D01*
X1464056D02*
X1472184D01*
X1464056D02*
X1472184D01*
X1451356D02*
X1459484D01*
X1451356D02*
X1459484D01*
X1438656D02*
X1446784D01*
X1438656D02*
X1446784D01*
X1425956D02*
X1434084D01*
X1425956D02*
X1434084D01*
X1359408Y919226D02*
Y927354D01*
Y919226D02*
Y927354D01*
X135128Y284988D02*
Y372872D01*
Y284988D02*
X200152D01*
Y372872D01*
X135128D02*
X200152D01*
Y297969D02*
X219583D01*
Y308891D01*
X200152D02*
X219583D01*
X200152Y297969D02*
Y308891D01*
Y348969D02*
X219583D01*
Y359891D01*
X200152D02*
X219583D01*
X200152Y348969D02*
Y359891D01*
X115697D02*
X135128D01*
X115697Y348969D02*
Y359891D01*
Y348969D02*
X135128D01*
Y359891D01*
X115697Y308891D02*
X135128D01*
X115697Y297969D02*
Y308891D01*
Y297969D02*
X135128D01*
Y308891D01*
M02*
