G04*
G04 #@! TF.GenerationSoftware,Altium Limited,Altium Designer,25.0.2 (28)*
G04*
G04 Layer_Color=16711935*
%FSLAX44Y44*%
%MOMM*%
G71*
G04*
G04 #@! TF.SameCoordinates,EC434AE0-B9B9-438B-98C1-4E927CCEC0A2*
G04*
G04*
G04 #@! TF.FilePolarity,Negative*
G04*
G01*
G75*
%ADD16O,2.4032X4.2032*%
%ADD17C,5.2032*%
%ADD18C,2.7032*%
%ADD19O,2.7032X2.2032*%
%ADD20C,2.7032*%
%ADD21C,2.1016*%
%ADD22C,2.2032*%
%ADD23O,2.7432X1.8796*%
%ADD24C,2.2032*%
%ADD25O,2.2032X1.7272*%
%ADD26O,2.2032X1.2032*%
%ADD27R,2.2032X1.2032*%
%ADD28R,2.7032X2.7032*%
%ADD29C,1.4732*%
%ADD48R,0.7620X1.2954*%
%ADD49R,1.2954X0.7620*%
%ADD57R,2.2240X1.1422*%
%ADD75R,1.5332X1.5332*%
%ADD76R,1.8532X1.1032*%
%ADD77R,1.1032X1.8532*%
%ADD78R,1.7032X1.4332*%
%ADD79R,1.3462X0.8382*%
%ADD80R,1.4332X1.7032*%
%ADD81R,1.6532X1.1032*%
%ADD82R,2.8532X1.9532*%
%ADD83R,1.1032X1.6532*%
%ADD84R,3.2032X1.8032*%
%ADD85R,5.7032X2.2032*%
%ADD86R,1.8532X2.4032*%
%ADD87R,1.8032X3.2032*%
%ADD88R,1.9532X2.8532*%
%ADD89R,5.2032X4.2032*%
%ADD90R,5.2032X4.2032*%
%ADD91R,1.2032X1.8532*%
%ADD92R,3.5032X1.8532*%
%ADD93O,2.0032X0.5032*%
%ADD94O,0.5032X2.0032*%
G36*
X288800Y232770D02*
X253400D01*
Y244170D01*
X288800D01*
Y232770D01*
D02*
G37*
G36*
Y215770D02*
X253400D01*
Y227170D01*
X288800D01*
Y215770D01*
D02*
G37*
G36*
Y198770D02*
X253400D01*
Y210170D01*
X288800D01*
Y198770D01*
D02*
G37*
G36*
Y181770D02*
X253400D01*
Y193170D01*
X288800D01*
Y181770D01*
D02*
G37*
G36*
Y164770D02*
X253400D01*
Y176170D01*
X288800D01*
Y164770D01*
D02*
G37*
G36*
X208800Y150270D02*
X121400D01*
Y258670D01*
X208800D01*
Y150270D01*
D02*
G37*
D16*
X645160Y635991D02*
D03*
Y761009D02*
D03*
X695960Y635991D02*
D03*
Y761009D02*
D03*
X516890Y762279D02*
D03*
Y637261D02*
D03*
X466090Y762279D02*
D03*
Y637261D02*
D03*
X294640Y634721D02*
D03*
Y759739D02*
D03*
X345440Y634721D02*
D03*
Y759739D02*
D03*
X113030Y635991D02*
D03*
Y761009D02*
D03*
X163830Y635991D02*
D03*
Y761009D02*
D03*
D17*
X77470Y241300D02*
D03*
X614680Y242570D02*
D03*
X40000Y1310000D02*
D03*
X1560000D02*
D03*
Y40000D02*
D03*
X40000D02*
D03*
D18*
X976160Y45190D02*
D03*
X1026160D02*
D03*
X926160D02*
D03*
X1130465Y43920D02*
D03*
X1230465D02*
D03*
X1180465D02*
D03*
X1331125D02*
D03*
X1431125D02*
D03*
X1381125D02*
D03*
X1342288Y657858D02*
D03*
X118110Y474180D02*
D03*
Y424180D02*
D03*
X723430Y43920D02*
D03*
X823430D02*
D03*
X773430D02*
D03*
D19*
X940435Y697230D02*
D03*
Y671830D02*
D03*
Y646430D02*
D03*
Y621030D02*
D03*
D20*
X1114185Y146849D02*
D03*
X1234185D02*
D03*
Y268850D02*
D03*
X1114185D02*
D03*
X1174185Y288850D02*
D03*
X1374845D02*
D03*
X1314845Y268850D02*
D03*
X1434845D02*
D03*
Y146849D02*
D03*
X1314845D02*
D03*
X969880Y290120D02*
D03*
X909880Y270120D02*
D03*
X1029880D02*
D03*
Y148119D02*
D03*
X909880D02*
D03*
X767150Y288850D02*
D03*
X707150Y268850D02*
D03*
X827150D02*
D03*
Y146849D02*
D03*
X707150D02*
D03*
D21*
X105410Y892810D02*
D03*
Y918210D02*
D03*
Y943610D02*
D03*
Y969010D02*
D03*
Y994410D02*
D03*
Y1019810D02*
D03*
Y1045210D02*
D03*
Y1070610D02*
D03*
Y1096010D02*
D03*
Y1121410D02*
D03*
Y1146810D02*
D03*
Y1172210D02*
D03*
Y1197610D02*
D03*
Y1223010D02*
D03*
D22*
X1245870Y348742D02*
D03*
X1169670D02*
D03*
X1446530D02*
D03*
X1370330D02*
D03*
X1568450Y863600D02*
D03*
Y838200D02*
D03*
Y812800D02*
D03*
Y787400D02*
D03*
Y762000D02*
D03*
X933450Y1305560D02*
D03*
X958451D02*
D03*
X983450D02*
D03*
X1008451D02*
D03*
X1080770Y1327150D02*
D03*
Y1301750D02*
D03*
Y1276350D02*
D03*
Y1250950D02*
D03*
Y1225550D02*
D03*
Y1200150D02*
D03*
X1041400Y350012D02*
D03*
X965200D02*
D03*
X836930Y348742D02*
D03*
X760730D02*
D03*
D23*
X1112520Y344170D02*
D03*
Y369570D02*
D03*
Y394970D02*
D03*
X1311910Y344170D02*
D03*
Y369570D02*
D03*
Y394970D02*
D03*
X909320Y345440D02*
D03*
Y370840D02*
D03*
Y396240D02*
D03*
X703580Y344170D02*
D03*
Y369570D02*
D03*
Y394970D02*
D03*
D24*
X1249680Y502920D02*
D03*
X1122680D02*
D03*
X1249680Y455930D02*
D03*
X1122680D02*
D03*
X1449070Y502920D02*
D03*
X1322070D02*
D03*
X1449070Y455930D02*
D03*
X1322070D02*
D03*
X1043940Y504190D02*
D03*
X916940D02*
D03*
X1043940Y457200D02*
D03*
X916940D02*
D03*
X839470Y502920D02*
D03*
X712470D02*
D03*
X839470Y455930D02*
D03*
X712470D02*
D03*
D25*
X1173480Y411480D02*
D03*
Y386080D02*
D03*
X1249680Y411480D02*
D03*
Y386080D02*
D03*
X1372870Y411480D02*
D03*
Y386080D02*
D03*
X1449070Y411480D02*
D03*
Y386080D02*
D03*
X966470Y412750D02*
D03*
Y387350D02*
D03*
X1042670Y412750D02*
D03*
Y387350D02*
D03*
X763270Y411480D02*
D03*
Y386080D02*
D03*
X839470Y411480D02*
D03*
Y386080D02*
D03*
D26*
X1061720Y921570D02*
D03*
Y934570D02*
D03*
Y960570D02*
D03*
D27*
Y947570D02*
D03*
D28*
X1416050Y657860D02*
D03*
D29*
X900430Y621030D02*
D03*
Y735330D02*
D03*
X697230Y1115060D02*
D03*
X695960Y880110D02*
D03*
X739140Y1117600D02*
D03*
X704850Y551180D02*
D03*
X627380D02*
D03*
X796290Y1120140D02*
D03*
X844550Y1196340D02*
D03*
Y1148080D02*
D03*
X724080Y868500D02*
D03*
D48*
X1470970Y900684D02*
D03*
X1458270D02*
D03*
X1445570D02*
D03*
X1432870D02*
D03*
X1420170D02*
D03*
X1407470D02*
D03*
X1394770D02*
D03*
X1382070D02*
D03*
Y1034796D02*
D03*
X1394770D02*
D03*
X1407470D02*
D03*
X1420170D02*
D03*
X1432870D02*
D03*
X1445570D02*
D03*
X1458270D02*
D03*
X1470970D02*
D03*
D49*
X1362837Y923290D02*
D03*
Y935990D02*
D03*
Y948690D02*
D03*
Y961390D02*
D03*
Y974090D02*
D03*
Y986790D02*
D03*
Y999490D02*
D03*
Y1012190D02*
D03*
D57*
X211963Y303430D02*
D03*
Y354430D02*
D03*
X123317D02*
D03*
Y303430D02*
D03*
D75*
X1235710Y1208340D02*
D03*
X1235711Y1171640D02*
D03*
X1254060D02*
D03*
Y1189990D02*
D03*
X1217360Y1171640D02*
D03*
Y1189990D02*
D03*
Y1208340D02*
D03*
X1254060D02*
D03*
X1235710Y1189990D02*
D03*
D76*
X1139870Y1263505D02*
D03*
Y1250805D02*
D03*
Y1238105D02*
D03*
Y1225405D02*
D03*
Y1212705D02*
D03*
Y1200005D02*
D03*
Y1187305D02*
D03*
Y1174605D02*
D03*
Y1161905D02*
D03*
Y1149205D02*
D03*
Y1136505D02*
D03*
Y1123805D02*
D03*
Y1111105D02*
D03*
Y1098405D02*
D03*
X1317370D02*
D03*
Y1123805D02*
D03*
Y1136505D02*
D03*
Y1149205D02*
D03*
Y1161905D02*
D03*
Y1174605D02*
D03*
Y1187305D02*
D03*
Y1200005D02*
D03*
Y1212705D02*
D03*
Y1225405D02*
D03*
Y1238105D02*
D03*
Y1250805D02*
D03*
Y1263505D02*
D03*
Y1111105D02*
D03*
D77*
X1171520Y1084655D02*
D03*
X1184220D02*
D03*
X1196920D02*
D03*
X1209620D02*
D03*
X1222320D02*
D03*
X1235020D02*
D03*
X1247720D02*
D03*
X1260420D02*
D03*
X1273120D02*
D03*
X1285820D02*
D03*
D78*
X1470660Y1106311D02*
D03*
Y1060309D02*
D03*
D79*
X1038860Y859790D02*
D03*
X1018540Y850900D02*
D03*
Y868680D02*
D03*
D80*
X840881Y819150D02*
D03*
X794879D02*
D03*
X1363839Y1164590D02*
D03*
X1409841D02*
D03*
D81*
X994410Y867520D02*
D03*
Y849520D02*
D03*
X880440Y870500D02*
D03*
Y852500D02*
D03*
X795020Y853220D02*
D03*
Y871220D02*
D03*
X850900D02*
D03*
Y853220D02*
D03*
X911860Y870171D02*
D03*
Y852170D02*
D03*
X765810Y871330D02*
D03*
Y853330D02*
D03*
X822960Y871441D02*
D03*
Y853440D02*
D03*
X567690Y456150D02*
D03*
Y438150D02*
D03*
X1398270Y1248410D02*
D03*
Y1266410D02*
D03*
X1286510Y1019810D02*
D03*
Y1037810D02*
D03*
X1369060Y1248190D02*
D03*
Y1266190D02*
D03*
X1236980Y1021080D02*
D03*
Y1039080D02*
D03*
X1437640Y1061720D02*
D03*
Y1079721D02*
D03*
X1473200Y848140D02*
D03*
Y866140D02*
D03*
X1446530Y847090D02*
D03*
Y865090D02*
D03*
X1410970Y1079610D02*
D03*
Y1061610D02*
D03*
X793890Y1045350D02*
D03*
Y1063350D02*
D03*
X876300Y1048800D02*
D03*
Y1066800D02*
D03*
D82*
X767080Y819150D02*
D03*
X724080D02*
D03*
X495390Y229870D02*
D03*
X538390D02*
D03*
D83*
X991870Y890270D02*
D03*
X973870D02*
D03*
X991870Y962660D02*
D03*
X973870D02*
D03*
X495190Y340360D02*
D03*
X513190D02*
D03*
X302260Y288290D02*
D03*
X284259D02*
D03*
X797339Y637540D02*
D03*
X815340D02*
D03*
X991870Y985520D02*
D03*
X973870D02*
D03*
X992090Y939800D02*
D03*
X974090D02*
D03*
X992090Y915670D02*
D03*
X974090D02*
D03*
X1097390Y1098550D02*
D03*
X1079390D02*
D03*
X1366410Y1197610D02*
D03*
X1384410D02*
D03*
X1384520Y1223010D02*
D03*
X1366520D02*
D03*
X815340Y759460D02*
D03*
X797339D02*
D03*
X815340Y666750D02*
D03*
X797340D02*
D03*
X815340Y698500D02*
D03*
X797339D02*
D03*
X815450Y727710D02*
D03*
X797450D02*
D03*
D84*
X537750Y283210D02*
D03*
X493490D02*
D03*
D85*
X970790Y765813D02*
D03*
X875790Y765807D02*
D03*
D86*
X524510Y423545D02*
D03*
Y455295D02*
D03*
D87*
X265430Y308070D02*
D03*
Y352330D02*
D03*
D88*
X1445260Y1208860D02*
D03*
Y1165860D02*
D03*
X1376680Y1070610D02*
D03*
Y1113610D02*
D03*
D89*
X393700Y221820D02*
D03*
D90*
Y326820D02*
D03*
D91*
X434300Y406690D02*
D03*
X480100D02*
D03*
X457200D02*
D03*
D92*
Y474690D02*
D03*
D93*
X874890Y950400D02*
D03*
Y955400D02*
D03*
Y960400D02*
D03*
Y965400D02*
D03*
Y970400D02*
D03*
Y975400D02*
D03*
Y980400D02*
D03*
Y985400D02*
D03*
Y990400D02*
D03*
Y995400D02*
D03*
Y1000400D02*
D03*
Y1005400D02*
D03*
X793890D02*
D03*
Y1000400D02*
D03*
Y995400D02*
D03*
Y990400D02*
D03*
Y985400D02*
D03*
Y980400D02*
D03*
Y975400D02*
D03*
Y970400D02*
D03*
Y965400D02*
D03*
Y960400D02*
D03*
Y955400D02*
D03*
Y950400D02*
D03*
D94*
X861890Y1018400D02*
D03*
X856890D02*
D03*
X851890D02*
D03*
X846890D02*
D03*
X841890D02*
D03*
X836890D02*
D03*
X831890D02*
D03*
X826890D02*
D03*
X821890D02*
D03*
X816890D02*
D03*
X811890D02*
D03*
X806890D02*
D03*
Y937400D02*
D03*
X811890D02*
D03*
X816890D02*
D03*
X821890D02*
D03*
X826890D02*
D03*
X831890D02*
D03*
X836890D02*
D03*
X841890D02*
D03*
X846890D02*
D03*
X851890D02*
D03*
X856890D02*
D03*
X861890D02*
D03*
M02*
