G04*
G04 #@! TF.GenerationSoftware,Altium Limited,Altium Designer,25.0.2 (28)*
G04*
G04 Layer_Color=65535*
%FSLAX44Y44*%
%MOMM*%
G71*
G04*
G04 #@! TF.SameCoordinates,EC434AE0-B9B9-438B-98C1-4E927CCEC0A2*
G04*
G04*
G04 #@! TF.FilePolarity,Positive*
G04*
G01*
G75*
%ADD10C,0.2540*%
%ADD11C,0.1778*%
%ADD12C,0.1524*%
%ADD13C,0.3000*%
%ADD14C,0.1200*%
%ADD15C,0.1200*%
G36*
X1047220Y966070D02*
X1076220D01*
X1079720Y963570D01*
X1043220D01*
X1047220Y966070D01*
D02*
G37*
G36*
X1032720Y941070D02*
Y940570D01*
Y938669D01*
X1033216Y934900D01*
X1034200Y931228D01*
X1035655Y927716D01*
X1037556Y924424D01*
X1039870Y921408D01*
X1042558Y918720D01*
X1045574Y916406D01*
X1048866Y914505D01*
X1052378Y913050D01*
X1056050Y912066D01*
X1059819Y911570D01*
X1061720D01*
X1063621D01*
X1067390Y912066D01*
X1071062Y913050D01*
X1074574Y914505D01*
X1077866Y916406D01*
X1080882Y918720D01*
X1083570Y921408D01*
X1085884Y924424D01*
X1087785Y927716D01*
X1089240Y931228D01*
X1090224Y934900D01*
X1090720Y938669D01*
Y940570D01*
D01*
Y941070D01*
X1088220D01*
X1088163Y939337D01*
X1087711Y935900D01*
X1086814Y932552D01*
X1085487Y929349D01*
X1083754Y926348D01*
X1081644Y923597D01*
X1079193Y921146D01*
X1076443Y919036D01*
X1073441Y917303D01*
X1070238Y915976D01*
X1066890Y915079D01*
X1063453Y914627D01*
X1061720Y914570D01*
D01*
X1061220D01*
X1059487Y914627D01*
X1056050Y915079D01*
X1052702Y915976D01*
X1049499Y917303D01*
X1046497Y919036D01*
X1043747Y921146D01*
X1041296Y923597D01*
X1039186Y926348D01*
X1037453Y929349D01*
X1036126Y932552D01*
X1035229Y935900D01*
X1034777Y939337D01*
X1034720Y941070D01*
D01*
X1032720D01*
D02*
G37*
D10*
X637540Y657860D02*
G03*
X637540Y657860I-7620J0D01*
G01*
Y739140D02*
G03*
X637540Y739140I-7620J0D01*
G01*
X718820Y657860D02*
G03*
X718820Y657860I-7620J0D01*
G01*
Y739140D02*
G03*
X718820Y739140I-7620J0D01*
G01*
X706120Y698500D02*
G03*
X706120Y698500I-35560J0D01*
G01*
X527050Y699770D02*
G03*
X527050Y699770I-35560J0D01*
G01*
X539750Y740410D02*
G03*
X539750Y740410I-7620J0D01*
G01*
Y659130D02*
G03*
X539750Y659130I-7620J0D01*
G01*
X458470Y740410D02*
G03*
X458470Y740410I-7620J0D01*
G01*
Y659130D02*
G03*
X458470Y659130I-7620J0D01*
G01*
X287020Y656590D02*
G03*
X287020Y656590I-7620J0D01*
G01*
Y737870D02*
G03*
X287020Y737870I-7620J0D01*
G01*
X368300Y656590D02*
G03*
X368300Y656590I-7620J0D01*
G01*
Y737870D02*
G03*
X368300Y737870I-7620J0D01*
G01*
X355600Y697230D02*
G03*
X355600Y697230I-35560J0D01*
G01*
X105410Y657860D02*
G03*
X105410Y657860I-7620J0D01*
G01*
Y739140D02*
G03*
X105410Y739140I-7620J0D01*
G01*
X186690Y657860D02*
G03*
X186690Y657860I-7620J0D01*
G01*
Y739140D02*
G03*
X186690Y739140I-7620J0D01*
G01*
X173990Y698500D02*
G03*
X173990Y698500I-35560J0D01*
G01*
X1054920Y965370D02*
G03*
X1056289Y916428I6800J-24300D01*
G01*
X1066820Y916770D02*
G03*
X1069833Y964537I-5100J24300D01*
G01*
X1047225Y966179D02*
G03*
X1076432Y966068I14507J-25140D01*
G01*
X1391818Y657777D02*
G03*
X1391818Y657777I-12700J0D01*
G01*
X1438046D02*
G03*
X1438046Y657777I-58928J0D01*
G01*
X610560Y648500D02*
Y748500D01*
X730560Y648500D02*
Y748500D01*
X617220Y650240D02*
X622046Y645414D01*
X610616Y648462D02*
X620522Y638556D01*
X610616Y748538D02*
X620522Y758444D01*
X720598Y638556D02*
X730504Y648462D01*
X720598Y758444D02*
X730504Y748538D01*
X620522Y758444D02*
X632099D01*
X658222D02*
X682899D01*
X709022D02*
X720598D01*
X617220Y650240D02*
Y746760D01*
X622046Y751586D01*
X635769D01*
X654551D02*
X686569D01*
X705351D02*
X719074D01*
X723900Y746760D01*
Y650240D02*
Y746760D01*
X719074Y645414D02*
X723900Y650240D01*
X622046Y645414D02*
X635769D01*
X654551D02*
X686569D01*
X705351D02*
X719969D01*
X620522Y638556D02*
X632099D01*
X658222D02*
X682899D01*
X709022D02*
X720725D01*
X529952Y639826D02*
X541655D01*
X479152D02*
X503829D01*
X441452D02*
X453029D01*
X526281Y646684D02*
X540899D01*
X475481D02*
X507499D01*
X442976D02*
X456699D01*
X540004D02*
X544830Y651510D01*
Y748030D01*
X540004Y752856D02*
X544830Y748030D01*
X526281Y752856D02*
X540004D01*
X475481D02*
X507499D01*
X442976D02*
X456699D01*
X438150Y748030D02*
X442976Y752856D01*
X438150Y651510D02*
Y748030D01*
X529952Y759714D02*
X541528D01*
X479152D02*
X503829D01*
X441452D02*
X453029D01*
X541528D02*
X551434Y749808D01*
X541528Y639826D02*
X551434Y649732D01*
X431546Y749808D02*
X441452Y759714D01*
X431546Y649732D02*
X441452Y639826D01*
X438150Y651510D02*
X442976Y646684D01*
X551490Y649770D02*
Y749770D01*
X431490Y649770D02*
Y749770D01*
X894880Y68050D02*
X1051090D01*
X894880Y91367D02*
X1051090D01*
Y15310D02*
Y91367D01*
X1040295Y15310D02*
Y25327D01*
X1009815Y15310D02*
Y25327D01*
X1025055D01*
X1040295D01*
X992035Y15310D02*
Y25327D01*
X961555Y15310D02*
Y25327D01*
X976795D01*
X992035D01*
X943775Y15310D02*
Y24057D01*
X913295Y15310D02*
Y24057D01*
X928535D01*
X943775D01*
X894880Y15310D02*
Y91370D01*
Y15310D02*
X1051090D01*
X1241425Y584200D02*
Y734060D01*
X925195D02*
X1241425D01*
X925195Y584200D02*
X1241425D01*
X925195D02*
Y734060D01*
X1153865Y269920D02*
X1191965D01*
X1153865Y259760D02*
Y269920D01*
Y259760D02*
X1191965D01*
Y269920D01*
X1099185Y104775D02*
X1251585D01*
X1099185Y301625D02*
X1251585D01*
Y104775D02*
Y301625D01*
X1099185Y104775D02*
Y301625D01*
X1191965Y264839D02*
X1219928D01*
X1128443D02*
X1153865D01*
X1172915Y169589D02*
X1194505Y137839D01*
X1172915Y169589D02*
Y274091D01*
X1193235Y145459D02*
X1219439D01*
X1128931D02*
X1157675D01*
X92108Y1235939D02*
X118778D01*
X92108Y879069D02*
Y1235939D01*
Y879069D02*
X118778D01*
Y1235939D01*
X260040Y647230D02*
Y747230D01*
X380040Y647230D02*
Y747230D01*
X266700Y648970D02*
X271526Y644144D01*
X260096Y647192D02*
X270002Y637286D01*
X260096Y747268D02*
X270002Y757174D01*
X370078Y637286D02*
X379984Y647192D01*
X370078Y757174D02*
X379984Y747268D01*
X270002Y757174D02*
X281579D01*
X307702D02*
X332379D01*
X358502D02*
X370078D01*
X266700Y648970D02*
Y745490D01*
X271526Y750316D01*
X285249D01*
X304031D02*
X336049D01*
X354831D02*
X368554D01*
X373380Y745490D01*
Y648970D02*
Y745490D01*
X368554Y644144D02*
X373380Y648970D01*
X271526Y644144D02*
X285249D01*
X304031D02*
X336049D01*
X354831D02*
X369449D01*
X270002Y637286D02*
X281579D01*
X307702D02*
X332379D01*
X358502D02*
X370205D01*
X78430Y648500D02*
Y748500D01*
X198430Y648500D02*
Y748500D01*
X85090Y650240D02*
X89916Y645414D01*
X78486Y648462D02*
X88392Y638556D01*
X78486Y748538D02*
X88392Y758444D01*
X188468Y638556D02*
X198374Y648462D01*
X188468Y758444D02*
X198374Y748538D01*
X88392Y758444D02*
X99969D01*
X126092D02*
X150769D01*
X176892D02*
X188468D01*
X85090Y650240D02*
Y746760D01*
X89916Y751586D01*
X103639D01*
X122421D02*
X154439D01*
X173221D02*
X186944D01*
X191770Y746760D01*
Y650240D02*
Y746760D01*
X186944Y645414D02*
X191770Y650240D01*
X89916Y645414D02*
X103639D01*
X122421D02*
X154439D01*
X173221D02*
X187839D01*
X88392Y638556D02*
X99969D01*
X126092D02*
X150769D01*
X176892D02*
X188595D01*
X1203960Y342392D02*
X1210310Y348742D01*
X1203960Y355092D02*
X1210310Y348742D01*
X1203960Y342392D02*
Y348742D01*
X1211580D02*
X1220470D01*
X1211580Y342392D02*
Y355092D01*
X1203960Y348742D02*
Y355092D01*
X1195070Y348742D02*
X1203960D01*
X1182370Y361442D02*
X1233170D01*
X1182370Y336042D02*
Y361442D01*
Y336042D02*
X1233170D01*
Y361442D01*
X1099185Y14040D02*
X1255395D01*
X1099185D02*
Y90100D01*
X1132840Y22787D02*
X1148080D01*
X1117600D02*
X1132840D01*
X1117600Y14040D02*
Y22787D01*
X1148080Y14040D02*
Y22787D01*
X1181100Y24057D02*
X1196340D01*
X1165860D02*
X1181100D01*
X1165860Y14040D02*
Y24057D01*
X1196340Y14040D02*
Y24057D01*
X1229360D02*
X1244600D01*
X1214120D02*
X1229360D01*
X1214120Y14040D02*
Y24057D01*
X1244600Y14040D02*
Y24057D01*
X1255395Y14040D02*
Y90097D01*
X1099185D02*
X1255395D01*
X1099185Y66780D02*
X1255395D01*
X1144270Y488950D02*
Y516890D01*
X1226820Y488950D02*
Y516890D01*
X1144270D02*
X1226820D01*
X1144270Y488950D02*
X1226820D01*
X1144270Y441960D02*
Y469900D01*
X1226820Y441960D02*
Y469900D01*
X1144270D02*
X1226820D01*
X1144270Y441960D02*
X1226820D01*
X1404620Y342392D02*
X1410970Y348742D01*
X1404620Y355092D02*
X1410970Y348742D01*
X1404620Y342392D02*
Y348742D01*
X1412240D02*
X1421130D01*
X1412240Y342392D02*
Y355092D01*
X1404620Y348742D02*
Y355092D01*
X1395730Y348742D02*
X1404620D01*
X1383030Y361442D02*
X1433830D01*
X1383030Y336042D02*
Y361442D01*
Y336042D02*
X1433830D01*
Y361442D01*
X1299845Y14040D02*
X1456055D01*
X1299845D02*
Y90100D01*
X1333500Y22787D02*
X1348740D01*
X1318260D02*
X1333500D01*
X1318260Y14040D02*
Y22787D01*
X1348740Y14040D02*
Y22787D01*
X1381760Y24057D02*
X1397000D01*
X1366520D02*
X1381760D01*
X1366520Y14040D02*
Y24057D01*
X1397000Y14040D02*
Y24057D01*
X1430020D02*
X1445260D01*
X1414780D02*
X1430020D01*
X1414780Y14040D02*
Y24057D01*
X1445260Y14040D02*
Y24057D01*
X1456055Y14040D02*
Y90097D01*
X1299845D02*
X1456055D01*
X1299845Y66780D02*
X1456055D01*
X1343660Y488950D02*
Y516890D01*
X1426210Y488950D02*
Y516890D01*
X1343660D02*
X1426210D01*
X1343660Y488950D02*
X1426210D01*
X1329591Y145459D02*
X1358335D01*
X1393895D02*
X1420099D01*
X1373575Y169589D02*
Y274091D01*
Y169589D02*
X1395165Y137839D01*
X1329103Y264839D02*
X1354525D01*
X1392625D02*
X1420587D01*
X1299845Y104775D02*
Y301625D01*
X1452245Y104775D02*
Y301625D01*
X1299845D02*
X1452245D01*
X1299845Y104775D02*
X1452245D01*
X1392625Y259760D02*
Y269920D01*
X1354525Y259760D02*
X1392625D01*
X1354525D02*
Y269920D01*
X1392625D01*
X1343660Y441960D02*
Y469900D01*
X1426210Y441960D02*
Y469900D01*
X1343660D02*
X1426210D01*
X1343660Y441960D02*
X1426210D01*
X1555750Y749301D02*
Y876229D01*
Y749301D02*
X1581150D01*
Y876229D01*
X1555750D02*
X1581150D01*
X1066482Y966106D02*
X1076432Y966068D01*
X1047225Y966179D02*
X1057001Y966142D01*
X91525Y393270D02*
Y498680D01*
X73110Y393270D02*
X148040D01*
X139963Y485345D02*
X148040D01*
X139963Y454865D02*
X148040D01*
X139963D02*
Y470105D01*
Y485345D01*
Y437085D02*
X148040D01*
X139963Y406605D02*
X148040D01*
X139963D02*
Y421845D01*
Y437085D01*
X73110Y498680D02*
X91525D01*
X73110Y393270D02*
Y498680D01*
X91525Y496597D02*
Y498680D01*
X148040D01*
Y393270D02*
Y498680D01*
X924626Y146729D02*
X953370D01*
X988930D02*
X1015134D01*
X968610Y170859D02*
Y275361D01*
Y170859D02*
X990200Y139109D01*
X924138Y266109D02*
X949560D01*
X987660D02*
X1015623D01*
X894880Y106045D02*
Y302895D01*
X1047280Y106045D02*
Y302895D01*
X894880D02*
X1047280D01*
X894880Y106045D02*
X1047280D01*
X987660Y261030D02*
Y271190D01*
X949560Y261030D02*
X987660D01*
X949560D02*
Y271190D01*
X987660D01*
X999490Y343662D02*
X1005840Y350012D01*
X999490Y356362D02*
X1005840Y350012D01*
X999490Y343662D02*
Y350012D01*
X1007110D02*
X1016000D01*
X1007110Y343662D02*
Y356362D01*
X999490Y350012D02*
Y356362D01*
X990600Y350012D02*
X999490D01*
X977900Y362712D02*
X1028700D01*
X977900Y337312D02*
Y362712D01*
Y337312D02*
X1028700D01*
Y362712D01*
X938530Y490220D02*
Y518160D01*
X1021080Y490220D02*
Y518160D01*
X938530D02*
X1021080D01*
X938530Y490220D02*
X1021080D01*
X938530Y443230D02*
Y471170D01*
X1021080Y443230D02*
Y471170D01*
X938530D02*
X1021080D01*
X938530Y443230D02*
X1021080D01*
X692150Y14040D02*
X848360D01*
X692150D02*
Y90100D01*
X725805Y22787D02*
X741045D01*
X710565D02*
X725805D01*
X710565Y14040D02*
Y22787D01*
X741045Y14040D02*
Y22787D01*
X774065Y24057D02*
X789305D01*
X758825D02*
X774065D01*
X758825Y14040D02*
Y24057D01*
X789305Y14040D02*
Y24057D01*
X822325D02*
X837565D01*
X807085D02*
X822325D01*
X807085Y14040D02*
Y24057D01*
X837565Y14040D02*
Y24057D01*
X848360Y14040D02*
Y90097D01*
X692150D02*
X848360D01*
X692150Y66780D02*
X848360D01*
X721896Y145459D02*
X750640D01*
X786200D02*
X812404D01*
X765880Y169589D02*
Y274091D01*
Y169589D02*
X787470Y137839D01*
X721408Y264839D02*
X746830D01*
X784930D02*
X812893D01*
X692150Y104775D02*
Y301625D01*
X844550Y104775D02*
Y301625D01*
X692150D02*
X844550D01*
X692150Y104775D02*
X844550D01*
X784930Y259760D02*
Y269920D01*
X746830Y259760D02*
X784930D01*
X746830D02*
Y269920D01*
X784930D01*
X795020Y342392D02*
X801370Y348742D01*
X795020Y355092D02*
X801370Y348742D01*
X795020Y342392D02*
Y348742D01*
X802640D02*
X811530D01*
X802640Y342392D02*
Y355092D01*
X795020Y348742D02*
Y355092D01*
X786130Y348742D02*
X795020D01*
X773430Y361442D02*
X824230D01*
X773430Y336042D02*
Y361442D01*
Y336042D02*
X824230D01*
Y361442D01*
X734060Y488950D02*
Y516890D01*
X816610Y488950D02*
Y516890D01*
X734060D02*
X816610D01*
X734060Y488950D02*
X816610D01*
X734060Y441960D02*
Y469900D01*
X816610Y441960D02*
Y469900D01*
X734060D02*
X816610D01*
X734060Y441960D02*
X816610D01*
X906269Y115565D02*
X901190D01*
X903729D01*
Y102869D01*
X901190Y100330D01*
X898651D01*
X896112Y102869D01*
X911347Y113026D02*
X913886Y115565D01*
X918965D01*
X921504Y113026D01*
Y110487D01*
X918965Y107948D01*
X921504Y105408D01*
Y102869D01*
X918965Y100330D01*
X913886D01*
X911347Y102869D01*
Y105408D01*
X913886Y107948D01*
X911347Y110487D01*
Y113026D01*
X913886Y107948D02*
X918965D01*
X1202182Y758185D02*
Y745489D01*
X1204721Y742950D01*
X1209799D01*
X1212339Y745489D01*
Y758185D01*
X1217417Y742950D02*
X1222495D01*
X1219956D01*
Y758185D01*
X1217417Y755646D01*
X1230113D02*
X1232652Y758185D01*
X1237730D01*
X1240270Y755646D01*
Y753107D01*
X1237730Y750567D01*
X1240270Y748028D01*
Y745489D01*
X1237730Y742950D01*
X1232652D01*
X1230113Y745489D01*
Y748028D01*
X1232652Y750567D01*
X1230113Y753107D01*
Y755646D01*
X1232652Y750567D02*
X1237730D01*
X1100328Y325623D02*
Y312927D01*
X1102867Y310388D01*
X1107945D01*
X1110485Y312927D01*
Y325623D01*
X1115563Y310388D02*
X1120641D01*
X1118102D01*
Y325623D01*
X1115563Y323084D01*
X1128259D02*
X1130798Y325623D01*
X1135876D01*
X1138416Y323084D01*
Y312927D01*
X1135876Y310388D01*
X1130798D01*
X1128259Y312927D01*
Y323084D01*
X754888Y449575D02*
Y436879D01*
X757427Y434340D01*
X762505D01*
X765045Y436879D01*
Y449575D01*
X770123Y434340D02*
X775201D01*
X772662D01*
Y449575D01*
X770123Y447036D01*
X782819Y449575D02*
X792976D01*
Y447036D01*
X782819Y436879D01*
Y434340D01*
X693420Y325623D02*
Y312927D01*
X695959Y310388D01*
X701038D01*
X703577Y312927D01*
Y325623D01*
X708655Y310388D02*
X713733D01*
X711194D01*
Y325623D01*
X708655Y323084D01*
X731508Y325623D02*
X726429Y323084D01*
X721351Y318006D01*
Y312927D01*
X723890Y310388D01*
X728969D01*
X731508Y312927D01*
Y315466D01*
X728969Y318006D01*
X721351D01*
X958088Y450845D02*
Y438149D01*
X960627Y435610D01*
X965705D01*
X968245Y438149D01*
Y450845D01*
X973323Y435610D02*
X978401D01*
X975862D01*
Y450845D01*
X973323Y448306D01*
X993636Y435610D02*
Y450845D01*
X986019Y443228D01*
X996176D01*
X896112Y327147D02*
Y314451D01*
X898651Y311912D01*
X903729D01*
X906269Y314451D01*
Y327147D01*
X911347Y311912D02*
X916425D01*
X913886D01*
Y327147D01*
X911347Y324608D01*
X924043D02*
X926582Y327147D01*
X931661D01*
X934200Y324608D01*
Y322069D01*
X931661Y319529D01*
X929121D01*
X931661D01*
X934200Y316990D01*
Y314451D01*
X931661Y311912D01*
X926582D01*
X924043Y314451D01*
X1165098Y449575D02*
Y436879D01*
X1167637Y434340D01*
X1172716D01*
X1175255Y436879D01*
Y449575D01*
X1180333Y434340D02*
X1185411D01*
X1182872D01*
Y449575D01*
X1180333Y447036D01*
X1193029Y434340D02*
X1198107D01*
X1195568D01*
Y449575D01*
X1193029Y447036D01*
X1364488Y449575D02*
Y436879D01*
X1367027Y434340D01*
X1372106D01*
X1374645Y436879D01*
Y449575D01*
X1379723Y436879D02*
X1382262Y434340D01*
X1387341D01*
X1389880Y436879D01*
Y447036D01*
X1387341Y449575D01*
X1382262D01*
X1379723Y447036D01*
Y444497D01*
X1382262Y441958D01*
X1389880D01*
X1300988Y325623D02*
Y312927D01*
X1303527Y310388D01*
X1308605D01*
X1311145Y312927D01*
Y325623D01*
X1316223Y323084D02*
X1318762Y325623D01*
X1323841D01*
X1326380Y323084D01*
Y320545D01*
X1323841Y318006D01*
X1326380Y315466D01*
Y312927D01*
X1323841Y310388D01*
X1318762D01*
X1316223Y312927D01*
Y315466D01*
X1318762Y318006D01*
X1316223Y320545D01*
Y323084D01*
X1318762Y318006D02*
X1323841D01*
X1321562Y740913D02*
Y728217D01*
X1324101Y725678D01*
X1329180D01*
X1331719Y728217D01*
Y740913D01*
X1346954D02*
X1336797D01*
Y733296D01*
X1341875Y735835D01*
X1344415D01*
X1346954Y733296D01*
Y728217D01*
X1344415Y725678D01*
X1339336D01*
X1336797Y728217D01*
X622043Y802382D02*
X619504Y804921D01*
X614425D01*
X611886Y802382D01*
Y799843D01*
X614425Y797303D01*
X619504D01*
X622043Y794764D01*
Y792225D01*
X619504Y789686D01*
X614425D01*
X611886Y792225D01*
X627121Y804921D02*
X637278D01*
Y802382D01*
X627121Y792225D01*
Y789686D01*
X442973Y803652D02*
X440434Y806191D01*
X435355D01*
X432816Y803652D01*
Y801113D01*
X435355Y798574D01*
X440434D01*
X442973Y796034D01*
Y793495D01*
X440434Y790956D01*
X435355D01*
X432816Y793495D01*
X458208Y806191D02*
X453129Y803652D01*
X448051Y798574D01*
Y793495D01*
X450590Y790956D01*
X455669D01*
X458208Y793495D01*
Y796034D01*
X455669Y798574D01*
X448051D01*
X271523Y801112D02*
X268983Y803651D01*
X263905D01*
X261366Y801112D01*
Y798573D01*
X263905Y796033D01*
X268983D01*
X271523Y793494D01*
Y790955D01*
X268983Y788416D01*
X263905D01*
X261366Y790955D01*
X286758Y803651D02*
X276601D01*
Y796033D01*
X281679Y798573D01*
X284219D01*
X286758Y796033D01*
Y790955D01*
X284219Y788416D01*
X279140D01*
X276601Y790955D01*
X89913Y802382D02*
X87374Y804921D01*
X82295D01*
X79756Y802382D01*
Y799843D01*
X82295Y797303D01*
X87374D01*
X89913Y794764D01*
Y792225D01*
X87374Y789686D01*
X82295D01*
X79756Y792225D01*
X102609Y789686D02*
Y804921D01*
X94991Y797303D01*
X105148D01*
X704088Y478790D02*
Y494025D01*
X711705D01*
X714245Y491486D01*
Y486408D01*
X711705Y483868D01*
X704088D01*
X709166D02*
X714245Y478790D01*
X729480D02*
X719323D01*
X729480Y488947D01*
Y491486D01*
X726941Y494025D01*
X721862D01*
X719323Y491486D01*
X742176Y478790D02*
Y494025D01*
X734558Y486408D01*
X744715D01*
X704088Y525780D02*
Y541015D01*
X711705D01*
X714245Y538476D01*
Y533397D01*
X711705Y530858D01*
X704088D01*
X709166D02*
X714245Y525780D01*
X729480D02*
X719323D01*
X729480Y535937D01*
Y538476D01*
X726941Y541015D01*
X721862D01*
X719323Y538476D01*
X734558D02*
X737097Y541015D01*
X742176D01*
X744715Y538476D01*
Y535937D01*
X742176Y533397D01*
X739637D01*
X742176D01*
X744715Y530858D01*
Y528319D01*
X742176Y525780D01*
X737097D01*
X734558Y528319D01*
X908558Y480060D02*
Y495295D01*
X916176D01*
X918715Y492756D01*
Y487677D01*
X916176Y485138D01*
X908558D01*
X913636D02*
X918715Y480060D01*
X933950D02*
X923793D01*
X933950Y490217D01*
Y492756D01*
X931411Y495295D01*
X926332D01*
X923793Y492756D01*
X949185Y480060D02*
X939028D01*
X949185Y490217D01*
Y492756D01*
X946646Y495295D01*
X941567D01*
X939028Y492756D01*
X908558Y527050D02*
Y542285D01*
X916176D01*
X918715Y539746D01*
Y534668D01*
X916176Y532128D01*
X908558D01*
X913636D02*
X918715Y527050D01*
X933950D02*
X923793D01*
X933950Y537207D01*
Y539746D01*
X931411Y542285D01*
X926332D01*
X923793Y539746D01*
X939028Y527050D02*
X944107D01*
X941567D01*
Y542285D01*
X939028Y539746D01*
X1114298Y478790D02*
Y494025D01*
X1121916D01*
X1124455Y491486D01*
Y486408D01*
X1121916Y483868D01*
X1114298D01*
X1119376D02*
X1124455Y478790D01*
X1139690D02*
X1129533D01*
X1139690Y488947D01*
Y491486D01*
X1137151Y494025D01*
X1132072D01*
X1129533Y491486D01*
X1144768D02*
X1147307Y494025D01*
X1152386D01*
X1154925Y491486D01*
Y481329D01*
X1152386Y478790D01*
X1147307D01*
X1144768Y481329D01*
Y491486D01*
X1114298Y525780D02*
Y541015D01*
X1121916D01*
X1124455Y538476D01*
Y533397D01*
X1121916Y530858D01*
X1114298D01*
X1119376D02*
X1124455Y525780D01*
X1129533D02*
X1134611D01*
X1132072D01*
Y541015D01*
X1129533Y538476D01*
X1142229Y528319D02*
X1144768Y525780D01*
X1149846D01*
X1152386Y528319D01*
Y538476D01*
X1149846Y541015D01*
X1144768D01*
X1142229Y538476D01*
Y535937D01*
X1144768Y533397D01*
X1152386D01*
X1313688Y478790D02*
Y494025D01*
X1321306D01*
X1323845Y491486D01*
Y486408D01*
X1321306Y483868D01*
X1313688D01*
X1318766D02*
X1323845Y478790D01*
X1328923D02*
X1334001D01*
X1331462D01*
Y494025D01*
X1328923Y491486D01*
X1351776Y494025D02*
X1341619D01*
Y486408D01*
X1346697Y488947D01*
X1349236D01*
X1351776Y486408D01*
Y481329D01*
X1349236Y478790D01*
X1344158D01*
X1341619Y481329D01*
X1313688Y525780D02*
Y541015D01*
X1321306D01*
X1323845Y538476D01*
Y533397D01*
X1321306Y530858D01*
X1313688D01*
X1318766D02*
X1323845Y525780D01*
X1328923D02*
X1334001D01*
X1331462D01*
Y541015D01*
X1328923Y538476D01*
X1349236Y525780D02*
Y541015D01*
X1341619Y533397D01*
X1351776D01*
X699005Y414527D02*
Y424684D01*
X696466Y427223D01*
X691387D01*
X688848Y424684D01*
Y414527D01*
X691387Y411988D01*
X696466D01*
X693926Y417066D02*
X699005Y411988D01*
X696466D02*
X699005Y414527D01*
X711701Y411988D02*
Y427223D01*
X704083Y419605D01*
X714240D01*
X904745Y415797D02*
Y425954D01*
X902206Y428493D01*
X897127D01*
X894588Y425954D01*
Y415797D01*
X897127Y413258D01*
X902206D01*
X899666Y418336D02*
X904745Y413258D01*
X902206D02*
X904745Y415797D01*
X909823Y425954D02*
X912362Y428493D01*
X917441D01*
X919980Y425954D01*
Y423415D01*
X917441Y420876D01*
X914901D01*
X917441D01*
X919980Y418336D01*
Y415797D01*
X917441Y413258D01*
X912362D01*
X909823Y415797D01*
X1107945Y414527D02*
Y424684D01*
X1105406Y427223D01*
X1100327D01*
X1097788Y424684D01*
Y414527D01*
X1100327Y411988D01*
X1105406D01*
X1102866Y417066D02*
X1107945Y411988D01*
X1105406D02*
X1107945Y414527D01*
X1123180Y411988D02*
X1113023D01*
X1123180Y422145D01*
Y424684D01*
X1120641Y427223D01*
X1115562D01*
X1113023Y424684D01*
X1307081Y414527D02*
Y424684D01*
X1304541Y427223D01*
X1299463D01*
X1296924Y424684D01*
Y414527D01*
X1299463Y411988D01*
X1304541D01*
X1302002Y417066D02*
X1307081Y411988D01*
X1304541D02*
X1307081Y414527D01*
X1312159Y411988D02*
X1317237D01*
X1314698D01*
Y427223D01*
X1312159Y424684D01*
X1567177Y900425D02*
X1562098D01*
X1564637D01*
Y887729D01*
X1562098Y885190D01*
X1559559D01*
X1557020Y887729D01*
X1572255Y885190D02*
X1577333D01*
X1574794D01*
Y900425D01*
X1572255Y897886D01*
X703577Y114295D02*
X698498D01*
X701038D01*
Y101599D01*
X698498Y99060D01*
X695959D01*
X693420Y101599D01*
X708655D02*
X711194Y99060D01*
X716273D01*
X718812Y101599D01*
Y111756D01*
X716273Y114295D01*
X711194D01*
X708655Y111756D01*
Y109217D01*
X711194Y106678D01*
X718812D01*
X103629Y1260089D02*
X98550D01*
X101089D01*
Y1247393D01*
X98550Y1244854D01*
X96011D01*
X93472Y1247393D01*
X108707Y1260089D02*
X118864D01*
Y1257550D01*
X108707Y1247393D01*
Y1244854D01*
X1110485Y114295D02*
X1105406D01*
X1107945D01*
Y101599D01*
X1105406Y99060D01*
X1102867D01*
X1100328Y101599D01*
X1125720Y114295D02*
X1120641Y111756D01*
X1115563Y106678D01*
Y101599D01*
X1118102Y99060D01*
X1123181D01*
X1125720Y101599D01*
Y104138D01*
X1123181Y106678D01*
X1115563D01*
X1311145Y114295D02*
X1306066D01*
X1308605D01*
Y101599D01*
X1306066Y99060D01*
X1303527D01*
X1300988Y101599D01*
X1326380Y114295D02*
X1316223D01*
Y106678D01*
X1321301Y109217D01*
X1323841D01*
X1326380Y106678D01*
Y101599D01*
X1323841Y99060D01*
X1318762D01*
X1316223Y101599D01*
X84579Y522727D02*
X79500D01*
X82039D01*
Y510031D01*
X79500Y507492D01*
X76961D01*
X74422Y510031D01*
X97275Y507492D02*
Y522727D01*
X89657Y515109D01*
X99814D01*
X1066543Y1373373D02*
X1061464D01*
X1064004D01*
Y1360677D01*
X1061464Y1358138D01*
X1058925D01*
X1056386Y1360677D01*
X1071621Y1370834D02*
X1074160Y1373373D01*
X1079239D01*
X1081778Y1370834D01*
Y1368295D01*
X1079239Y1365755D01*
X1076699D01*
X1079239D01*
X1081778Y1363216D01*
Y1360677D01*
X1079239Y1358138D01*
X1074160D01*
X1071621Y1360677D01*
X922017Y1362197D02*
X916938D01*
X919477D01*
Y1349501D01*
X916938Y1346962D01*
X914399D01*
X911860Y1349501D01*
X937252Y1346962D02*
X927095D01*
X937252Y1357119D01*
Y1359658D01*
X934713Y1362197D01*
X929634D01*
X927095Y1359658D01*
X752348Y385567D02*
Y370332D01*
X759966D01*
X762505Y372871D01*
Y383028D01*
X759966Y385567D01*
X752348D01*
X767583Y372871D02*
X770122Y370332D01*
X775201D01*
X777740Y372871D01*
Y383028D01*
X775201Y385567D01*
X770122D01*
X767583Y383028D01*
Y380489D01*
X770122Y377949D01*
X777740D01*
X956818Y386837D02*
Y371602D01*
X964436D01*
X966975Y374141D01*
Y384298D01*
X964436Y386837D01*
X956818D01*
X972053Y384298D02*
X974592Y386837D01*
X979671D01*
X982210Y384298D01*
Y381759D01*
X979671Y379220D01*
X982210Y376680D01*
Y374141D01*
X979671Y371602D01*
X974592D01*
X972053Y374141D01*
Y376680D01*
X974592Y379220D01*
X972053Y381759D01*
Y384298D01*
X974592Y379220D02*
X979671D01*
X1161288Y385567D02*
Y370332D01*
X1168905D01*
X1171445Y372871D01*
Y383028D01*
X1168905Y385567D01*
X1161288D01*
X1186680D02*
X1181601Y383028D01*
X1176523Y377949D01*
Y372871D01*
X1179062Y370332D01*
X1184141D01*
X1186680Y372871D01*
Y375410D01*
X1184141Y377949D01*
X1176523D01*
X1361948Y385567D02*
Y370332D01*
X1369565D01*
X1372105Y372871D01*
Y383028D01*
X1369565Y385567D01*
X1361948D01*
X1387340D02*
X1377183D01*
Y377949D01*
X1382261Y380489D01*
X1384801D01*
X1387340Y377949D01*
Y372871D01*
X1384801Y370332D01*
X1379722D01*
X1377183Y372871D01*
X1034034Y990341D02*
Y975106D01*
X1041652D01*
X1044191Y977645D01*
Y987802D01*
X1041652Y990341D01*
X1034034D01*
X1056887Y975106D02*
Y990341D01*
X1049269Y982723D01*
X1059426D01*
D11*
X1122673Y339105D02*
G03*
X1123496Y399167I-13309J30219D01*
G01*
X1322063Y339105D02*
G03*
X1322886Y399167I-13309J30219D01*
G01*
X919473Y340375D02*
G03*
X920296Y400437I-13309J30219D01*
G01*
X713733Y339105D02*
G03*
X714556Y399167I-13309J30219D01*
G01*
X1096010Y342900D02*
Y394462D01*
Y342900D02*
X1102614Y339598D01*
X1096010Y394462D02*
X1102300Y398866D01*
X1295400Y342900D02*
Y394462D01*
Y342900D02*
X1302004Y339598D01*
X1295400Y394462D02*
X1301690Y398866D01*
X892810Y344170D02*
Y395732D01*
Y344170D02*
X899414Y340868D01*
X892810Y395732D02*
X899100Y400136D01*
X687070Y342900D02*
Y394462D01*
Y342900D02*
X693674Y339598D01*
X687070Y394462D02*
X693360Y398866D01*
D12*
X1204052Y421404D02*
G03*
X1220302Y421404I8125J0D01*
G01*
X1403442D02*
G03*
X1419692Y421404I8125J0D01*
G01*
X997042Y422673D02*
G03*
X1013292Y422673I8125J0D01*
G01*
X793842Y421404D02*
G03*
X810092Y421404I8125J0D01*
G01*
X1185766Y421403D02*
X1237394D01*
Y375018D02*
Y421403D01*
X1185766Y375018D02*
X1237394D01*
X1185766D02*
Y421403D01*
X1385156D02*
X1436784D01*
Y375018D02*
Y421403D01*
X1385156Y375018D02*
X1436784D01*
X1385156D02*
Y421403D01*
X978756Y422673D02*
X1030384D01*
Y376288D02*
Y422673D01*
X978756Y376288D02*
X1030384D01*
X978756D02*
Y422673D01*
X775556Y421403D02*
X827184D01*
Y375018D02*
Y421403D01*
X775556Y375018D02*
X827184D01*
X775556D02*
Y421403D01*
X1338732Y675811D02*
X1347196D01*
X1412392Y677503D02*
X1420856D01*
X1416624Y681735D02*
Y673271D01*
D13*
X1174981Y423624D02*
G03*
X1174981Y423624I-1501J0D01*
G01*
X1374371D02*
G03*
X1374371Y423624I-1501J0D01*
G01*
X967971Y424894D02*
G03*
X967971Y424894I-1501J0D01*
G01*
X764771Y423624D02*
G03*
X764771Y423624I-1501J0D01*
G01*
D14*
X1014032Y1280200D02*
X1031812D01*
X1014032Y1281060D02*
Y1288560D01*
X1031812D01*
Y1280200D02*
Y1338620D01*
X909892D02*
X1031812D01*
X909892Y1280200D02*
Y1338620D01*
X1000951Y1281060D02*
Y1288560D01*
X940952D02*
X1000951D01*
X940952Y1281060D02*
Y1288560D01*
Y1280200D02*
X1000951D01*
X927672Y1281060D02*
Y1288560D01*
X909892D02*
X927672D01*
X909892Y1281060D02*
Y1288560D01*
Y1280200D02*
X927672D01*
X1025462Y1303560D02*
X1031812D01*
X965081Y1332270D02*
X1025462D01*
X916242D02*
X965081D01*
X909892Y1304330D02*
X916242D01*
X1031812Y1281060D02*
Y1288560D01*
X909892Y1280200D02*
X1031812D01*
X1025462Y1303560D02*
Y1332270D01*
X1078670Y1176655D02*
Y1183005D01*
X1106650D01*
X1078710Y1343558D02*
Y1349908D01*
D15*
X916242Y1304330D02*
Y1332270D01*
X1106650Y1183005D02*
Y1343558D01*
X1054540Y1334770D02*
X1061230D01*
X1054540Y1318260D02*
X1061230D01*
X1054540Y1207770D02*
X1061230D01*
X1054540Y1191260D02*
X1061230D01*
X1112960Y1176150D02*
Y1350010D01*
X1054540D02*
X1112960D01*
X1054540Y1176150D02*
Y1350010D01*
Y1176150D02*
X1112960D01*
X1061230Y1207770D02*
Y1318260D01*
Y1334770D02*
Y1349670D01*
Y1176360D02*
Y1191260D01*
X1078710Y1343558D02*
X1106650D01*
M02*
