G04*
G04 #@! TF.GenerationSoftware,Altium Limited,Altium Designer,25.0.2 (28)*
G04*
G04 Layer_Physical_Order=2*
G04 Layer_Color=16711680*
%FSLAX44Y44*%
%MOMM*%
G71*
G04*
G04 #@! TF.SameCoordinates,EC434AE0-B9B9-438B-98C1-4E927CCEC0A2*
G04*
G04*
G04 #@! TF.FilePolarity,Positive*
G04*
G01*
G75*
%ADD10C,0.2540*%
%ADD30C,0.2000*%
%ADD31O,2.2000X4.0000*%
%ADD32C,5.0000*%
%ADD33C,2.5000*%
%ADD34O,2.5000X2.0000*%
%ADD35C,2.5000*%
%ADD36C,2.0000*%
%ADD37O,2.5400X1.6764*%
%ADD38C,2.0000*%
%ADD39O,2.0000X1.5240*%
%ADD40O,2.0000X1.0000*%
%ADD41R,2.0000X1.0000*%
%ADD42R,2.5000X2.5000*%
%ADD43C,1.2700*%
%ADD44R,1.3300X1.3300*%
%ADD45R,1.6500X0.9000*%
%ADD46R,0.9000X1.6500*%
%ADD47R,1.5000X1.2300*%
%ADD48R,0.7620X1.2954*%
%ADD49R,1.2954X0.7620*%
%ADD50R,1.1430X0.6350*%
%ADD51R,1.2300X1.5000*%
%ADD52R,1.4500X0.9000*%
%ADD53R,2.6500X1.7500*%
%ADD54R,0.9000X1.4500*%
%ADD55R,3.0000X1.6000*%
%ADD56R,5.5000X2.0000*%
%ADD57R,2.2240X1.1422*%
%ADD58R,1.6500X2.2000*%
%ADD59R,1.6000X3.0000*%
%ADD60R,1.7500X2.6500*%
%ADD61R,3.4000X1.0000*%
%ADD62R,8.6000X10.7000*%
%ADD63R,5.0000X4.0000*%
%ADD64R,5.0000X4.0000*%
%ADD65R,1.0000X1.6500*%
%ADD66R,3.3000X1.6500*%
%ADD67O,1.8000X0.3000*%
%ADD68O,0.3000X1.8000*%
%ADD69C,0.5000*%
%ADD70C,0.8000*%
%ADD71C,0.3500*%
%ADD72C,1.0000*%
%ADD73C,0.4000*%
%ADD74C,2.0000*%
G36*
X883221Y996630D02*
X883343Y996582D01*
X883497Y996539D01*
X883683Y996502D01*
X883902Y996471D01*
X884435Y996426D01*
X885475Y996400D01*
Y994400D01*
X885096Y994397D01*
X883683Y994298D01*
X883497Y994261D01*
X883343Y994219D01*
X883221Y994170D01*
X883131Y994117D01*
Y996684D01*
X883221Y996630D01*
D02*
G37*
G36*
X883201Y991645D02*
X883306Y991610D01*
X883446Y991580D01*
X883621Y991553D01*
X884073Y991513D01*
X885013Y991482D01*
X885396Y991480D01*
X885536Y989480D01*
X885165Y989476D01*
X883969Y989389D01*
X883743Y989349D01*
X883547Y989302D01*
X883379Y989247D01*
X883240Y989185D01*
X883131Y989116D01*
Y991684D01*
X883201Y991645D01*
D02*
G37*
G36*
X883221Y986630D02*
X883343Y986582D01*
X883497Y986539D01*
X883683Y986502D01*
X883902Y986471D01*
X884435Y986426D01*
X885475Y986400D01*
Y984400D01*
X885096Y984397D01*
X883683Y984298D01*
X883497Y984261D01*
X883343Y984219D01*
X883221Y984170D01*
X883131Y984117D01*
Y986684D01*
X883221Y986630D01*
D02*
G37*
G36*
X883240Y981614D02*
X883379Y981553D01*
X883546Y981498D01*
X883743Y981451D01*
X883969Y981411D01*
X884508Y981353D01*
X885164Y981324D01*
X885536Y981320D01*
X885397Y979320D01*
X885014Y979318D01*
X883446Y979220D01*
X883307Y979190D01*
X883201Y979155D01*
X883131Y979116D01*
Y981684D01*
X883240Y981614D01*
D02*
G37*
G36*
X817840Y686281D02*
X812840D01*
X810871Y691281D01*
X819809D01*
X817840Y686281D01*
D02*
G37*
G36*
X817860Y678019D02*
X818017Y676420D01*
X818155Y675770D01*
X818332Y675219D01*
X818549Y674770D01*
X818805Y674419D01*
X819100Y674169D01*
X819435Y674019D01*
X819809Y673969D01*
X810871D01*
X811245Y674019D01*
X811580Y674169D01*
X811875Y674419D01*
X812131Y674770D01*
X812348Y675219D01*
X812525Y675770D01*
X812663Y676420D01*
X812761Y677169D01*
X812820Y678019D01*
X812840Y678969D01*
X817840D01*
X817860Y678019D01*
D02*
G37*
G36*
X792870Y673969D02*
X792901Y668100D01*
X787870Y670600D01*
Y675600D01*
X792870Y673969D01*
D02*
G37*
G36*
X929311Y666847D02*
X923268Y669330D01*
Y674330D01*
X929311Y676813D01*
Y666847D01*
D02*
G37*
G36*
X479767Y654032D02*
X478972Y653201D01*
X477723Y651672D01*
X477270Y650973D01*
X476932Y650319D01*
X476708Y649708D01*
X476598Y649142D01*
X476603Y648620D01*
X476722Y648142D01*
X476955Y647708D01*
X471120Y655977D01*
X471439Y655627D01*
X471812Y655402D01*
X472241Y655302D01*
X472724Y655328D01*
X473263Y655479D01*
X473856Y655755D01*
X474504Y656157D01*
X475207Y656684D01*
X475965Y657336D01*
X476778Y658114D01*
X479767Y654032D01*
D02*
G37*
G36*
X817840Y654530D02*
X812840D01*
X810871Y659530D01*
X819809D01*
X817840Y654530D01*
D02*
G37*
G36*
X307500Y653045D02*
X305052Y647080D01*
X298000Y654132D01*
X298376Y653840D01*
X298801Y653668D01*
X299275Y653614D01*
X299798Y653680D01*
X300370Y653865D01*
X300991Y654170D01*
X301661Y654594D01*
X302380Y655137D01*
X303148Y655799D01*
X303965Y656581D01*
X307500Y653045D01*
D02*
G37*
G36*
X1428569Y665100D02*
X1428810Y664420D01*
X1429212Y663820D01*
X1429774Y663300D01*
X1430497Y662860D01*
X1431380Y662500D01*
X1432424Y662220D01*
X1433629Y662020D01*
X1434994Y661900D01*
X1436519Y661860D01*
Y653860D01*
X1434994Y653820D01*
X1433629Y653700D01*
X1432424Y653500D01*
X1431380Y653220D01*
X1430497Y652860D01*
X1429774Y652420D01*
X1429212Y651900D01*
X1428810Y651300D01*
X1428569Y650620D01*
X1428489Y649860D01*
Y665860D01*
X1428569Y665100D01*
D02*
G37*
G36*
X801330Y625321D02*
X796330D01*
X793830Y630321D01*
X801809D01*
X801330Y625321D01*
D02*
G37*
G36*
X1046485Y519044D02*
X1046620Y518209D01*
X1046845Y517369D01*
X1047160Y516523D01*
X1047565Y515672D01*
X1048060Y514815D01*
X1048645Y513953D01*
X1049320Y513084D01*
X1050085Y512211D01*
X1050940Y511331D01*
X1036940D01*
X1037795Y512211D01*
X1039235Y513953D01*
X1039820Y514815D01*
X1040315Y515672D01*
X1040720Y516523D01*
X1041035Y517369D01*
X1041260Y518209D01*
X1041395Y519044D01*
X1041440Y519872D01*
X1046440D01*
X1046485Y519044D01*
D02*
G37*
G36*
X1451615Y517774D02*
X1451750Y516939D01*
X1451975Y516099D01*
X1452290Y515253D01*
X1452695Y514402D01*
X1453190Y513545D01*
X1453775Y512683D01*
X1454450Y511814D01*
X1455215Y510941D01*
X1456070Y510061D01*
X1442070D01*
X1442925Y510941D01*
X1444365Y512683D01*
X1444950Y513545D01*
X1445445Y514402D01*
X1445850Y515253D01*
X1446165Y516099D01*
X1446390Y516939D01*
X1446525Y517774D01*
X1446570Y518602D01*
X1451570D01*
X1451615Y517774D01*
D02*
G37*
G36*
X1252225D02*
X1252360Y516939D01*
X1252585Y516099D01*
X1252900Y515253D01*
X1253305Y514402D01*
X1253800Y513545D01*
X1254385Y512683D01*
X1255060Y511814D01*
X1255825Y510941D01*
X1256680Y510061D01*
X1242680D01*
X1243535Y510941D01*
X1244975Y512683D01*
X1245560Y513545D01*
X1246055Y514402D01*
X1246460Y515253D01*
X1246775Y516099D01*
X1247000Y516939D01*
X1247135Y517774D01*
X1247180Y518602D01*
X1252180D01*
X1252225Y517774D01*
D02*
G37*
G36*
X842015D02*
X842150Y516939D01*
X842375Y516099D01*
X842690Y515253D01*
X843095Y514402D01*
X843590Y513545D01*
X844175Y512683D01*
X844850Y511814D01*
X845615Y510941D01*
X846470Y510061D01*
X832470D01*
X833325Y510941D01*
X834765Y512683D01*
X835350Y513545D01*
X835845Y514402D01*
X836250Y515253D01*
X836565Y516099D01*
X836790Y516939D01*
X836925Y517774D01*
X836970Y518602D01*
X841970D01*
X842015Y517774D01*
D02*
G37*
G36*
X923085Y496169D02*
X921645Y494427D01*
X921060Y493565D01*
X920565Y492708D01*
X920160Y491857D01*
X919845Y491011D01*
X919620Y490171D01*
X919485Y489336D01*
X919440Y488508D01*
X914440D01*
X914395Y489336D01*
X914260Y490171D01*
X914035Y491011D01*
X913720Y491857D01*
X913315Y492708D01*
X912820Y493565D01*
X912235Y494427D01*
X911560Y495295D01*
X910795Y496169D01*
X909940Y497049D01*
X923940D01*
X923085Y496169D01*
D02*
G37*
G36*
X1328215Y494899D02*
X1326775Y493157D01*
X1326190Y492295D01*
X1325695Y491438D01*
X1325290Y490587D01*
X1324975Y489741D01*
X1324750Y488901D01*
X1324615Y488066D01*
X1324570Y487238D01*
X1319570D01*
X1319525Y488066D01*
X1319390Y488901D01*
X1319165Y489741D01*
X1318850Y490587D01*
X1318445Y491438D01*
X1317950Y492295D01*
X1317365Y493157D01*
X1316690Y494025D01*
X1315925Y494899D01*
X1315070Y495779D01*
X1329070D01*
X1328215Y494899D01*
D02*
G37*
G36*
X1128825D02*
X1127385Y493157D01*
X1126800Y492295D01*
X1126305Y491438D01*
X1125900Y490587D01*
X1125585Y489741D01*
X1125360Y488901D01*
X1125225Y488066D01*
X1125180Y487238D01*
X1120180D01*
X1120135Y488066D01*
X1120000Y488901D01*
X1119775Y489741D01*
X1119460Y490587D01*
X1119055Y491438D01*
X1118560Y492295D01*
X1117975Y493157D01*
X1117300Y494025D01*
X1116535Y494899D01*
X1115680Y495779D01*
X1129680D01*
X1128825Y494899D01*
D02*
G37*
G36*
X718615D02*
X717175Y493157D01*
X716590Y492295D01*
X716095Y491438D01*
X715690Y490587D01*
X715375Y489741D01*
X715150Y488901D01*
X715015Y488066D01*
X714970Y487238D01*
X709970D01*
X709925Y488066D01*
X709790Y488901D01*
X709565Y489741D01*
X709250Y490587D01*
X708845Y491438D01*
X708350Y492295D01*
X707765Y493157D01*
X707090Y494025D01*
X706325Y494899D01*
X705470Y495779D01*
X719470D01*
X718615Y494899D01*
D02*
G37*
G36*
X473689Y479215D02*
X473840Y478790D01*
X474092Y478415D01*
X474444Y478090D01*
X474897Y477815D01*
X475450Y477590D01*
X476104Y477415D01*
X476858Y477290D01*
X477714Y477215D01*
X478670Y477190D01*
Y472190D01*
X477714Y472165D01*
X476858Y472090D01*
X476104Y471965D01*
X475450Y471790D01*
X474897Y471565D01*
X474444Y471290D01*
X474092Y470965D01*
X473840Y470590D01*
X473689Y470165D01*
X473639Y469690D01*
Y479690D01*
X473689Y479215D01*
D02*
G37*
G36*
X459700Y461470D02*
X454700D01*
X452200Y466470D01*
X462200D01*
X459700Y461470D01*
D02*
G37*
G36*
X523362Y466234D02*
X516321Y459193D01*
X512755Y466264D01*
X516291Y469800D01*
X523362Y466234D01*
D02*
G37*
G36*
X1241202Y450627D02*
X1240949Y450965D01*
X1240636Y451267D01*
X1240262Y451534D01*
X1239828Y451765D01*
X1239334Y451961D01*
X1238779Y452121D01*
X1238164Y452246D01*
X1237488Y452335D01*
X1236752Y452388D01*
X1235956Y452406D01*
Y457406D01*
X1236649Y457426D01*
X1237284Y457485D01*
X1237862Y457585D01*
X1238383Y457724D01*
X1238846Y457903D01*
X1239252Y458121D01*
X1239600Y458380D01*
X1239890Y458678D01*
X1240124Y459016D01*
X1240299Y459394D01*
X1241202Y450627D01*
D02*
G37*
G36*
X830992D02*
X830739Y450965D01*
X830426Y451267D01*
X830052Y451534D01*
X829619Y451765D01*
X829124Y451961D01*
X828569Y452121D01*
X827954Y452246D01*
X827278Y452335D01*
X826542Y452388D01*
X825746Y452406D01*
Y457406D01*
X826439Y457426D01*
X827074Y457485D01*
X827653Y457585D01*
X828173Y457724D01*
X828636Y457903D01*
X829042Y458121D01*
X829390Y458380D01*
X829680Y458678D01*
X829913Y459016D01*
X830089Y459394D01*
X830992Y450627D01*
D02*
G37*
G36*
X1036799Y450200D02*
X1035919Y451055D01*
X1034177Y452495D01*
X1033315Y453080D01*
X1032458Y453575D01*
X1031607Y453980D01*
X1030761Y454295D01*
X1029921Y454520D01*
X1029086Y454655D01*
X1028258Y454700D01*
Y459700D01*
X1029086Y459745D01*
X1029921Y459880D01*
X1030761Y460105D01*
X1031607Y460420D01*
X1032458Y460825D01*
X1033315Y461320D01*
X1034177Y461905D01*
X1035045Y462580D01*
X1035919Y463345D01*
X1036799Y464200D01*
Y450200D01*
D02*
G37*
G36*
X909799D02*
X908919Y451055D01*
X907177Y452495D01*
X906315Y453080D01*
X905458Y453575D01*
X904607Y453980D01*
X903761Y454295D01*
X902921Y454520D01*
X902086Y454655D01*
X901258Y454700D01*
Y459700D01*
X902086Y459745D01*
X902921Y459880D01*
X903761Y460105D01*
X904607Y460420D01*
X905458Y460825D01*
X906315Y461320D01*
X907177Y461905D01*
X908046Y462580D01*
X908919Y463345D01*
X909799Y464200D01*
Y450200D01*
D02*
G37*
G36*
X1441929Y448930D02*
X1441049Y449785D01*
X1439307Y451225D01*
X1438445Y451810D01*
X1437588Y452305D01*
X1436737Y452710D01*
X1435891Y453025D01*
X1435051Y453250D01*
X1434216Y453385D01*
X1433388Y453430D01*
Y458430D01*
X1434216Y458475D01*
X1435051Y458610D01*
X1435891Y458835D01*
X1436737Y459150D01*
X1437588Y459555D01*
X1438445Y460050D01*
X1439307Y460635D01*
X1440175Y461310D01*
X1441049Y462075D01*
X1441929Y462930D01*
Y448930D01*
D02*
G37*
G36*
X1314929D02*
X1314049Y449785D01*
X1312307Y451225D01*
X1311445Y451810D01*
X1310588Y452305D01*
X1309737Y452710D01*
X1308891Y453025D01*
X1308051Y453250D01*
X1307216Y453385D01*
X1306388Y453430D01*
Y458430D01*
X1307216Y458475D01*
X1308051Y458610D01*
X1308891Y458835D01*
X1309737Y459150D01*
X1310588Y459555D01*
X1311445Y460050D01*
X1312307Y460635D01*
X1313176Y461310D01*
X1314049Y462075D01*
X1314929Y462930D01*
Y448930D01*
D02*
G37*
G36*
X1115539D02*
X1114659Y449785D01*
X1112917Y451225D01*
X1112055Y451810D01*
X1111198Y452305D01*
X1110347Y452710D01*
X1109501Y453025D01*
X1108661Y453250D01*
X1107826Y453385D01*
X1106998Y453430D01*
Y458430D01*
X1107826Y458475D01*
X1108661Y458610D01*
X1109501Y458835D01*
X1110347Y459150D01*
X1111198Y459555D01*
X1112055Y460050D01*
X1112917Y460635D01*
X1113785Y461310D01*
X1114659Y462075D01*
X1115539Y462930D01*
Y448930D01*
D02*
G37*
G36*
X705329D02*
X704449Y449785D01*
X702707Y451225D01*
X701845Y451810D01*
X700988Y452305D01*
X700137Y452710D01*
X699291Y453025D01*
X698451Y453250D01*
X697616Y453385D01*
X696788Y453430D01*
Y458430D01*
X697616Y458475D01*
X698451Y458610D01*
X699291Y458835D01*
X700137Y459150D01*
X700988Y459555D01*
X701845Y460050D01*
X702707Y460635D01*
X703576Y461310D01*
X704449Y462075D01*
X705329Y462930D01*
Y448930D01*
D02*
G37*
G36*
X792471Y467282D02*
X792683Y465794D01*
X793036Y464647D01*
X793531Y463843D01*
X794168Y463379D01*
X794946Y463257D01*
X795865Y463476D01*
X796926Y464037D01*
X798128Y464939D01*
X799471Y466182D01*
Y452040D01*
X798128Y450597D01*
X796926Y449094D01*
X795865Y447534D01*
X794946Y445914D01*
X794168Y444237D01*
X793531Y442500D01*
X793036Y440705D01*
X792683Y438852D01*
X792471Y436940D01*
X792400Y434969D01*
X782400Y447040D01*
X792400Y469111D01*
X792471Y467282D01*
D02*
G37*
G36*
X574910Y433680D02*
X561470Y426609D01*
X553399Y432681D01*
X560471Y442620D01*
X574910Y433680D01*
D02*
G37*
G36*
X968995Y424308D02*
X969070Y423373D01*
X969194Y422547D01*
X969368Y421832D01*
X969592Y421227D01*
X969866Y420732D01*
X970189Y420347D01*
X970563Y420071D01*
X970985Y419907D01*
X971458Y419851D01*
X961482D01*
X961954Y419907D01*
X962377Y420071D01*
X962751Y420347D01*
X963074Y420732D01*
X963348Y421227D01*
X963572Y421832D01*
X963746Y422547D01*
X963870Y423373D01*
X963945Y424308D01*
X963970Y425354D01*
X968970D01*
X968995Y424308D01*
D02*
G37*
G36*
X1375395Y423038D02*
X1375470Y422103D01*
X1375594Y421278D01*
X1375768Y420562D01*
X1375992Y419957D01*
X1376266Y419462D01*
X1376589Y419077D01*
X1376962Y418801D01*
X1377386Y418636D01*
X1377858Y418581D01*
X1367882D01*
X1368354Y418636D01*
X1368777Y418801D01*
X1369151Y419077D01*
X1369474Y419462D01*
X1369748Y419957D01*
X1369972Y420562D01*
X1370146Y421278D01*
X1370271Y422103D01*
X1370345Y423038D01*
X1370370Y424084D01*
X1375370D01*
X1375395Y423038D01*
D02*
G37*
G36*
X1176005D02*
X1176079Y422103D01*
X1176204Y421278D01*
X1176378Y420562D01*
X1176602Y419957D01*
X1176876Y419462D01*
X1177199Y419077D01*
X1177572Y418801D01*
X1177996Y418636D01*
X1178468Y418581D01*
X1168492D01*
X1168964Y418636D01*
X1169388Y418801D01*
X1169761Y419077D01*
X1170084Y419462D01*
X1170358Y419957D01*
X1170582Y420562D01*
X1170756Y421278D01*
X1170881Y422103D01*
X1170955Y423038D01*
X1170980Y424084D01*
X1175980D01*
X1176005Y423038D01*
D02*
G37*
G36*
X765795D02*
X765870Y422103D01*
X765994Y421278D01*
X766168Y420562D01*
X766392Y419957D01*
X766666Y419462D01*
X766989Y419077D01*
X767363Y418801D01*
X767785Y418636D01*
X768258Y418581D01*
X758282D01*
X758755Y418636D01*
X759177Y418801D01*
X759551Y419077D01*
X759874Y419462D01*
X760148Y419957D01*
X760372Y420562D01*
X760546Y421278D01*
X760670Y422103D01*
X760745Y423038D01*
X760770Y424084D01*
X765770D01*
X765795Y423038D01*
D02*
G37*
G36*
X459725Y418960D02*
X459799Y418110D01*
X459922Y417360D01*
X460095Y416710D01*
X460317Y416160D01*
X460589Y415710D01*
X460910Y415360D01*
X461281Y415110D01*
X461700Y414960D01*
X462169Y414910D01*
X452230D01*
X452700Y414960D01*
X453120Y415110D01*
X453490Y415360D01*
X453811Y415710D01*
X454083Y416160D01*
X454305Y416710D01*
X454478Y417360D01*
X454601Y418110D01*
X454675Y418960D01*
X454700Y419910D01*
X459700D01*
X459725Y418960D01*
D02*
G37*
G36*
X532830Y432595D02*
X533130Y431745D01*
X533629Y430995D01*
X534329Y430345D01*
X535229Y429795D01*
X536329Y429345D01*
X537630Y428995D01*
X539129Y428745D01*
X540830Y428595D01*
X542729Y428545D01*
Y418545D01*
X540830Y418495D01*
X539129Y418345D01*
X537630Y418095D01*
X536329Y417745D01*
X535229Y417295D01*
X534329Y416745D01*
X533629Y416095D01*
X533130Y415345D01*
X532830Y414495D01*
X532729Y413545D01*
Y433545D01*
X532830Y432595D01*
D02*
G37*
G36*
X1464720Y417137D02*
X1463687Y416084D01*
X1460511Y412433D01*
X1459955Y411660D01*
X1459496Y410943D01*
X1459132Y410282D01*
X1458863Y409677D01*
X1458690Y409128D01*
X1449708Y419062D01*
X1460301Y424029D01*
X1464720Y417137D01*
D02*
G37*
G36*
X1050600Y417744D02*
X1050822Y417535D01*
X1051191Y417351D01*
X1051708Y417192D01*
X1052372Y417057D01*
X1053184Y416946D01*
X1055252Y416799D01*
X1057910Y416750D01*
Y408750D01*
X1056507Y408738D01*
X1052372Y408443D01*
X1051708Y408308D01*
X1051191Y408149D01*
X1050822Y407965D01*
X1050600Y407756D01*
X1050526Y407523D01*
Y417977D01*
X1050600Y417744D01*
D02*
G37*
G36*
X845688Y418082D02*
X846210Y417919D01*
X846872Y417775D01*
X847674Y417651D01*
X849698Y417460D01*
X853782Y417316D01*
X855423Y417307D01*
Y409307D01*
X848041Y407116D01*
X845306Y418263D01*
X845688Y418082D01*
D02*
G37*
G36*
X1263765Y414095D02*
Y406097D01*
X1257149Y405885D01*
X1259067Y414316D01*
X1263765Y414095D01*
D02*
G37*
G36*
X528061Y412606D02*
X516291Y405504D01*
X509219Y412575D01*
X516321Y424346D01*
X528061Y412606D01*
D02*
G37*
G36*
X429361Y398690D02*
X421330Y402690D01*
Y410690D01*
X429361Y414690D01*
Y398690D01*
D02*
G37*
G36*
X485170Y414298D02*
X485470Y413751D01*
X485970Y413268D01*
X486670Y412849D01*
X487570Y412495D01*
X488670Y412205D01*
X489970Y411980D01*
X491470Y411819D01*
X495070Y411690D01*
Y401690D01*
X493170Y401658D01*
X489970Y401400D01*
X488670Y401175D01*
X487570Y400885D01*
X486670Y400531D01*
X485970Y400112D01*
X485470Y399630D01*
X485170Y399082D01*
X485070Y398471D01*
Y414910D01*
X485170Y414298D01*
D02*
G37*
G36*
X438300Y390471D02*
X430300D01*
X429330Y398471D01*
X439269D01*
X438300Y390471D01*
D02*
G37*
G36*
X918553Y403061D02*
X919400Y402679D01*
X920362Y402342D01*
X921441Y402049D01*
X922635Y401802D01*
X925370Y401442D01*
X926911Y401330D01*
X930341Y401240D01*
Y391240D01*
X928568Y391217D01*
X923944Y390880D01*
X922635Y390678D01*
X920362Y390138D01*
X919400Y389801D01*
X918553Y389419D01*
X917823Y388992D01*
Y403488D01*
X918553Y403061D01*
D02*
G37*
G36*
X1321143Y401791D02*
X1321990Y401409D01*
X1322953Y401072D01*
X1324031Y400779D01*
X1325225Y400532D01*
X1327960Y400172D01*
X1329501Y400060D01*
X1332931Y399970D01*
Y389970D01*
X1331158Y389948D01*
X1326534Y389610D01*
X1325225Y389408D01*
X1322953Y388868D01*
X1321990Y388531D01*
X1321143Y388149D01*
X1320413Y387722D01*
Y402218D01*
X1321143Y401791D01*
D02*
G37*
G36*
X1121753D02*
X1122600Y401409D01*
X1123562Y401072D01*
X1124641Y400779D01*
X1125835Y400532D01*
X1128570Y400172D01*
X1130111Y400060D01*
X1133541Y399970D01*
Y389970D01*
X1131768Y389948D01*
X1127144Y389610D01*
X1125835Y389408D01*
X1123562Y388868D01*
X1122600Y388531D01*
X1121753Y388149D01*
X1121023Y387722D01*
Y402218D01*
X1121753Y401791D01*
D02*
G37*
G36*
X712813D02*
X713660Y401409D01*
X714622Y401072D01*
X715701Y400779D01*
X716895Y400532D01*
X719630Y400172D01*
X721171Y400060D01*
X724601Y399970D01*
Y389970D01*
X722829Y389948D01*
X718204Y389610D01*
X716895Y389408D01*
X714622Y388868D01*
X713660Y388531D01*
X712813Y388149D01*
X712083Y387722D01*
Y402218D01*
X712813Y401791D01*
D02*
G37*
G36*
X1033700Y383636D02*
X1033745Y384108D01*
X1033648Y384530D01*
X1033410Y384903D01*
X1033030Y385226D01*
X1032509Y385499D01*
X1031846Y385723D01*
X1031042Y385896D01*
X1030096Y386021D01*
X1029009Y386095D01*
X1027780Y386120D01*
X1028699Y391120D01*
X1029985Y391145D01*
X1032188Y391343D01*
X1033104Y391516D01*
X1033897Y391739D01*
X1034566Y392011D01*
X1035113Y392332D01*
X1035536Y392703D01*
X1035836Y393124D01*
X1036012Y393594D01*
X1033700Y383636D01*
D02*
G37*
G36*
X1240252Y383343D02*
X1236449Y384111D01*
Y389111D01*
X1240761Y389876D01*
X1240252Y383343D01*
D02*
G37*
G36*
X780259Y392200D02*
X778995Y390919D01*
X774279Y385590D01*
X773657Y384741D01*
X772734Y383257D01*
X772433Y382624D01*
X760511Y393633D01*
X774456Y400540D01*
X780259Y392200D01*
D02*
G37*
G36*
X972635Y393985D02*
X973110Y393852D01*
X973732Y393735D01*
X974501Y393634D01*
X976480Y393478D01*
X982202Y393353D01*
Y383353D01*
X974695Y382554D01*
X972306Y394133D01*
X972635Y393985D01*
D02*
G37*
G36*
X830652Y382119D02*
X825500Y383580D01*
Y388580D01*
X830652Y390041D01*
Y382119D01*
D02*
G37*
G36*
X1441003Y381100D02*
X1434511Y383580D01*
Y388580D01*
X1441003Y391060D01*
Y381100D01*
D02*
G37*
G36*
X960634Y380567D02*
X959725Y381071D01*
X958732Y381522D01*
X957653Y381920D01*
X956489Y382265D01*
X955240Y382557D01*
X953906Y382795D01*
X950983Y383114D01*
X949394Y383193D01*
X947720Y383220D01*
X949277Y393220D01*
X951166Y393229D01*
X959703Y393804D01*
X960252Y393960D01*
X960634Y394133D01*
Y380567D01*
D02*
G37*
G36*
X1167644Y379297D02*
X1166998Y379636D01*
X1166222Y379939D01*
X1165319Y380206D01*
X1164286Y380438D01*
X1163125Y380634D01*
X1160417Y380919D01*
X1157194Y381062D01*
X1155389Y381080D01*
Y391080D01*
X1157194Y391098D01*
X1163125Y391526D01*
X1164286Y391722D01*
X1165319Y391954D01*
X1166222Y392221D01*
X1166998Y392524D01*
X1167644Y392863D01*
Y379297D01*
D02*
G37*
G36*
X757434D02*
X756787Y379636D01*
X756012Y379939D01*
X755109Y380206D01*
X754076Y380438D01*
X752915Y380634D01*
X750207Y380919D01*
X746984Y381062D01*
X745180Y381080D01*
Y391080D01*
X746984Y391098D01*
X752915Y391526D01*
X754076Y391722D01*
X755109Y391954D01*
X756012Y392221D01*
X756787Y392524D01*
X757434Y392863D01*
Y379297D01*
D02*
G37*
G36*
X691059Y368160D02*
X691040Y368219D01*
X690962Y368273D01*
X690825Y368320D01*
X690629Y368361D01*
X690374Y368396D01*
X689684Y368446D01*
X688206Y368474D01*
Y373474D01*
X692066Y373778D01*
X691059Y368160D01*
D02*
G37*
G36*
X1100295Y366977D02*
X1100272Y367141D01*
X1100171Y367287D01*
X1099990Y367417D01*
X1099730Y367529D01*
X1099391Y367624D01*
X1098974Y367701D01*
X1098476Y367762D01*
X1097245Y367831D01*
X1096511Y367839D01*
Y372839D01*
X1100960Y373698D01*
X1100295Y366977D01*
D02*
G37*
G36*
X898234Y365991D02*
X891985Y368474D01*
X892077Y373474D01*
X898419Y375954D01*
X898234Y365991D01*
D02*
G37*
G36*
X1300914Y364587D02*
X1294621Y367070D01*
Y372070D01*
X1300914Y374553D01*
Y364587D01*
D02*
G37*
G36*
X223153Y359981D02*
X223452Y359866D01*
X223953Y359763D01*
X224653Y359675D01*
X226653Y359539D01*
X233053Y359430D01*
Y349430D01*
X231152Y349423D01*
X223153Y348879D01*
X223053Y348750D01*
Y360111D01*
X223153Y359981D01*
D02*
G37*
G36*
X135890Y345440D02*
X101600D01*
Y439420D01*
X135890D01*
Y345440D01*
D02*
G37*
G36*
X257460Y344430D02*
X247460Y349430D01*
Y359430D01*
X257460Y364430D01*
Y344430D01*
D02*
G37*
G36*
X1049151Y356442D02*
X1049803Y355932D01*
X1050499Y355482D01*
X1051237Y355092D01*
X1052018Y354762D01*
X1052841Y354492D01*
X1053708Y354282D01*
X1054618Y354132D01*
X1055570Y354042D01*
X1056565Y354012D01*
Y346012D01*
X1055570Y345982D01*
X1054618Y345892D01*
X1053708Y345742D01*
X1052841Y345532D01*
X1052018Y345262D01*
X1051237Y344932D01*
X1050499Y344542D01*
X1049803Y344092D01*
X1049151Y343582D01*
X1048541Y343012D01*
Y357012D01*
X1049151Y356442D01*
D02*
G37*
G36*
X918572Y352214D02*
X920084Y351415D01*
X920846Y351090D01*
X921613Y350815D01*
X922383Y350591D01*
X923158Y350416D01*
X923937Y350291D01*
X924720Y350216D01*
X925508Y350191D01*
X926991Y345191D01*
X921496Y342701D01*
X917823Y352688D01*
X918572Y352214D01*
D02*
G37*
G36*
X273469Y361380D02*
X273770Y360530D01*
X274272Y359780D01*
X274974Y359130D01*
X275877Y358580D01*
X276980Y358130D01*
X278284Y357780D01*
X279788Y357530D01*
X281494Y357380D01*
X283400Y357330D01*
Y347330D01*
X281494Y347280D01*
X279788Y347130D01*
X278284Y346880D01*
X276980Y346530D01*
X275877Y346080D01*
X274974Y345530D01*
X274272Y344880D01*
X273770Y344130D01*
X273469Y343280D01*
X273369Y342330D01*
Y362330D01*
X273469Y361380D01*
D02*
G37*
G36*
X1254194Y354399D02*
X1254701Y353958D01*
X1255277Y353569D01*
X1255920Y353232D01*
X1256633Y352946D01*
X1257413Y352713D01*
X1258261Y352531D01*
X1259178Y352401D01*
X1260163Y352323D01*
X1261217Y352297D01*
X1260828Y344297D01*
X1259775Y344273D01*
X1257861Y344083D01*
X1257000Y343916D01*
X1256203Y343702D01*
X1255470Y343440D01*
X1254800Y343130D01*
X1254195Y342773D01*
X1253654Y342368D01*
X1253177Y341915D01*
X1253755Y354893D01*
X1254194Y354399D01*
D02*
G37*
G36*
X959878Y341546D02*
X958740Y342238D01*
X955584Y343879D01*
X954619Y344280D01*
X952817Y344863D01*
X951981Y345045D01*
X951188Y345154D01*
X950439Y345191D01*
X949202Y350191D01*
X950075Y350241D01*
X950919Y350390D01*
X951734Y350638D01*
X952521Y350987D01*
X953278Y351434D01*
X954006Y351981D01*
X954705Y352627D01*
X955376Y353373D01*
X956017Y354218D01*
X956629Y355163D01*
X959878Y341546D01*
D02*
G37*
G36*
X1321162Y350944D02*
X1322674Y350145D01*
X1323436Y349820D01*
X1324203Y349545D01*
X1324973Y349320D01*
X1325748Y349146D01*
X1326527Y349021D01*
X1327310Y348946D01*
X1328098Y348921D01*
X1329581Y343921D01*
X1324086Y341431D01*
X1320413Y351418D01*
X1321162Y350944D01*
D02*
G37*
G36*
X1121772D02*
X1123284Y350145D01*
X1124046Y349820D01*
X1124813Y349545D01*
X1125583Y349320D01*
X1126358Y349146D01*
X1127137Y349021D01*
X1127920Y348946D01*
X1128708Y348921D01*
X1130191Y343921D01*
X1124696Y341431D01*
X1121023Y351418D01*
X1121772Y350944D01*
D02*
G37*
G36*
X712832D02*
X714344Y350145D01*
X715106Y349820D01*
X715873Y349545D01*
X716643Y349320D01*
X717418Y349146D01*
X718197Y349021D01*
X718980Y348946D01*
X719768Y348921D01*
X721251Y343921D01*
X715755Y341431D01*
X712083Y351418D01*
X712832Y350944D01*
D02*
G37*
G36*
X1454746Y354570D02*
X1455357Y354026D01*
X1456016Y353547D01*
X1456724Y353131D01*
X1457480Y352779D01*
X1458285Y352492D01*
X1459139Y352268D01*
X1460041Y352108D01*
X1460992Y352012D01*
X1461991Y351980D01*
X1461323Y343980D01*
X1460332Y343952D01*
X1459379Y343870D01*
X1458463Y343731D01*
X1457586Y343538D01*
X1456746Y343289D01*
X1455944Y342986D01*
X1455181Y342627D01*
X1454455Y342212D01*
X1453767Y341743D01*
X1453117Y341218D01*
X1454184Y355177D01*
X1454746Y354570D01*
D02*
G37*
G36*
X1365008Y340276D02*
X1363870Y340968D01*
X1360714Y342609D01*
X1359749Y343010D01*
X1357947Y343593D01*
X1357111Y343775D01*
X1356318Y343885D01*
X1355569Y343921D01*
X1354332Y348921D01*
X1355205Y348971D01*
X1356049Y349120D01*
X1356864Y349368D01*
X1357651Y349716D01*
X1358408Y350164D01*
X1359136Y350711D01*
X1359835Y351357D01*
X1360506Y352103D01*
X1361147Y352948D01*
X1361759Y353893D01*
X1365008Y340276D01*
D02*
G37*
G36*
X1164348D02*
X1163210Y340968D01*
X1160054Y342609D01*
X1159089Y343010D01*
X1157287Y343593D01*
X1156451Y343775D01*
X1155658Y343885D01*
X1154909Y343921D01*
X1153672Y348921D01*
X1154545Y348971D01*
X1155389Y349120D01*
X1156204Y349368D01*
X1156991Y349716D01*
X1157748Y350164D01*
X1158476Y350711D01*
X1159175Y351357D01*
X1159846Y352103D01*
X1160487Y352948D01*
X1161099Y353893D01*
X1164348Y340276D01*
D02*
G37*
G36*
X755408D02*
X754270Y340968D01*
X751114Y342609D01*
X750149Y343010D01*
X748347Y343593D01*
X747511Y343775D01*
X746718Y343885D01*
X745969Y343921D01*
X744732Y348921D01*
X745605Y348971D01*
X746449Y349120D01*
X747264Y349368D01*
X748051Y349716D01*
X748808Y350164D01*
X749536Y350711D01*
X750235Y351357D01*
X750906Y352103D01*
X751547Y352948D01*
X752159Y353893D01*
X755408Y340276D01*
D02*
G37*
G36*
X517759Y347158D02*
X518059Y346781D01*
X518559Y346448D01*
X519259Y346159D01*
X520159Y345915D01*
X521259Y345715D01*
X522559Y345560D01*
X525759Y345382D01*
X527659Y345360D01*
Y335360D01*
X525759Y335338D01*
X521259Y335005D01*
X520159Y334805D01*
X519259Y334561D01*
X518559Y334272D01*
X518059Y333940D01*
X517759Y333562D01*
X517659Y333140D01*
Y347579D01*
X517759Y347158D01*
D02*
G37*
G36*
X1451703Y340184D02*
X1451044Y339734D01*
X1450454Y339221D01*
X1449934Y338647D01*
X1449483Y338010D01*
X1449101Y337312D01*
X1448789Y336551D01*
X1448546Y335728D01*
X1448373Y334844D01*
X1448269Y333897D01*
X1448234Y332888D01*
X1440234Y334973D01*
X1440212Y335960D01*
X1440040Y337837D01*
X1439889Y338728D01*
X1439695Y339586D01*
X1439458Y340413D01*
X1439177Y341207D01*
X1438854Y341970D01*
X1438487Y342700D01*
X1438077Y343399D01*
X1451703Y340184D01*
D02*
G37*
G36*
X912100Y332071D02*
X907100D01*
X907075Y333033D01*
X907000Y333894D01*
X906875Y334653D01*
X906701Y335311D01*
X906476Y335868D01*
X906201Y336323D01*
X905876Y336676D01*
X905501Y336928D01*
X905077Y337078D01*
X904602Y337127D01*
X914598Y337164D01*
X912100Y332071D01*
D02*
G37*
G36*
X1315878Y330801D02*
X1310878D01*
X1310853Y331769D01*
X1310778Y332634D01*
X1310653Y333396D01*
X1310478Y334054D01*
X1310253Y334609D01*
X1309978Y335060D01*
X1309653Y335408D01*
X1309278Y335652D01*
X1308853Y335793D01*
X1308378Y335831D01*
X1318372Y336112D01*
X1315878Y330801D01*
D02*
G37*
G36*
X1117873Y335927D02*
X1117449Y335766D01*
X1117075Y335503D01*
X1116750Y335138D01*
X1116476Y334670D01*
X1116252Y334101D01*
X1116077Y333429D01*
X1115952Y332655D01*
X1115878Y331779D01*
X1115853Y330801D01*
X1110853D01*
X1110828Y331763D01*
X1110753Y332624D01*
X1110628Y333382D01*
X1110453Y334039D01*
X1110228Y334593D01*
X1109953Y335045D01*
X1109628Y335395D01*
X1109253Y335642D01*
X1108828Y335788D01*
X1108353Y335831D01*
X1118347Y335986D01*
X1117873Y335927D01*
D02*
G37*
G36*
X707865Y330801D02*
X702865D01*
X702840Y331774D01*
X702765Y332642D01*
X702640Y333407D01*
X702465Y334066D01*
X702240Y334622D01*
X701965Y335073D01*
X701640Y335419D01*
X701265Y335661D01*
X700840Y335798D01*
X700365Y335831D01*
X710355Y336217D01*
X707865Y330801D01*
D02*
G37*
G36*
X490720Y333140D02*
X499659D01*
X499190Y325140D01*
X491190D01*
X490720Y333140D01*
X482720Y336360D01*
Y344360D01*
X490720Y347579D01*
Y333140D01*
D02*
G37*
G36*
X418713Y333118D02*
X418934Y332549D01*
X419303Y332048D01*
X419819Y331613D01*
X420483Y331245D01*
X421294Y330944D01*
X422253Y330710D01*
X423359Y330543D01*
X424613Y330443D01*
X426014Y330409D01*
Y322409D01*
X424613Y322376D01*
X423359Y322275D01*
X422253Y322108D01*
X421294Y321874D01*
X420483Y321573D01*
X419819Y321205D01*
X419303Y320770D01*
X418934Y320269D01*
X418713Y319700D01*
X418639Y319065D01*
Y333753D01*
X418713Y333118D01*
D02*
G37*
G36*
X368761Y318820D02*
X360731Y322820D01*
Y330820D01*
X368761Y334820D01*
Y318820D01*
D02*
G37*
G36*
X1040103Y341674D02*
X1046921D01*
X1046632Y341429D01*
X1046373Y341096D01*
X1046145Y340676D01*
X1045947Y340168D01*
X1045780Y339572D01*
X1045643Y338889D01*
X1045537Y338118D01*
X1045415Y336314D01*
X1045400Y335280D01*
X1037400Y317623D01*
X1037343Y319087D01*
X1037174Y320277D01*
X1036891Y321194D01*
X1036495Y321838D01*
X1035986Y322209D01*
X1035363Y322307D01*
X1034628Y322131D01*
X1033780Y321683D01*
X1032818Y320961D01*
X1031743Y319966D01*
Y331280D01*
X1032818Y332435D01*
X1033780Y333637D01*
X1034628Y334885D01*
X1035363Y336180D01*
X1035986Y337523D01*
X1036495Y338912D01*
X1036846Y340185D01*
X1036655Y340676D01*
X1036427Y341096D01*
X1036168Y341429D01*
X1035879Y341674D01*
X1037144D01*
X1037174Y341831D01*
X1037343Y343360D01*
X1037400Y344937D01*
X1040103Y341674D01*
D02*
G37*
G36*
X1242530Y341601D02*
X1252870D01*
X1252300Y340991D01*
X1251790Y340339D01*
X1251340Y339643D01*
X1250950Y338905D01*
X1250620Y338124D01*
X1250350Y337300D01*
X1250140Y336434D01*
X1249990Y335524D01*
X1249900Y334572D01*
X1249870Y333577D01*
X1249177D01*
X1249870Y332740D01*
X1241870Y315083D01*
X1241813Y316547D01*
X1241644Y317737D01*
X1241361Y318654D01*
X1240965Y319298D01*
X1240456Y319669D01*
X1239834Y319767D01*
X1239098Y319591D01*
X1238250Y319143D01*
X1237288Y318421D01*
X1236213Y317426D01*
Y328740D01*
X1237288Y329895D01*
X1238250Y331096D01*
X1239098Y332345D01*
X1239834Y333640D01*
X1240456Y334983D01*
X1240965Y336372D01*
X1241298Y337580D01*
X1241120Y338124D01*
X1240790Y338905D01*
X1240400Y339643D01*
X1239950Y340339D01*
X1239440Y340991D01*
X1238870Y341601D01*
X1241841D01*
X1241870Y342397D01*
X1242530Y341601D01*
D02*
G37*
G36*
X845326Y354309D02*
X845918Y353754D01*
X846560Y353264D01*
X847254Y352839D01*
X848000Y352479D01*
X848796Y352185D01*
X849644Y351956D01*
X850543Y351793D01*
X851493Y351695D01*
X852494Y351662D01*
X851544Y343662D01*
X850554Y343636D01*
X849600Y343556D01*
X848683Y343424D01*
X847801Y343238D01*
X846956Y343000D01*
X846147Y342708D01*
X845375Y342364D01*
X844638Y341966D01*
X843938Y341516D01*
X843637Y341287D01*
X843360Y340991D01*
X842850Y340339D01*
X842400Y339643D01*
X842010Y338905D01*
X841680Y338124D01*
X841410Y337300D01*
X841200Y336434D01*
X841050Y335524D01*
X840960Y334572D01*
X840930Y333577D01*
X839185D01*
X840930Y331470D01*
X832930Y313813D01*
X832873Y315277D01*
X832704Y316467D01*
X832421Y317384D01*
X832025Y318028D01*
X831516Y318399D01*
X830893Y318497D01*
X830158Y318321D01*
X829310Y317873D01*
X828348Y317151D01*
X827273Y316156D01*
Y327470D01*
X828348Y328625D01*
X829310Y329827D01*
X830158Y331075D01*
X830893Y332370D01*
X831516Y333713D01*
X832025Y335102D01*
X832421Y336538D01*
X832515Y337032D01*
X832450Y337300D01*
X832180Y338124D01*
X831850Y338905D01*
X831460Y339643D01*
X831010Y340339D01*
X830500Y340991D01*
X829930Y341601D01*
X843338D01*
X844785Y354930D01*
X845326Y354309D01*
D02*
G37*
G36*
X544800Y299279D02*
X544950Y297579D01*
X545200Y296080D01*
X545550Y294779D01*
X546000Y293680D01*
X546550Y292780D01*
X547200Y292080D01*
X547950Y291579D01*
X548800Y291280D01*
X549750Y291180D01*
X529750D01*
X530700Y291280D01*
X531550Y291579D01*
X532300Y292080D01*
X532950Y292780D01*
X533500Y293680D01*
X533950Y294779D01*
X534300Y296080D01*
X534550Y297579D01*
X534700Y299279D01*
X534750Y301180D01*
X544750D01*
X544800Y299279D01*
D02*
G37*
G36*
X499230Y297659D02*
X499350Y296299D01*
X499550Y295100D01*
X499830Y294060D01*
X500190Y293179D01*
X500630Y292460D01*
X501150Y291900D01*
X501750Y291500D01*
X502430Y291259D01*
X503190Y291180D01*
X487190D01*
X487950Y291259D01*
X488630Y291500D01*
X489230Y291900D01*
X489750Y292460D01*
X490190Y293179D01*
X490550Y294060D01*
X490830Y295100D01*
X491030Y296299D01*
X491150Y297659D01*
X491190Y299179D01*
X499190D01*
X499230Y297659D01*
D02*
G37*
G36*
X137160Y456565D02*
X81915D01*
Y312420D01*
X137160D01*
Y288290D01*
X46990D01*
Y312420D01*
X46995D01*
Y456565D01*
X46990D01*
Y490855D01*
X137160D01*
Y456565D01*
D02*
G37*
G36*
X912163Y288959D02*
X912353Y287974D01*
X912670Y286965D01*
X913113Y285932D01*
X913682Y284876D01*
X914378Y283796D01*
X915201Y282693D01*
X916150Y281565D01*
X918428Y279240D01*
X900932Y278848D01*
X902104Y280096D01*
X904078Y282490D01*
X904880Y283636D01*
X905558Y284749D01*
X906113Y285828D01*
X906545Y286873D01*
X906853Y287885D01*
X907038Y288863D01*
X907100Y289807D01*
X912100Y289921D01*
X912163Y288959D01*
D02*
G37*
G36*
X1115917Y287761D02*
X1116111Y286769D01*
X1116435Y285764D01*
X1116888Y284745D01*
X1117470Y283712D01*
X1118181Y282665D01*
X1119022Y281605D01*
X1119993Y280530D01*
X1121092Y279442D01*
X1122321Y278340D01*
X1104860Y277174D01*
X1105999Y278495D01*
X1107916Y281004D01*
X1108695Y282192D01*
X1109354Y283336D01*
X1109894Y284437D01*
X1110313Y285493D01*
X1110613Y286505D01*
X1110793Y287473D01*
X1110853Y288397D01*
X1115853Y288738D01*
X1115917Y287761D01*
D02*
G37*
G36*
X1315944Y287814D02*
X1316142Y286817D01*
X1316472Y285818D01*
X1316935Y284816D01*
X1317530Y283811D01*
X1318257Y282803D01*
X1319116Y281792D01*
X1320107Y280779D01*
X1321231Y279762D01*
X1322487Y278742D01*
X1305108Y276688D01*
X1306204Y278093D01*
X1308050Y280735D01*
X1308800Y281971D01*
X1309954Y284274D01*
X1310358Y285341D01*
X1310647Y286352D01*
X1310820Y287306D01*
X1310878Y288203D01*
X1315878Y288807D01*
X1315944Y287814D01*
D02*
G37*
G36*
X707932Y287829D02*
X708132Y286831D01*
X708465Y285835D01*
X708932Y284842D01*
X709533Y283851D01*
X710266Y282863D01*
X711134Y281877D01*
X712134Y280894D01*
X713268Y279913D01*
X714536Y278935D01*
X697215Y276436D01*
X698289Y277884D01*
X700831Y281853D01*
X701453Y283050D01*
X701961Y284184D01*
X702357Y285255D01*
X702639Y286264D01*
X702809Y287210D01*
X702865Y288092D01*
X707865Y288829D01*
X707932Y287829D01*
D02*
G37*
G36*
X1447062Y280011D02*
X1446535Y279465D01*
X1445697Y278477D01*
X1445385Y278034D01*
X1445145Y277626D01*
X1444977Y277253D01*
X1444881Y276914D01*
X1444857Y276610D01*
X1444905Y276340D01*
X1445025Y276104D01*
X1436002Y281296D01*
X1436226Y281324D01*
X1436520Y281443D01*
X1436885Y281653D01*
X1437320Y281953D01*
X1437825Y282345D01*
X1439046Y283401D01*
X1441405Y285667D01*
X1447062Y280011D01*
D02*
G37*
G36*
X839758Y279208D02*
X839249Y278688D01*
X837836Y277031D01*
X837639Y276721D01*
X837503Y276453D01*
X837430Y276227D01*
X837420Y276043D01*
X837471Y275901D01*
X829774Y281071D01*
X829897Y281092D01*
X830088Y281193D01*
X830348Y281373D01*
X830678Y281633D01*
X832079Y282890D01*
X834102Y284865D01*
X839758Y279208D01*
D02*
G37*
G36*
X478521Y275240D02*
X470521Y279210D01*
Y287210D01*
X478521Y291180D01*
Y275240D01*
D02*
G37*
G36*
X1044228Y283412D02*
X1043486Y282594D01*
X1042858Y281738D01*
X1042342Y280845D01*
X1041940Y279914D01*
X1041651Y278945D01*
X1041475Y277938D01*
X1041413Y276894D01*
X1041464Y275811D01*
X1041628Y274690D01*
X1041905Y273532D01*
X1026787Y282231D01*
X1028088Y282592D01*
X1030520Y283440D01*
X1031651Y283929D01*
X1033744Y285032D01*
X1034706Y285648D01*
X1035612Y286306D01*
X1036461Y287007D01*
X1037254Y287750D01*
X1044228Y283412D01*
D02*
G37*
G36*
X1248698Y282307D02*
X1247928Y281460D01*
X1247274Y280578D01*
X1246736Y279659D01*
X1246314Y278705D01*
X1246008Y277715D01*
X1245818Y276688D01*
X1245745Y275626D01*
X1245787Y274528D01*
X1245946Y273393D01*
X1246221Y272223D01*
X1231053Y280951D01*
X1232367Y281319D01*
X1234818Y282179D01*
X1235957Y282670D01*
X1238058Y283776D01*
X1239021Y284390D01*
X1239925Y285046D01*
X1240771Y285743D01*
X1241559Y286481D01*
X1248698Y282307D01*
D02*
G37*
G36*
X543070Y265240D02*
X533070D01*
X528070Y275271D01*
X548070D01*
X543070Y265240D01*
D02*
G37*
G36*
X1037728Y260251D02*
X1036920Y259287D01*
X1036208Y258300D01*
X1035590Y257292D01*
X1035068Y256261D01*
X1034640Y255208D01*
X1034308Y254134D01*
X1034070Y253037D01*
X1033928Y251918D01*
X1033880Y250777D01*
X1025880D01*
X1025833Y251918D01*
X1025690Y253037D01*
X1025453Y254134D01*
X1025120Y255208D01*
X1024693Y256261D01*
X1024170Y257292D01*
X1023553Y258300D01*
X1022840Y259287D01*
X1022033Y260251D01*
X1021130Y261193D01*
X1038630D01*
X1037728Y260251D01*
D02*
G37*
G36*
X1240745Y258125D02*
X1240233Y257584D01*
X1239782Y256962D01*
X1239390Y256259D01*
X1239059Y255473D01*
X1238788Y254606D01*
X1238578Y253658D01*
X1238427Y252628D01*
X1238337Y251516D01*
X1238307Y250323D01*
X1230307D01*
X1230276Y251501D01*
X1230185Y252597D01*
X1230032Y253612D01*
X1229818Y254547D01*
X1229544Y255399D01*
X1229208Y256171D01*
X1228811Y256862D01*
X1228353Y257472D01*
X1227834Y258000D01*
X1227254Y258447D01*
X1241317Y258584D01*
X1240745Y258125D01*
D02*
G37*
G36*
X834090Y258354D02*
X833473Y257688D01*
X832929Y256951D01*
X832457Y256144D01*
X832057Y255265D01*
X831731Y254316D01*
X831477Y253296D01*
X831295Y252205D01*
X831186Y251043D01*
X831150Y249810D01*
X823150D01*
X823114Y251043D01*
X823005Y252205D01*
X822823Y253296D01*
X822569Y254316D01*
X822243Y255265D01*
X821843Y256144D01*
X821371Y256951D01*
X820827Y257688D01*
X820210Y258354D01*
X819520Y258949D01*
X834780D01*
X834090Y258354D01*
D02*
G37*
G36*
X289560Y232410D02*
X251460D01*
Y294640D01*
X199390D01*
Y325120D01*
X289560D01*
Y232410D01*
D02*
G37*
G36*
X482201Y224870D02*
X477170Y227370D01*
Y232370D01*
X482201Y234870D01*
Y224870D01*
D02*
G37*
G36*
X418689Y226345D02*
X418840Y225920D01*
X419092Y225545D01*
X419444Y225220D01*
X419897Y224945D01*
X420450Y224720D01*
X421104Y224545D01*
X421858Y224420D01*
X422714Y224345D01*
X423670Y224320D01*
Y219320D01*
X422714Y219295D01*
X421858Y219220D01*
X421104Y219095D01*
X420450Y218920D01*
X419897Y218695D01*
X419444Y218420D01*
X419092Y218095D01*
X418840Y217720D01*
X418689Y217295D01*
X418639Y216820D01*
Y226820D01*
X418689Y226345D01*
D02*
G37*
G36*
X254130Y216501D02*
X249130Y218970D01*
Y223970D01*
X254130Y226440D01*
Y216501D01*
D02*
G37*
G36*
X396200Y196851D02*
X391200D01*
X388700Y201851D01*
X398700D01*
X396200Y196851D01*
D02*
G37*
G36*
X208139Y213520D02*
X208440Y212670D01*
X208942Y211920D01*
X209644Y211270D01*
X210547Y210720D01*
X211650Y210270D01*
X212954Y209920D01*
X214459Y209670D01*
X216164Y209520D01*
X218069Y209470D01*
Y199470D01*
X216164Y199420D01*
X214459Y199270D01*
X212954Y199020D01*
X211650Y198670D01*
X210547Y198220D01*
X209644Y197670D01*
X208942Y197020D01*
X208440Y196270D01*
X208139Y195420D01*
X208039Y194470D01*
Y214470D01*
X208139Y213520D01*
D02*
G37*
G36*
X288149Y192255D02*
X288389Y192090D01*
X288789Y191945D01*
X289349Y191819D01*
X290069Y191712D01*
X291989Y191557D01*
X296069Y191470D01*
Y183470D01*
X294549Y183460D01*
X289349Y183121D01*
X288789Y182995D01*
X288389Y182849D01*
X288149Y182684D01*
X288069Y182500D01*
Y192439D01*
X288149Y192255D01*
D02*
G37*
G36*
X208139Y179520D02*
X208440Y178670D01*
X208942Y177920D01*
X209644Y177270D01*
X210547Y176720D01*
X211650Y176270D01*
X212954Y175920D01*
X214459Y175670D01*
X216164Y175520D01*
X218069Y175470D01*
Y165470D01*
X216164Y165420D01*
X214459Y165270D01*
X212954Y165020D01*
X211650Y164670D01*
X210547Y164220D01*
X209644Y163670D01*
X208942Y163020D01*
X208440Y162270D01*
X208139Y161420D01*
X208039Y160470D01*
Y180470D01*
X208139Y179520D01*
D02*
G37*
G36*
X1045210Y27940D02*
X1008380D01*
X1008380Y162560D01*
X1045210D01*
Y27940D01*
D02*
G37*
G36*
X993140D02*
X953770D01*
X953770Y302260D01*
X993140D01*
Y27940D01*
D02*
G37*
G36*
X942340D02*
X895350D01*
X895350Y162560D01*
X942340D01*
Y27940D01*
D02*
G37*
G36*
X791210D02*
X751840D01*
X751840Y302260D01*
X791210D01*
Y27940D01*
D02*
G37*
G36*
X1451610Y26670D02*
X1414780D01*
X1414780Y161290D01*
X1451610D01*
Y26670D01*
D02*
G37*
G36*
X1397000D02*
X1357630D01*
X1357630Y300990D01*
X1397000D01*
Y26670D01*
D02*
G37*
G36*
X1348740D02*
X1301750D01*
X1301750Y161290D01*
X1348740D01*
Y26670D01*
D02*
G37*
G36*
X1250950D02*
X1214120D01*
X1214120Y161290D01*
X1250950D01*
Y26670D01*
D02*
G37*
G36*
X1196340D02*
X1156970D01*
X1156970Y300990D01*
X1196340D01*
Y26670D01*
D02*
G37*
G36*
X1146810D02*
X1101090D01*
X1101090Y161290D01*
X1146810D01*
Y26670D01*
D02*
G37*
G36*
X844550D02*
X807720D01*
X807720Y161290D01*
X844550D01*
Y26670D01*
D02*
G37*
G36*
X740410D02*
X693420D01*
X693420Y161290D01*
X740410D01*
Y26670D01*
D02*
G37*
D10*
X0Y0D02*
X1600000D01*
X0Y1350000D02*
X1600000D01*
Y0D02*
Y1350000D01*
X0Y0D02*
Y1350000D01*
D30*
X1080770Y1125220D02*
X1097390Y1108600D01*
Y1098550D02*
Y1108600D01*
X1078230Y1097390D02*
X1079390Y1098550D01*
X1078230Y1085850D02*
Y1097390D01*
Y1085850D02*
X1083310Y1080770D01*
X1140460D01*
X1141730Y1082040D01*
X1148080D01*
X1165860Y1099820D01*
Y1268730D01*
X1161824Y1272766D02*
X1165860Y1268730D01*
X1137379Y1272766D02*
X1161824D01*
X1132525Y1277620D02*
X1137379Y1272766D01*
X1122680Y1277620D02*
X1132525D01*
X1098550Y1301750D02*
X1122680Y1277620D01*
X1080770Y1301750D02*
X1098550D01*
X1108710Y1276350D02*
X1120140Y1264920D01*
X1080770Y1276350D02*
X1108710D01*
X1120140Y1264920D02*
X1138455D01*
X1139725Y1212850D02*
X1139870Y1212705D01*
X1113790Y1212850D02*
X1139725D01*
X1080770Y1225550D02*
X1101090D01*
X1113790Y1212850D01*
X1116330Y1228090D02*
X1137185D01*
X1139870Y1225405D01*
X1081070Y1250650D02*
X1093770D01*
X1080770Y1250950D02*
X1081070Y1250650D01*
X1093770D02*
X1116330Y1228090D01*
X1138455Y1264920D02*
X1139870Y1263505D01*
X996450Y1318560D02*
X1038560D01*
X1080770Y1276350D01*
X983450Y1305560D02*
X996450Y1318560D01*
X953770Y1325880D02*
X1056640D01*
X1080770Y1301750D01*
X933450Y1305560D02*
X953770Y1325880D01*
X1398270Y1266410D02*
X1484410D01*
X1500170Y1250650D01*
X1317370Y1263505D02*
X1366375D01*
X1296525D02*
X1317370D01*
X1398270Y1248410D02*
X1469390D01*
X1487170Y1230630D01*
X1285820Y1252800D02*
X1296525Y1263505D01*
X1285820Y1084655D02*
Y1252800D01*
Y1068650D02*
Y1084655D01*
X1041400Y1070610D02*
X1150620D01*
X1041400Y1070911D02*
X1069039Y1098550D01*
X1041400Y1070610D02*
Y1070911D01*
X951230Y1070610D02*
X1041400D01*
X1069039Y1098550D02*
X1079390D01*
X1139725D02*
X1139870Y1098405D01*
X1097390Y1098550D02*
X1139725D01*
X1339850Y1062905D02*
X1367875Y1090930D01*
X1339850Y1016000D02*
Y1062905D01*
X1367875Y1090930D02*
X1396900D01*
X1239520Y1007110D02*
X1330960D01*
X1339850Y1016000D01*
X1236980Y1009650D02*
X1239520Y1007110D01*
X1236980Y1009650D02*
Y1021080D01*
X1408220Y1079610D02*
X1410970D01*
X1396900Y1090930D02*
X1408220Y1079610D01*
X1487170Y1165860D02*
Y1230630D01*
X1410970Y1079610D02*
Y1089660D01*
X1487170Y1165860D01*
X1450481Y1106311D02*
X1470660D01*
Y1117600D01*
X1500170Y1147110D01*
Y1250650D01*
X1437640Y1079721D02*
Y1093470D01*
X1450481Y1106311D01*
X1437640Y1061720D02*
X1468598D01*
X1412240D02*
X1437640D01*
X1468598D02*
X1470970Y1059349D01*
X1384430Y1061720D02*
X1412240D01*
X1376110Y1070040D02*
X1376680Y1070610D01*
X1374724Y1068654D02*
X1384430Y1058949D01*
X1374724Y1068654D02*
X1374724Y1068654D01*
X1376680Y1069470D02*
X1384430Y1061720D01*
X1376680Y1069470D02*
Y1070610D01*
X1286510Y1019810D02*
X1314450D01*
X1316990Y1098025D02*
X1317370Y1098405D01*
X1316990Y1054100D02*
Y1098025D01*
X1286510Y1037810D02*
X1300700D01*
X1316990Y1054100D01*
X1270000Y1019810D02*
X1286510D01*
X1263650Y1026160D02*
X1270000Y1019810D01*
X1263650Y1026160D02*
Y1046480D01*
X1285820Y1068650D01*
X1199930Y1039080D02*
X1236980D01*
X1184220Y1054790D02*
X1199930Y1039080D01*
X1184220Y1054790D02*
Y1084655D01*
X1200150Y1021080D02*
X1236980D01*
X1150620Y1070610D02*
X1200150Y1021080D01*
X1470970Y900684D02*
Y924250D01*
X1457320Y901634D02*
X1458270Y900684D01*
X1457320Y901634D02*
Y908989D01*
X1453180Y913130D02*
X1457320Y908989D01*
X1259840Y913130D02*
X1453180D01*
X1125220Y1047750D02*
X1259840Y913130D01*
X1458270Y886770D02*
Y900684D01*
X1141730Y1061720D02*
X1254760Y948690D01*
X942340Y1061720D02*
X1141730D01*
X1254760Y948690D02*
X1362837D01*
X1132840Y1054100D02*
X1250950Y935990D01*
X1362837D01*
X933450Y1054100D02*
X1132840D01*
X876300Y1047750D02*
X1125220D01*
X874890Y980320D02*
X929520D01*
X874890Y990480D02*
X909147D01*
X795020Y853220D02*
X825489D01*
X879290Y769308D02*
Y852500D01*
X1436947Y847090D02*
X1472150D01*
X1398270Y1225550D02*
Y1248410D01*
X1395730Y1223010D02*
X1398270Y1225550D01*
X1384520Y1223010D02*
X1395730D01*
X1398050Y1266190D02*
X1398270Y1266410D01*
X1369060Y1266190D02*
X1398050D01*
X1366375Y1263505D02*
X1369060Y1266190D01*
Y1248190D02*
X1398050D01*
X1398270Y1248410D01*
X1317370Y1250805D02*
X1366445D01*
X1369060Y1248190D01*
X1352550Y1223010D02*
X1366520D01*
X1337455Y1238105D02*
X1352550Y1223010D01*
X1317370Y1238105D02*
X1337455D01*
X1409841Y1165940D02*
X1414991Y1171090D01*
X1416341D01*
X1428891Y1183640D02*
X1457960D01*
X1409841Y1164590D02*
Y1165940D01*
X1416341Y1171090D02*
X1428891Y1183640D01*
X1457960D02*
X1466850Y1192530D01*
Y1223010D01*
X1457960Y1231900D02*
X1466850Y1223010D01*
X1431290Y1231900D02*
X1457960D01*
X1397000Y1197610D02*
X1431290Y1231900D01*
X1384410Y1197610D02*
X1397000D01*
X1381760Y1164590D02*
X1426030Y1208860D01*
X1445260D01*
X1363839Y1164590D02*
X1381760D01*
X1362910Y1165519D02*
X1363839Y1164590D01*
X1362910Y1165519D02*
Y1194110D01*
X1366410Y1197610D01*
X1366520Y1197720D02*
Y1223010D01*
X1366410Y1197610D02*
X1366520Y1197720D01*
X1376680Y1113610D02*
X1417140D01*
X1445260Y1141730D02*
Y1165860D01*
X1417140Y1113610D02*
X1445260Y1141730D01*
X1374724Y1068654D02*
X1376110Y1070040D01*
X1470970Y1034796D02*
Y1059349D01*
Y971240D02*
Y1034796D01*
Y971240D02*
X1482090Y960120D01*
Y901700D02*
Y960120D01*
Y901700D02*
X1494790Y889000D01*
X1582420D01*
X1595120Y876300D01*
Y770890D02*
Y876300D01*
X1586230Y762000D02*
X1595120Y770890D01*
X1574800Y882650D02*
X1590040Y867410D01*
Y842010D02*
Y867410D01*
X1586230Y838200D02*
X1590040Y842010D01*
X1568450Y762000D02*
X1586230D01*
X1455420Y787400D02*
X1568450D01*
X1408715Y834105D02*
X1455420Y787400D01*
X1408715Y834105D02*
Y873862D01*
X1432870Y898017D01*
Y900684D01*
X1419860Y839470D02*
X1446530Y812800D01*
X1568450D01*
X1428750Y855287D02*
Y872490D01*
Y855287D02*
X1436947Y847090D01*
X1419860Y839470D02*
Y872307D01*
X1445570Y898017D02*
Y900684D01*
X1419860Y872307D02*
X1445570Y898017D01*
X1435255Y878995D02*
X1450495D01*
X1428750Y872490D02*
X1435255Y878995D01*
X1450495D02*
X1458270Y886770D01*
X1568450Y838200D02*
X1586230D01*
X1517650Y882650D02*
X1574800D01*
X1501140Y866140D02*
X1517650Y882650D01*
X1473200Y866140D02*
X1501140D01*
X1507270Y848140D02*
X1522730Y863600D01*
X1568450D01*
X1473200Y848140D02*
X1507270D01*
X1472150Y847090D02*
X1473200Y848140D01*
X1447580Y866140D02*
X1473200D01*
X1446530Y865090D02*
X1447580Y866140D01*
X1470970Y868370D02*
Y900684D01*
Y868370D02*
X1473200Y866140D01*
X1139870Y1161905D02*
X1140440Y1162475D01*
X858375Y1161905D02*
X1139870D01*
Y1174605D02*
X1140440Y1175175D01*
X803765Y1174605D02*
X1139870D01*
X914400Y1107440D02*
X951230Y1070610D01*
X873980Y1050070D02*
X875775Y1048275D01*
X793005Y1044465D02*
X793890Y1043580D01*
X909320Y1094740D02*
X942340Y1061720D01*
X837010Y1094740D02*
X909320D01*
X839985Y1087120D02*
X900430D01*
X933450Y1054100D01*
X831890Y1089620D02*
X837010Y1094740D01*
X837390Y1084526D02*
X839985Y1087120D01*
X839470Y1107440D02*
X914400D01*
X819150Y1087120D02*
X839470Y1107440D01*
X819150Y1051840D02*
Y1087120D01*
X831890Y1018400D02*
Y1089620D01*
X837390Y1026671D02*
Y1084526D01*
X812660Y1045350D02*
X819150Y1051840D01*
X793890Y1045350D02*
X812660D01*
X851890Y1018400D02*
Y1065536D01*
X867222Y1066611D02*
X876112D01*
X856890Y1018400D02*
Y1056280D01*
X876112Y1066611D02*
X876300Y1066800D01*
X856890Y1056280D02*
X867222Y1066611D01*
X876300Y1047750D02*
Y1048800D01*
Y1032810D02*
Y1047750D01*
X869950Y1050070D02*
X873980D01*
X861890Y1018400D02*
X876300Y1032810D01*
X821390Y909020D02*
Y929129D01*
X795020Y882650D02*
X821390Y909020D01*
Y929129D02*
X821890Y929630D01*
X894080Y1008380D02*
Y1038860D01*
X840881Y750429D02*
X855980Y735330D01*
X900430D02*
X923290Y758190D01*
X855980Y735330D02*
X900430D01*
X707390Y891540D02*
X759460D01*
X695960Y761009D02*
Y880110D01*
X707390Y891540D01*
X759460D02*
X765810Y885190D01*
Y871330D02*
Y885190D01*
X836890Y1026171D02*
X837390Y1026671D01*
X836890Y1018400D02*
Y1026171D01*
X793890Y1063350D02*
X796290Y1065750D01*
Y1120140D01*
X795020Y1196340D02*
X844550D01*
X756920Y1158240D02*
X795020Y1196340D01*
X844550Y1148080D02*
X858375Y1161905D01*
X767080Y1137920D02*
X803765Y1174605D01*
X767080Y1000760D02*
Y1137920D01*
X724080Y819150D02*
Y868500D01*
X973870Y833340D02*
Y890270D01*
Y833340D02*
X1018540Y788670D01*
X840881Y750429D02*
Y819150D01*
X923290Y758190D02*
Y798830D01*
X911860Y810260D02*
X923290Y798830D01*
X911860Y810260D02*
Y852170D01*
X928149Y870171D02*
X955040Y843280D01*
Y781563D02*
X970790Y765813D01*
X955040Y781563D02*
Y843280D01*
X875790Y765807D02*
X879290Y769308D01*
X795020Y871220D02*
Y882650D01*
X821890Y929630D02*
Y937400D01*
X756920Y1004570D02*
Y1158240D01*
Y1004570D02*
X771090Y990400D01*
X793890D01*
X767080Y1000760D02*
X772440Y995400D01*
X793890D01*
X777240Y1001571D02*
Y1059180D01*
Y1001571D02*
X778411Y1000400D01*
X793890D01*
X811890D01*
X777240Y1059180D02*
X781410Y1063350D01*
X793890D01*
Y1005400D02*
Y1043580D01*
X991870Y985520D02*
X1046480D01*
X1060450Y971550D01*
X1019810Y962660D02*
X1027430Y955040D01*
X991870Y962660D02*
X1019810D01*
X874890Y950400D02*
X898720D01*
X958850Y890270D01*
X973870D01*
X981920Y902970D02*
X991870Y893020D01*
X960120Y902970D02*
X981920D01*
X907690Y955400D02*
X960120Y902970D01*
X991870Y890270D02*
Y893020D01*
X874890Y955400D02*
X907690D01*
X961390Y915670D02*
X974090D01*
X916660Y960400D02*
X961390Y915670D01*
X874890Y960400D02*
X916660D01*
X952500Y939800D02*
X974090D01*
X926900Y965400D02*
X952500Y939800D01*
X874890Y965400D02*
X926900D01*
X953770Y962660D02*
X973870D01*
X946030Y970400D02*
X953770Y962660D01*
X874890Y970400D02*
X946030D01*
X947460Y975400D02*
X957580Y985520D01*
X973870D01*
X874890Y975400D02*
X947460D01*
X786130Y759460D02*
X797339D01*
X750570D02*
X786130D01*
X724080Y785950D02*
X750570Y759460D01*
X724080Y785950D02*
Y819150D01*
X822960Y895350D02*
X826890Y899280D01*
X822960Y871441D02*
Y895350D01*
X826890Y899280D02*
Y937400D01*
X767080Y819150D02*
X794879D01*
X795020Y819291D01*
Y853220D01*
X840881Y820500D02*
X850900Y830519D01*
X840881Y819150D02*
Y820500D01*
X850900Y830519D02*
Y853220D01*
Y871220D02*
X854356Y867764D01*
X859436D02*
X871574Y855626D01*
X876164D02*
X879290Y852500D01*
X854356Y867764D02*
X859436D01*
X871574Y855626D02*
X876164D01*
X880440Y870500D02*
Y879562D01*
X841890Y918111D02*
Y937400D01*
Y918111D02*
X880440Y879562D01*
X850900Y871220D02*
Y883920D01*
X836890Y897930D02*
X850900Y883920D01*
X836890Y897930D02*
Y937400D01*
X911860Y870171D02*
X928149D01*
X879290Y852500D02*
X880440D01*
X910156Y870500D02*
X910485Y870171D01*
X880440Y870500D02*
X910156D01*
X880440Y852500D02*
X880660Y852720D01*
X823148Y853628D02*
X832038D01*
X835660Y857250D02*
Y880110D01*
X822960Y853440D02*
X823148Y853628D01*
X832038D02*
X835660Y857250D01*
X831890Y883880D02*
X835660Y880110D01*
X831890Y883880D02*
Y937400D01*
X749300Y722630D02*
X786130Y759460D01*
X655320Y722630D02*
X749300D01*
X645160Y732790D02*
Y761009D01*
Y732790D02*
X655320Y722630D01*
X891100Y1005400D02*
X894080Y1008380D01*
X151130Y850900D02*
X543560D01*
X113030Y761009D02*
Y812800D01*
X151130Y850900D01*
X652560Y959900D02*
X785183D01*
X543560Y850900D02*
X652560Y959900D01*
X785183D02*
X785492Y960208D01*
X793699D01*
X793890Y960400D01*
X670420Y954900D02*
X785620D01*
X554990Y839470D02*
X670420Y954900D01*
X321310Y839470D02*
X554990D01*
X683700Y950400D02*
X793890D01*
X557530Y824230D02*
X683700Y950400D01*
X483870Y824230D02*
X557530D01*
X294640Y759739D02*
Y812800D01*
X321310Y839470D01*
X785620Y954900D02*
X786120Y955400D01*
X793890D01*
X466090Y806450D02*
X483870Y824230D01*
X466090Y762279D02*
Y806450D01*
X811890Y1000400D02*
X834390Y977900D01*
X826890Y937400D02*
Y970400D01*
X834390Y977900D02*
X856890Y955400D01*
X874890D01*
X826890Y970400D02*
X834390Y977900D01*
X856890Y1000400D01*
Y1018400D01*
X521770Y965400D02*
X793890D01*
X556140Y970400D02*
X793890D01*
X584160Y975400D02*
X793890D01*
X614720Y980400D02*
X793890D01*
X647820Y985400D02*
X793890D01*
X874890Y1005400D02*
X891100D01*
X971220Y895350D02*
X972490Y896620D01*
X874890Y985400D02*
X918436D01*
X874890Y995400D02*
X896340D01*
D31*
X645160Y635991D02*
D03*
Y761009D02*
D03*
X695960Y635991D02*
D03*
Y761009D02*
D03*
X516890Y762279D02*
D03*
Y637261D02*
D03*
X466090Y762279D02*
D03*
Y637261D02*
D03*
X294640Y634721D02*
D03*
Y759739D02*
D03*
X345440Y634721D02*
D03*
Y759739D02*
D03*
X113030Y635991D02*
D03*
Y761009D02*
D03*
X163830Y635991D02*
D03*
Y761009D02*
D03*
D32*
X77470Y241300D02*
D03*
X614680Y242570D02*
D03*
X40000Y1310000D02*
D03*
X1560000D02*
D03*
Y40000D02*
D03*
X40000D02*
D03*
D33*
X976160Y45190D02*
D03*
X1026160D02*
D03*
X926160D02*
D03*
X1130465Y43920D02*
D03*
X1230465D02*
D03*
X1180465D02*
D03*
X1331125D02*
D03*
X1431125D02*
D03*
X1381125D02*
D03*
X1342288Y657858D02*
D03*
X118110Y474180D02*
D03*
Y424180D02*
D03*
X723430Y43920D02*
D03*
X823430D02*
D03*
X773430D02*
D03*
D34*
X940435Y697230D02*
D03*
Y671830D02*
D03*
Y646430D02*
D03*
Y621030D02*
D03*
D35*
X1114185Y146849D02*
D03*
X1234185D02*
D03*
Y268850D02*
D03*
X1114185D02*
D03*
X1174185Y288850D02*
D03*
X1374845D02*
D03*
X1314845Y268850D02*
D03*
X1434845D02*
D03*
Y146849D02*
D03*
X1314845D02*
D03*
X969880Y290120D02*
D03*
X909880Y270120D02*
D03*
X1029880D02*
D03*
Y148119D02*
D03*
X909880D02*
D03*
X767150Y288850D02*
D03*
X707150Y268850D02*
D03*
X827150D02*
D03*
Y146849D02*
D03*
X707150D02*
D03*
D36*
X105410Y892810D02*
D03*
Y918210D02*
D03*
Y943610D02*
D03*
Y969010D02*
D03*
Y994410D02*
D03*
Y1019810D02*
D03*
Y1045210D02*
D03*
Y1070610D02*
D03*
Y1096010D02*
D03*
Y1121410D02*
D03*
Y1146810D02*
D03*
Y1172210D02*
D03*
Y1197610D02*
D03*
Y1223010D02*
D03*
X1245870Y348742D02*
D03*
X1169670D02*
D03*
X1446530D02*
D03*
X1370330D02*
D03*
X1568450Y863600D02*
D03*
Y838200D02*
D03*
Y812800D02*
D03*
Y787400D02*
D03*
Y762000D02*
D03*
X933450Y1305560D02*
D03*
X958451D02*
D03*
X983450D02*
D03*
X1008451D02*
D03*
X1080770Y1327150D02*
D03*
Y1301750D02*
D03*
Y1276350D02*
D03*
Y1250950D02*
D03*
Y1225550D02*
D03*
Y1200150D02*
D03*
X1041400Y350012D02*
D03*
X965200D02*
D03*
X836930Y348742D02*
D03*
X760730D02*
D03*
D37*
X1112520Y344170D02*
D03*
Y369570D02*
D03*
Y394970D02*
D03*
X1311910Y344170D02*
D03*
Y369570D02*
D03*
Y394970D02*
D03*
X909320Y345440D02*
D03*
Y370840D02*
D03*
Y396240D02*
D03*
X703580Y344170D02*
D03*
Y369570D02*
D03*
Y394970D02*
D03*
D38*
X1249680Y502920D02*
D03*
X1122680D02*
D03*
X1249680Y455930D02*
D03*
X1122680D02*
D03*
X1449070Y502920D02*
D03*
X1322070D02*
D03*
X1449070Y455930D02*
D03*
X1322070D02*
D03*
X1043940Y504190D02*
D03*
X916940D02*
D03*
X1043940Y457200D02*
D03*
X916940D02*
D03*
X839470Y502920D02*
D03*
X712470D02*
D03*
X839470Y455930D02*
D03*
X712470D02*
D03*
D39*
X1173480Y411480D02*
D03*
Y386080D02*
D03*
X1249680Y411480D02*
D03*
Y386080D02*
D03*
X1372870Y411480D02*
D03*
Y386080D02*
D03*
X1449070Y411480D02*
D03*
Y386080D02*
D03*
X966470Y412750D02*
D03*
Y387350D02*
D03*
X1042670Y412750D02*
D03*
Y387350D02*
D03*
X763270Y411480D02*
D03*
Y386080D02*
D03*
X839470Y411480D02*
D03*
Y386080D02*
D03*
D40*
X1061720Y921570D02*
D03*
Y934570D02*
D03*
Y960570D02*
D03*
D41*
Y947570D02*
D03*
D42*
X1416050Y657860D02*
D03*
D43*
X900430Y621030D02*
D03*
Y735330D02*
D03*
X697230Y1115060D02*
D03*
X695960Y880110D02*
D03*
X739140Y1117600D02*
D03*
X704850Y551180D02*
D03*
X627380D02*
D03*
X796290Y1120140D02*
D03*
X844550Y1196340D02*
D03*
Y1148080D02*
D03*
X724080Y868500D02*
D03*
D44*
X1235710Y1208340D02*
D03*
X1235711Y1171640D02*
D03*
X1254060D02*
D03*
Y1189990D02*
D03*
X1217360Y1171640D02*
D03*
Y1189990D02*
D03*
Y1208340D02*
D03*
X1254060D02*
D03*
X1235710Y1189990D02*
D03*
D45*
X1139870Y1263505D02*
D03*
Y1250805D02*
D03*
Y1238105D02*
D03*
Y1225405D02*
D03*
Y1212705D02*
D03*
Y1200005D02*
D03*
Y1187305D02*
D03*
Y1174605D02*
D03*
Y1161905D02*
D03*
Y1149205D02*
D03*
Y1136505D02*
D03*
Y1123805D02*
D03*
Y1111105D02*
D03*
Y1098405D02*
D03*
X1317370D02*
D03*
Y1123805D02*
D03*
Y1136505D02*
D03*
Y1149205D02*
D03*
Y1161905D02*
D03*
Y1174605D02*
D03*
Y1187305D02*
D03*
Y1200005D02*
D03*
Y1212705D02*
D03*
Y1225405D02*
D03*
Y1238105D02*
D03*
Y1250805D02*
D03*
Y1263505D02*
D03*
Y1111105D02*
D03*
D46*
X1171520Y1084655D02*
D03*
X1184220D02*
D03*
X1196920D02*
D03*
X1209620D02*
D03*
X1222320D02*
D03*
X1235020D02*
D03*
X1247720D02*
D03*
X1260420D02*
D03*
X1273120D02*
D03*
X1285820D02*
D03*
D47*
X1470660Y1106311D02*
D03*
Y1060309D02*
D03*
D48*
X1470970Y900684D02*
D03*
X1458270D02*
D03*
X1445570D02*
D03*
X1432870D02*
D03*
X1420170D02*
D03*
X1407470D02*
D03*
X1394770D02*
D03*
X1382070D02*
D03*
Y1034796D02*
D03*
X1394770D02*
D03*
X1407470D02*
D03*
X1420170D02*
D03*
X1432870D02*
D03*
X1445570D02*
D03*
X1458270D02*
D03*
X1470970D02*
D03*
D49*
X1362837Y923290D02*
D03*
Y935990D02*
D03*
Y948690D02*
D03*
Y961390D02*
D03*
Y974090D02*
D03*
Y986790D02*
D03*
Y999490D02*
D03*
Y1012190D02*
D03*
D50*
X1038860Y859790D02*
D03*
X1018540Y850900D02*
D03*
Y868680D02*
D03*
D51*
X840881Y819150D02*
D03*
X794879D02*
D03*
X1363839Y1164590D02*
D03*
X1409841D02*
D03*
D52*
X994410Y867520D02*
D03*
Y849520D02*
D03*
X880440Y870500D02*
D03*
Y852500D02*
D03*
X795020Y853220D02*
D03*
Y871220D02*
D03*
X850900D02*
D03*
Y853220D02*
D03*
X911860Y870171D02*
D03*
Y852170D02*
D03*
X765810Y871330D02*
D03*
Y853330D02*
D03*
X822960Y871441D02*
D03*
Y853440D02*
D03*
X567690Y456150D02*
D03*
Y438150D02*
D03*
X1398270Y1248410D02*
D03*
Y1266410D02*
D03*
X1286510Y1019810D02*
D03*
Y1037810D02*
D03*
X1369060Y1248190D02*
D03*
Y1266190D02*
D03*
X1236980Y1021080D02*
D03*
Y1039080D02*
D03*
X1437640Y1061720D02*
D03*
Y1079721D02*
D03*
X1473200Y848140D02*
D03*
Y866140D02*
D03*
X1446530Y847090D02*
D03*
Y865090D02*
D03*
X1410970Y1079610D02*
D03*
Y1061610D02*
D03*
X793890Y1045350D02*
D03*
Y1063350D02*
D03*
X876300Y1048800D02*
D03*
Y1066800D02*
D03*
D53*
X767080Y819150D02*
D03*
X724080D02*
D03*
X495390Y229870D02*
D03*
X538390D02*
D03*
D54*
X991870Y890270D02*
D03*
X973870D02*
D03*
X991870Y962660D02*
D03*
X973870D02*
D03*
X495190Y340360D02*
D03*
X513190D02*
D03*
X302260Y288290D02*
D03*
X284259D02*
D03*
X797339Y637540D02*
D03*
X815340D02*
D03*
X991870Y985520D02*
D03*
X973870D02*
D03*
X992090Y939800D02*
D03*
X974090D02*
D03*
X992090Y915670D02*
D03*
X974090D02*
D03*
X1097390Y1098550D02*
D03*
X1079390D02*
D03*
X1366410Y1197610D02*
D03*
X1384410D02*
D03*
X1384520Y1223010D02*
D03*
X1366520D02*
D03*
X815340Y759460D02*
D03*
X797339D02*
D03*
X815340Y666750D02*
D03*
X797340D02*
D03*
X815340Y698500D02*
D03*
X797339D02*
D03*
X815450Y727710D02*
D03*
X797450D02*
D03*
D55*
X537750Y283210D02*
D03*
X493490D02*
D03*
D56*
X970790Y765813D02*
D03*
X875790Y765807D02*
D03*
D57*
X211963Y303430D02*
D03*
Y354430D02*
D03*
X123317D02*
D03*
Y303430D02*
D03*
D58*
X524510Y423545D02*
D03*
Y455295D02*
D03*
D59*
X265430Y308070D02*
D03*
Y352330D02*
D03*
D60*
X1445260Y1208860D02*
D03*
Y1165860D02*
D03*
X1376680Y1070610D02*
D03*
Y1113610D02*
D03*
D61*
X271100Y204470D02*
D03*
Y170470D02*
D03*
Y187470D02*
D03*
Y221470D02*
D03*
Y238470D02*
D03*
D62*
X165100Y204470D02*
D03*
D63*
X393700Y221820D02*
D03*
D64*
Y326820D02*
D03*
D65*
X434300Y406690D02*
D03*
X480100D02*
D03*
X457200D02*
D03*
D66*
Y474690D02*
D03*
D67*
X874890Y950400D02*
D03*
Y955400D02*
D03*
Y960400D02*
D03*
Y965400D02*
D03*
Y970400D02*
D03*
Y975400D02*
D03*
Y980400D02*
D03*
Y985400D02*
D03*
Y990400D02*
D03*
Y995400D02*
D03*
Y1000400D02*
D03*
Y1005400D02*
D03*
X793890D02*
D03*
Y1000400D02*
D03*
Y995400D02*
D03*
Y990400D02*
D03*
Y985400D02*
D03*
Y980400D02*
D03*
Y975400D02*
D03*
Y970400D02*
D03*
Y965400D02*
D03*
Y960400D02*
D03*
Y955400D02*
D03*
Y950400D02*
D03*
D68*
X861890Y1018400D02*
D03*
X856890D02*
D03*
X851890D02*
D03*
X846890D02*
D03*
X841890D02*
D03*
X836890D02*
D03*
X831890D02*
D03*
X826890D02*
D03*
X821890D02*
D03*
X816890D02*
D03*
X811890D02*
D03*
X806890D02*
D03*
Y937400D02*
D03*
X811890D02*
D03*
X816890D02*
D03*
X821890D02*
D03*
X826890D02*
D03*
X831890D02*
D03*
X836890D02*
D03*
X841890D02*
D03*
X846890D02*
D03*
X851890D02*
D03*
X856890D02*
D03*
X861890D02*
D03*
D69*
X1394460Y615950D02*
Y760730D01*
X1118870Y1036320D02*
X1394460Y760730D01*
X937260Y1036320D02*
X1118870D01*
X1383030Y600710D02*
Y749300D01*
X1107440Y1024890D02*
X1383030Y749300D01*
X943557Y1024890D02*
X1107440D01*
X1371600Y614680D02*
Y737870D01*
X947765Y1014730D02*
X1094740D01*
X1371600Y737870D01*
X1360170Y631190D02*
Y726440D01*
X952500Y1003300D02*
X1083310D01*
X1360170Y726440D01*
X105410Y1121410D02*
X172720D01*
X171670D02*
X438150D01*
X105410Y1146810D02*
X172720D01*
X172041D02*
X448310D01*
X815395Y698555D02*
X816085Y697865D01*
X815395Y698555D02*
Y774645D01*
X567690Y456150D02*
X581880D01*
X525365D02*
X567690D01*
X1229360Y828040D02*
X1240790D01*
X778510Y652780D02*
X802850D01*
X581880Y456150D02*
X778510Y652780D01*
X172391Y1172210D02*
X461010D01*
X105410D02*
X171450D01*
X1018540Y718820D02*
Y788670D01*
X996950Y697230D02*
X1018540Y718820D01*
X807720Y782320D02*
X815395Y774645D01*
X764540Y782320D02*
X807720D01*
X746760Y800100D02*
X764540Y782320D01*
X746760Y800100D02*
Y837030D01*
X763060Y853330D02*
X765810D01*
X746760Y837030D02*
X763060Y853330D01*
X768560D02*
X784450Y869220D01*
X765810Y853330D02*
X768560D01*
X784450Y869220D02*
X793020D01*
X795020Y871220D01*
X940435Y697230D02*
X996950D01*
X113030Y644991D02*
X179240Y711200D01*
X780940D02*
X797450Y727710D01*
X179240Y711200D02*
X780940D01*
X802850Y652780D02*
X815340Y640290D01*
X175215Y1070610D02*
X416560D01*
X358300Y565340D02*
X448950Y474690D01*
X50800Y650240D02*
X135700Y565340D01*
X448950Y474690D02*
X457200D01*
X135700Y565340D02*
X358300D01*
X50800Y650240D02*
Y990600D01*
X105410Y1045210D01*
X82550Y1068070D02*
Y1215390D01*
Y1068070D02*
X105410Y1045210D01*
X82550Y1215390D02*
X87910Y1220750D01*
X103150D02*
X105410Y1223010D01*
X87910Y1220750D02*
X103150D01*
X1240790Y828040D02*
X1342288Y726542D01*
Y657858D02*
Y726542D01*
X105410Y1096010D02*
X430530D01*
X105410Y1070610D02*
X173990D01*
X113030Y635991D02*
Y644991D01*
X797339Y695750D02*
Y698500D01*
X795340Y693750D02*
X797339Y695750D01*
X788449Y689610D02*
X792590Y693750D01*
X795340D01*
X340530Y689610D02*
X788449D01*
X294640Y643721D02*
X340530Y689610D01*
X294640Y634721D02*
Y643721D01*
X939800Y697865D02*
X940435Y697230D01*
X816085Y697865D02*
X939800D01*
X815340Y640290D02*
Y666750D01*
Y637540D02*
Y640290D01*
X466090Y643890D02*
X495300Y673100D01*
X797340Y666750D02*
Y669500D01*
X495300Y673100D02*
X793740D01*
X797340Y669500D01*
X466090Y637261D02*
Y643890D01*
X886460Y671830D02*
X940435D01*
X820420Y605790D02*
X886460Y671830D01*
X798830Y608719D02*
Y636049D01*
Y608719D02*
X801759Y605790D01*
X820420D01*
X797339Y637540D02*
X798830Y636049D01*
X815340Y698500D02*
X815395Y698555D01*
X815340Y666750D02*
Y698500D01*
X1449070Y502920D02*
Y561340D01*
X1394460Y615950D02*
X1449070Y561340D01*
X1334770Y552450D02*
X1383030Y600710D01*
X1322070Y565150D02*
X1371600Y614680D01*
X1309370Y580390D02*
X1360170Y631190D01*
X1043940Y552450D02*
X1056640Y565150D01*
X1322070D01*
X1249680Y505180D02*
Y541020D01*
X1261110Y552450D02*
X1334770D01*
X1249680Y541020D02*
X1261110Y552450D01*
X1247420Y505180D02*
X1249680Y502920D01*
X1043940Y504190D02*
Y552450D01*
X877570Y580390D02*
X1309370D01*
X839470Y542290D02*
X877570Y580390D01*
X839470Y502920D02*
Y542290D01*
X891406Y370974D02*
X909186D01*
X882650Y447040D02*
X892810Y457200D01*
X882650Y379730D02*
X891406Y370974D01*
X882650Y379730D02*
Y447040D01*
X909186Y370974D02*
X909320Y370840D01*
X892810Y457200D02*
X916940D01*
X1017270Y394970D02*
X1023620Y388620D01*
X1017270Y394970D02*
Y448310D01*
X1026160Y457200D01*
X1023620Y388620D02*
X1041400D01*
X1026160Y457200D02*
X1043940D01*
X678180Y381000D02*
X688206Y370974D01*
X702176D01*
X703580Y369570D01*
X763270Y411480D02*
Y435610D01*
X712470Y486410D02*
X763270Y435610D01*
X712470Y486410D02*
Y502920D01*
X825500Y386080D02*
X839470D01*
X820420Y391160D02*
X825500Y386080D01*
X820420Y391160D02*
Y449580D01*
X838446Y454906D02*
X839470Y455930D01*
X825746Y454906D02*
X838446D01*
X820420Y449580D02*
X825746Y454906D01*
X1173480Y411480D02*
Y435610D01*
X1122680Y486410D02*
X1173480Y435610D01*
X1122680Y486410D02*
Y502920D01*
X1087120Y448310D02*
X1094740Y455930D01*
X1087120Y379730D02*
Y448310D01*
Y379730D02*
X1096511Y370339D01*
X1094740Y455930D02*
X1122680D01*
X1096511Y370339D02*
X1111751D01*
X1112520Y369570D01*
X703580Y344170D02*
X705831Y346421D01*
X758409D01*
X760730Y348742D01*
X678180Y381000D02*
Y441960D01*
X692150Y455930D01*
X712470D01*
X1041400Y388620D02*
X1042670Y387350D01*
X916940Y487680D02*
Y504190D01*
X966470Y412750D02*
Y438150D01*
X916940Y487680D02*
X966470Y438150D01*
X911571Y347691D02*
X962879D01*
X909320Y345440D02*
X911571Y347691D01*
X962879D02*
X965200Y350012D01*
X120650Y269240D02*
X213360D01*
X110490Y149860D02*
Y259080D01*
X120650Y269240D01*
X110490Y149860D02*
X121920Y138430D01*
X341630D01*
X213360Y269240D02*
X234330Y248270D01*
X705365Y270635D02*
Y342385D01*
X703580Y344170D02*
X705365Y342385D01*
Y270635D02*
X707150Y268850D01*
X909600Y270400D02*
Y345160D01*
X909320Y345440D02*
X909600Y345160D01*
Y270400D02*
X909880Y270120D01*
X1313378Y270317D02*
Y342702D01*
Y270317D02*
X1314845Y268850D01*
X1311910Y344170D02*
X1313378Y342702D01*
X1422400Y447921D02*
X1430409Y455930D01*
X1422400Y397510D02*
Y447921D01*
Y397510D02*
X1433830Y386080D01*
X1372870Y411480D02*
Y435610D01*
X1322070Y486410D02*
X1372870Y435610D01*
X1322070Y486410D02*
Y502920D01*
X1283970Y443230D02*
X1296670Y455930D01*
X1322070D01*
X1283970Y378460D02*
Y443230D01*
Y378460D02*
X1292860Y369570D01*
X1311910D01*
X1430409Y455930D02*
X1449070D01*
X1433830Y386080D02*
X1449070D01*
X1311910Y344170D02*
X1314161Y346421D01*
X1368009D02*
X1370330Y348742D01*
X1314161Y346421D02*
X1368009D01*
X1226820Y396240D02*
Y445770D01*
X1248656Y454906D02*
X1249680Y455930D01*
X1235956Y454906D02*
X1248656D01*
X1226820Y445770D02*
X1235956Y454906D01*
X1226820Y396240D02*
X1236449Y386611D01*
X1249149D02*
X1249680Y386080D01*
X1236449Y386611D02*
X1249149D01*
X1114771Y346421D02*
X1167349D01*
X1169670Y348742D01*
X1112520Y344170D02*
X1114771Y346421D01*
X1113353Y269683D02*
X1114185Y268850D01*
X1112520Y344170D02*
X1113353Y343337D01*
Y269683D02*
Y343337D01*
X524510Y455295D02*
X525365Y456150D01*
X507865Y474690D02*
X524510Y458045D01*
Y455295D02*
Y458045D01*
X457200Y474690D02*
X507865D01*
X457200Y406690D02*
Y474690D01*
X446610Y221820D02*
X454660Y229870D01*
X393700Y221820D02*
X446610D01*
X454660Y229870D02*
X495390D01*
X393700Y190500D02*
Y221820D01*
X341630Y138430D02*
X393700Y190500D01*
X234330Y224399D02*
X237259Y221470D01*
X271100D01*
X234330Y224399D02*
Y248270D01*
X823430Y43920D02*
X825290Y45781D01*
Y144989D02*
X827150Y146849D01*
X1026160Y45190D02*
Y50499D01*
X1029880Y142707D02*
X1033780Y138807D01*
X1029880Y142707D02*
Y148119D01*
D70*
Y249010D02*
Y274720D01*
X1434845Y267023D02*
Y273450D01*
X1453409Y411480D02*
X1464262Y422333D01*
X1449070Y411480D02*
X1453409D01*
X1464262Y422333D02*
X1465003D01*
X1475740Y433070D01*
Y641350D01*
X1416050Y657860D02*
X1459230D01*
X1475740Y641350D01*
X827150Y249810D02*
Y268850D01*
X834390Y242570D02*
X919480D01*
X827150Y249810D02*
X834390Y242570D01*
X1035050Y243840D02*
X1121410D01*
X1029880Y249010D02*
X1035050Y243840D01*
X1242060Y242570D02*
X1324610D01*
X1234185Y268850D02*
X1234307Y268728D01*
Y250324D02*
Y268728D01*
Y250324D02*
X1242060Y242570D01*
X1121410Y243840D02*
X1122680Y242570D01*
X935990Y259080D02*
Y302260D01*
X919480Y242570D02*
X935990Y259080D01*
X735330Y241300D02*
Y306070D01*
X601980Y107950D02*
X735330Y241300D01*
X83820Y107950D02*
X601980D01*
X1057910Y412750D02*
X1062990Y407670D01*
X1057402Y350012D02*
X1062990Y355600D01*
Y407670D01*
X1042670Y412750D02*
X1057910D01*
X1041400Y350012D02*
X1057402D01*
X862330Y356870D02*
Y406400D01*
X855423Y413307D02*
X862330Y406400D01*
X853122Y347663D02*
X862330Y356870D01*
X838009Y347663D02*
X853122D01*
X836930Y348742D02*
X838009Y347663D01*
X839470Y411480D02*
X840855Y412865D01*
X848355D01*
X848796Y413307D01*
X855423D01*
X1151890Y316230D02*
X1229360D01*
X1139190Y303530D02*
X1151890Y316230D01*
X1229360D02*
X1245870Y332740D01*
X1122680Y242570D02*
X1139190Y259080D01*
Y303530D01*
X1434845Y273450D02*
X1444234Y282839D01*
X1431290Y318770D02*
X1443434Y330914D01*
X1444234Y282839D02*
Y346446D01*
X822960Y317500D02*
X836930Y331470D01*
X735330Y306070D02*
X746760Y317500D01*
X822960D01*
X836930Y282036D02*
Y331470D01*
Y348742D01*
X1341120Y259080D02*
Y309880D01*
X1324610Y242570D02*
X1341120Y259080D01*
Y309880D02*
X1350010Y318770D01*
X935990Y302260D02*
X953770Y320040D01*
X1026160D01*
X1041400Y286240D02*
Y335280D01*
X1026160Y320040D02*
X1041400Y335280D01*
Y350012D01*
X827150Y272256D02*
X836930Y282036D01*
X1029880Y274720D02*
X1041400Y286240D01*
X17780Y173990D02*
X83820Y107950D01*
X297180Y515620D02*
X406110Y406690D01*
X48260Y515620D02*
X297180D01*
X17780Y485140D02*
X48260Y515620D01*
X17780Y173990D02*
Y485140D01*
X406110Y406690D02*
X434300D01*
Y372150D02*
Y406690D01*
X271100Y187470D02*
X297960D01*
X316230Y205740D01*
Y295910D01*
X1350010Y318770D02*
X1431290D01*
X1263765Y410095D02*
X1272540Y401320D01*
Y359410D02*
Y401320D01*
X1261428Y348298D02*
X1272540Y359410D01*
X1449070Y411480D02*
X1449783Y410767D01*
X1462483D02*
X1471930Y401320D01*
Y355600D02*
Y401320D01*
X1449783Y410767D02*
X1462483D01*
X1447292Y347980D02*
X1464310D01*
X1471930Y355600D01*
X1251065Y410095D02*
X1263765D01*
X1245870Y332740D02*
Y348742D01*
X1246314Y348298D02*
X1261428D01*
X1245870Y348742D02*
X1246314Y348298D01*
X1249680Y411480D02*
X1251065Y410095D01*
X1245870Y285135D02*
Y332740D01*
X1234185Y273450D02*
X1245870Y285135D01*
X1234185Y268850D02*
Y273450D01*
X434300Y372150D02*
X466090Y340360D01*
X495190D01*
Y284910D02*
Y340360D01*
X469213Y283210D02*
X493490D01*
X394111Y326409D02*
X426014D01*
X393700Y326820D02*
X394111Y326409D01*
X426014D02*
X469213Y283210D01*
X347140Y326820D02*
X393700D01*
X316230Y295910D02*
X347140Y326820D01*
X493490Y283210D02*
X495190Y284910D01*
D71*
X896340Y995400D02*
X937260Y1036320D01*
X909147Y990480D02*
X943557Y1024890D01*
X918436Y985400D02*
X947765Y1014730D01*
X929520Y980320D02*
X952500Y1003300D01*
X461010Y1172210D02*
X647820Y985400D01*
X416560Y1070610D02*
X521770Y965400D01*
X430530Y1096010D02*
X556140Y970400D01*
X438150Y1121410D02*
X584160Y975400D01*
X448310Y1146810D02*
X614720Y980400D01*
D72*
X1372870Y386080D02*
X1391142D01*
X1344930D02*
X1372870D01*
X900430Y621030D02*
X940435D01*
X862330D02*
X900430D01*
X1371600Y532130D02*
X1397000Y506730D01*
Y391938D02*
Y506730D01*
X1301750Y532130D02*
X1371600D01*
X1391142Y386080D02*
X1397000Y391938D01*
X697230Y1115060D02*
X735870D01*
X596900D02*
X697230D01*
X514350Y1197610D02*
X596900Y1115060D01*
X738410Y1117600D02*
X739140D01*
X735870Y1115060D02*
X738410Y1117600D01*
X725170Y533400D02*
X774700D01*
X688340D02*
X725170D01*
X704850Y551180D02*
X707390D01*
X725170Y533400D01*
X577850Y551180D02*
X627380D01*
X530860Y598170D02*
X577850Y551180D01*
X105410Y1197610D02*
X514350D01*
X774700Y533400D02*
X862330Y621030D01*
X772160Y530860D02*
X774700Y533400D01*
X991870Y890270D02*
X1087120D01*
X1104900Y908050D01*
X593090Y438150D02*
X688340Y533400D01*
X517215Y611815D02*
Y636936D01*
X516890Y637261D02*
X517215Y636936D01*
Y611815D02*
X530860Y598170D01*
X683260D01*
X355600D02*
X530860D01*
X345440Y608330D02*
Y634721D01*
Y608330D02*
X355600Y598170D01*
X172720D02*
X355600D01*
X695635Y635666D02*
X695960Y635991D01*
X695635Y610545D02*
Y635666D01*
X683260Y598170D02*
X695635Y610545D01*
X199100Y170470D02*
X271100D01*
X165100Y204470D02*
X199100Y170470D01*
X165100Y204470D02*
X271100D01*
X289560D01*
X271100Y170470D02*
X302550D01*
X289560Y204470D02*
X302260Y217170D01*
X302550Y170470D02*
X342900Y210820D01*
Y238760D01*
X302260Y217170D02*
Y288290D01*
X360680Y256540D02*
X521970D01*
X342900Y238760D02*
X360680Y256540D01*
X512690Y340860D02*
X513190Y340360D01*
X296402Y352330D02*
X302260Y346472D01*
X265430Y352330D02*
X296402D01*
X211963Y354430D02*
X263330D01*
X265430Y352330D01*
X302260Y288290D02*
Y346472D01*
X512690Y340860D02*
Y350851D01*
X480100Y383440D02*
Y406690D01*
Y383440D02*
X512690Y350851D01*
X480100Y406690D02*
X510405D01*
X521970Y256540D02*
X538070Y240440D01*
X537750Y283210D02*
X538070Y282890D01*
X513190Y340360D02*
X532130D01*
X537750Y283210D02*
X539750Y285210D01*
X532130Y340360D02*
X539750Y332740D01*
X538070Y240440D02*
X538390Y240120D01*
X538070Y240440D02*
Y282890D01*
X538390Y229870D02*
Y240120D01*
X539750Y285210D02*
Y332740D01*
X728980Y394970D02*
X737870Y386080D01*
X763270D02*
X767068D01*
X737870D02*
X763270D01*
X510405Y406690D02*
X524510Y420795D01*
Y423545D02*
X551335D01*
X524510Y420795D02*
Y423545D01*
X551335D02*
X565940Y438150D01*
X767068Y386080D02*
X787400Y406412D01*
X567690Y438150D02*
X593090D01*
X565940D02*
X567690D01*
X703580Y394970D02*
X728980D01*
X787400Y406412D02*
Y447040D01*
X163830Y607060D02*
X172720Y598170D01*
X163830Y607060D02*
Y635991D01*
X787400Y447040D02*
Y515620D01*
X772160Y530860D02*
X787400Y515620D01*
Y447040D02*
X819150Y478790D01*
X853440D01*
X872490Y497840D01*
X965600Y388220D02*
X966470Y387350D01*
X967473Y388353D01*
X941470Y388220D02*
X965600D01*
X909320Y396240D02*
X933450D01*
X941470Y388220D01*
X967473Y388353D02*
X982202D01*
X988060Y394211D01*
Y454660D01*
X989330Y453390D01*
X872490Y497840D02*
Y513080D01*
X892810Y533400D01*
X965200D01*
X989330Y453390D02*
X1013460Y477520D01*
X988060Y454660D02*
Y510540D01*
X1013460Y477520D02*
X1065530D01*
X1080770Y492760D01*
X965200Y533400D02*
X988060Y510540D01*
X1080770Y492760D02*
Y516890D01*
X1094740Y530860D01*
X1148080Y386080D02*
X1173480D01*
X1174483Y387083D01*
X1139190Y394970D02*
X1148080Y386080D01*
X1112520Y394970D02*
X1139190D01*
X1174483Y387083D02*
X1187183D01*
X1200150Y400050D01*
X1311910Y394970D02*
X1336040D01*
X1344930Y386080D01*
X1200150Y400050D02*
Y447040D01*
Y506730D01*
Y447040D02*
X1201420D01*
X1231900Y477520D01*
X1176020Y530860D02*
X1200150Y506730D01*
X1094740Y530860D02*
X1176020D01*
X1231900Y477520D02*
X1268730D01*
X1282700Y491490D01*
Y513080D02*
X1301750Y532130D01*
X1282700Y491490D02*
Y513080D01*
X1027430Y955040D02*
X1034900Y947570D01*
X1061720D02*
X1093320D01*
X1034900D02*
X1061720D01*
X1104900Y908050D02*
Y935990D01*
X1093320Y947570D02*
X1104900Y935990D01*
D73*
X1061720Y960570D02*
Y970280D01*
X1060450Y971550D02*
X1061720Y970280D01*
X992090Y939800D02*
X1021080D01*
X1026160Y934720D01*
X1033780Y922020D02*
X1061270D01*
X1061720Y921570D01*
X1027430Y915670D02*
X1033780Y922020D01*
X992090Y915670D02*
X1027430D01*
X1026160Y934720D02*
X1061570D01*
X1061720Y934570D01*
D74*
X707150Y145496D02*
Y146849D01*
M02*
