G04*
G04 #@! TF.GenerationSoftware,Altium Limited,Altium Designer,25.0.2 (28)*
G04*
G04 Layer_Color=32896*
%FSLAX44Y44*%
%MOMM*%
G71*
G04*
G04 #@! TF.SameCoordinates,EC434AE0-B9B9-438B-98C1-4E927CCEC0A2*
G04*
G04*
G04 #@! TF.FilePolarity,Positive*
G04*
G01*
G75*
%ADD10C,0.2540*%
%ADD12C,0.1524*%
%ADD30C,0.2000*%
%ADD73C,0.4000*%
%ADD95C,0.1520*%
%ADD96C,0.1999*%
%ADD97C,1.0160*%
%ADD98C,0.2032*%
%ADD99C,0.6000*%
%ADD100C,0.2500*%
%ADD101C,0.1500*%
%ADD102C,0.1270*%
%ADD103C,0.1000*%
%ADD104C,0.0762*%
D10*
X1138620Y1090304D02*
G03*
X1138612Y1090312I-8J0D01*
G01*
X1318620Y1091046D02*
G03*
X1318622Y1091046I2J2D01*
G01*
X1138620Y1083405D02*
X1163532D01*
X1293758D02*
X1318620D01*
X1138620D02*
Y1090305D01*
X1318620Y1083405D02*
Y1091046D01*
Y1273405D02*
Y1339451D01*
X1138620D02*
X1318620D01*
X1138620Y1273405D02*
Y1339451D01*
X707390Y831850D02*
X783590D01*
X707390Y806450D02*
Y831850D01*
Y806450D02*
X783590D01*
Y831850D01*
X554900Y217170D02*
Y242570D01*
X478700Y217170D02*
X554900D01*
X478700D02*
Y242570D01*
X554900D01*
X980463Y742846D02*
Y790847D01*
X866463Y742846D02*
Y790847D01*
Y742846D02*
X980463D01*
X866463Y790847D02*
X980463D01*
X1432560Y1149170D02*
Y1225370D01*
Y1149170D02*
X1457960D01*
Y1225370D01*
X1432560D02*
X1457960D01*
X1389380Y1054100D02*
Y1130300D01*
X1363980D02*
X1389380D01*
X1363980Y1054100D02*
Y1130300D01*
Y1054100D02*
X1389380D01*
X333700Y213925D02*
X366389D01*
X421012Y333925D02*
X453700D01*
Y213925D02*
Y333925D01*
X421012Y213925D02*
X453700D01*
X333700D02*
Y333925D01*
X366389D01*
X1324102Y1363467D02*
Y1350771D01*
X1321563Y1348232D01*
X1316485D01*
X1313945Y1350771D01*
Y1363467D01*
X1298710Y1348232D02*
X1308867D01*
X1298710Y1358389D01*
Y1360928D01*
X1301249Y1363467D01*
X1306328D01*
X1308867Y1360928D01*
X1474219Y1133852D02*
X1476759Y1136391D01*
X1481837D01*
X1484376Y1133852D01*
Y1131313D01*
X1481837Y1128773D01*
X1476759D01*
X1474219Y1126234D01*
Y1123695D01*
X1476759Y1121156D01*
X1481837D01*
X1484376Y1123695D01*
X1469141Y1121156D02*
X1464063D01*
X1466602D01*
Y1136391D01*
X1469141Y1133852D01*
X1590294Y1067303D02*
Y1054607D01*
X1587755Y1052068D01*
X1582677D01*
X1580137Y1054607D01*
Y1067303D01*
X1575059Y1064764D02*
X1572520Y1067303D01*
X1567441D01*
X1564902Y1064764D01*
Y1062225D01*
X1567441Y1059686D01*
X1569981D01*
X1567441D01*
X1564902Y1057146D01*
Y1054607D01*
X1567441Y1052068D01*
X1572520D01*
X1575059Y1054607D01*
X1042924Y897885D02*
Y885189D01*
X1040385Y882650D01*
X1035306D01*
X1032767Y885189D01*
Y897885D01*
X1017532D02*
X1022611Y895346D01*
X1027689Y890267D01*
Y885189D01*
X1025150Y882650D01*
X1020071D01*
X1017532Y885189D01*
Y887728D01*
X1020071Y890267D01*
X1027689D01*
X835409Y855722D02*
X837949Y858261D01*
X843027D01*
X845566Y855722D01*
Y853183D01*
X843027Y850643D01*
X837949D01*
X835409Y848104D01*
Y845565D01*
X837949Y843026D01*
X843027D01*
X845566Y845565D01*
X830331Y855722D02*
X827792Y858261D01*
X822713D01*
X820174Y855722D01*
Y853183D01*
X822713Y850643D01*
X825253D01*
X822713D01*
X820174Y848104D01*
Y845565D01*
X822713Y843026D01*
X827792D01*
X830331Y845565D01*
X1001776Y882396D02*
Y897631D01*
X994158D01*
X991619Y895092D01*
Y890014D01*
X994158Y887474D01*
X1001776D01*
X996698D02*
X991619Y882396D01*
X986541D02*
X981463D01*
X984002D01*
Y897631D01*
X986541Y895092D01*
X973845Y882396D02*
X968767D01*
X971306D01*
Y897631D01*
X973845Y895092D01*
X887984Y885444D02*
Y900679D01*
X880367D01*
X877827Y898140D01*
Y893062D01*
X880367Y890522D01*
X887984D01*
X882906D02*
X877827Y885444D01*
X872749Y898140D02*
X870210Y900679D01*
X865131D01*
X862592Y898140D01*
Y895601D01*
X865131Y893062D01*
X862592Y890522D01*
Y887983D01*
X865131Y885444D01*
X870210D01*
X872749Y887983D01*
Y890522D01*
X870210Y893062D01*
X872749Y895601D01*
Y898140D01*
X870210Y893062D02*
X865131D01*
X802640Y886206D02*
Y901441D01*
X795023D01*
X792483Y898902D01*
Y893823D01*
X795023Y891284D01*
X802640D01*
X797562D02*
X792483Y886206D01*
X787405Y901441D02*
X777248D01*
Y898902D01*
X787405Y888745D01*
Y886206D01*
X782320Y855975D02*
Y840740D01*
X774703D01*
X772163Y843279D01*
Y853436D01*
X774703Y855975D01*
X782320D01*
X767085Y853436D02*
X764546Y855975D01*
X759467D01*
X756928Y853436D01*
Y850897D01*
X759467Y848357D01*
X762007D01*
X759467D01*
X756928Y845818D01*
Y843279D01*
X759467Y840740D01*
X764546D01*
X767085Y843279D01*
X848363Y900172D02*
X850902Y902711D01*
X855981D01*
X858520Y900172D01*
Y890015D01*
X855981Y887476D01*
X850902D01*
X848363Y890015D01*
X843285Y887476D02*
X838207D01*
X840746D01*
Y902711D01*
X843285Y900172D01*
X822971Y887476D02*
Y902711D01*
X830589Y895094D01*
X820432D01*
X909323Y899156D02*
X911862Y901695D01*
X916941D01*
X919480Y899156D01*
Y888999D01*
X916941Y886460D01*
X911862D01*
X909323Y888999D01*
X904245Y886460D02*
X899167D01*
X901706D01*
Y901695D01*
X904245Y899156D01*
X891549D02*
X889010Y901695D01*
X883932D01*
X881392Y899156D01*
Y888999D01*
X883932Y886460D01*
X889010D01*
X891549Y888999D01*
Y899156D01*
X763273Y900172D02*
X765813Y902711D01*
X770891D01*
X773430Y900172D01*
Y890015D01*
X770891Y887476D01*
X765813D01*
X763273Y890015D01*
X758195Y900172D02*
X755656Y902711D01*
X750577D01*
X748038Y900172D01*
Y897633D01*
X750577Y895094D01*
X753117D01*
X750577D01*
X748038Y892554D01*
Y890015D01*
X750577Y887476D01*
X755656D01*
X758195Y890015D01*
X820423Y900426D02*
X822962Y902965D01*
X828041D01*
X830580Y900426D01*
Y890269D01*
X828041Y887730D01*
X822962D01*
X820423Y890269D01*
X815345Y887730D02*
X810267D01*
X812806D01*
Y902965D01*
X815345Y900426D01*
X802649D02*
X800110Y902965D01*
X795032D01*
X792492Y900426D01*
Y897887D01*
X795032Y895348D01*
X797571D01*
X795032D01*
X792492Y892808D01*
Y890269D01*
X795032Y887730D01*
X800110D01*
X802649Y890269D01*
X987809Y920746D02*
X990349Y923285D01*
X995427D01*
X997966Y920746D01*
Y910589D01*
X995427Y908050D01*
X990349D01*
X987809Y910589D01*
X975113Y908050D02*
Y923285D01*
X982731Y915667D01*
X972574D01*
X996696Y980440D02*
Y995675D01*
X989079D01*
X986539Y993136D01*
Y988057D01*
X989079Y985518D01*
X996696D01*
X991618D02*
X986539Y980440D01*
X971304Y995675D02*
X981461D01*
Y988057D01*
X976383Y990597D01*
X973843D01*
X971304Y988057D01*
Y982979D01*
X973843Y980440D01*
X978922D01*
X981461Y982979D01*
X541023Y330958D02*
X543563Y333497D01*
X548641D01*
X551180Y330958D01*
Y320801D01*
X548641Y318262D01*
X543563D01*
X541023Y320801D01*
X535945Y318262D02*
X530867D01*
X533406D01*
Y333497D01*
X535945Y330958D01*
X523249Y333497D02*
X513092D01*
Y330958D01*
X523249Y320801D01*
Y318262D01*
X553720Y266695D02*
Y251460D01*
X546102D01*
X543563Y253999D01*
Y264156D01*
X546102Y266695D01*
X553720D01*
X538485D02*
X528328D01*
Y264156D01*
X538485Y253999D01*
Y251460D01*
X509019Y370836D02*
X511558Y373375D01*
X516637D01*
X519176Y370836D01*
Y360679D01*
X516637Y358140D01*
X511558D01*
X509019Y360679D01*
X503941Y358140D02*
X498863D01*
X501402D01*
Y373375D01*
X503941Y370836D01*
X491245D02*
X488706Y373375D01*
X483628D01*
X481088Y370836D01*
Y368297D01*
X483628Y365757D01*
X481088Y363218D01*
Y360679D01*
X483628Y358140D01*
X488706D01*
X491245Y360679D01*
Y363218D01*
X488706Y365757D01*
X491245Y368297D01*
Y370836D01*
X488706Y365757D02*
X483628D01*
X306327Y318766D02*
X308867Y321305D01*
X313945D01*
X316484Y318766D01*
Y308609D01*
X313945Y306070D01*
X308867D01*
X306327Y308609D01*
X301249Y306070D02*
X296171D01*
X298710D01*
Y321305D01*
X301249Y318766D01*
X278396Y321305D02*
X283475Y318766D01*
X288553Y313687D01*
Y308609D01*
X286014Y306070D01*
X280935D01*
X278396Y308609D01*
Y311148D01*
X280935Y313687D01*
X288553D01*
X565153Y484882D02*
X567692Y487421D01*
X572771D01*
X575310Y484882D01*
Y474725D01*
X572771Y472186D01*
X567692D01*
X565153Y474725D01*
X560075Y472186D02*
X554997D01*
X557536D01*
Y487421D01*
X560075Y484882D01*
X547379Y474725D02*
X544840Y472186D01*
X539762D01*
X537222Y474725D01*
Y484882D01*
X539762Y487421D01*
X544840D01*
X547379Y484882D01*
Y482343D01*
X544840Y479804D01*
X537222D01*
X136906Y399029D02*
Y386333D01*
X134367Y383794D01*
X129289D01*
X126749Y386333D01*
Y399029D01*
X121671D02*
X111514D01*
Y396490D01*
X121671Y386333D01*
Y383794D01*
X833120Y655066D02*
Y670301D01*
X825502D01*
X822963Y667762D01*
Y662683D01*
X825502Y660144D01*
X833120D01*
X828042D02*
X822963Y655066D01*
X807728D02*
X817885D01*
X807728Y665223D01*
Y667762D01*
X810267Y670301D01*
X815346D01*
X817885Y667762D01*
X792493Y670301D02*
X802650D01*
Y662683D01*
X797571Y665223D01*
X795032D01*
X792493Y662683D01*
Y657605D01*
X795032Y655066D01*
X800111D01*
X802650Y657605D01*
X519687Y487676D02*
X522226Y490215D01*
X527305D01*
X529844Y487676D01*
Y477519D01*
X527305Y474980D01*
X522226D01*
X519687Y477519D01*
X504452Y490215D02*
X509531Y487676D01*
X514609Y482598D01*
Y477519D01*
X512070Y474980D01*
X506991D01*
X504452Y477519D01*
Y480058D01*
X506991Y482598D01*
X514609D01*
X268481Y388616D02*
X271021Y391155D01*
X276099D01*
X278638Y388616D01*
Y378459D01*
X276099Y375920D01*
X271021D01*
X268481Y378459D01*
X263403Y375920D02*
X258325D01*
X260864D01*
Y391155D01*
X263403Y388616D01*
X240550Y391155D02*
X250707D01*
Y383537D01*
X245629Y386077D01*
X243090D01*
X240550Y383537D01*
Y378459D01*
X243090Y375920D01*
X248168D01*
X250707Y378459D01*
X1459230Y1249421D02*
Y1234186D01*
X1451613D01*
X1449073Y1236725D01*
Y1246882D01*
X1451613Y1249421D01*
X1459230D01*
X1433838Y1234186D02*
X1443995D01*
X1433838Y1244343D01*
Y1246882D01*
X1436377Y1249421D01*
X1441456D01*
X1443995Y1246882D01*
X1388110Y1154425D02*
Y1139190D01*
X1380493D01*
X1377953Y1141729D01*
Y1151886D01*
X1380493Y1154425D01*
X1388110D01*
X1372875Y1139190D02*
X1367797D01*
X1370336D01*
Y1154425D01*
X1372875Y1151886D01*
X514347Y396429D02*
X501652D01*
X499113Y398968D01*
Y404047D01*
X501652Y406586D01*
X514347D01*
X499113Y411664D02*
Y416743D01*
Y414203D01*
X514347D01*
X511808Y411664D01*
X514347Y434517D02*
Y424360D01*
X506730D01*
X509269Y429439D01*
Y431978D01*
X506730Y434517D01*
X501652D01*
X499113Y431978D01*
Y426899D01*
X501652Y424360D01*
X286258Y281427D02*
Y268731D01*
X283719Y266192D01*
X278640D01*
X276101Y268731D01*
Y281427D01*
X271023Y266192D02*
X265945D01*
X268484D01*
Y281427D01*
X271023Y278888D01*
X248170Y266192D02*
X258327D01*
X248170Y276349D01*
Y278888D01*
X250709Y281427D01*
X255788D01*
X258327Y278888D01*
X996696Y815081D02*
Y802385D01*
X994157Y799846D01*
X989079D01*
X986539Y802385D01*
Y815081D01*
X973843Y799846D02*
Y815081D01*
X981461Y807464D01*
X971304D01*
X884174Y1053079D02*
Y1040383D01*
X881635Y1037844D01*
X876556D01*
X874017Y1040383D01*
Y1053079D01*
X868939Y1037844D02*
X863861D01*
X866400D01*
Y1053079D01*
X868939Y1050540D01*
X1404369Y1201162D02*
X1406909Y1203701D01*
X1411987D01*
X1414526Y1201162D01*
Y1198623D01*
X1411987Y1196084D01*
X1406909D01*
X1404369Y1193544D01*
Y1191005D01*
X1406909Y1188466D01*
X1411987D01*
X1414526Y1191005D01*
X1389134Y1188466D02*
X1399291D01*
X1389134Y1198623D01*
Y1201162D01*
X1391673Y1203701D01*
X1396752D01*
X1399291Y1201162D01*
X820166Y777240D02*
Y792475D01*
X812549D01*
X810009Y789936D01*
Y784857D01*
X812549Y782318D01*
X820166D01*
X815088D02*
X810009Y777240D01*
X804931D02*
X799853D01*
X802392D01*
Y792475D01*
X804931Y789936D01*
X792235D02*
X789696Y792475D01*
X784617D01*
X782078Y789936D01*
Y787397D01*
X784617Y784857D01*
X782078Y782318D01*
Y779779D01*
X784617Y777240D01*
X789696D01*
X792235Y779779D01*
Y782318D01*
X789696Y784857D01*
X792235Y787397D01*
Y789936D01*
X789696Y784857D02*
X784617D01*
X820166Y684530D02*
Y699765D01*
X812549D01*
X810009Y697226D01*
Y692148D01*
X812549Y689608D01*
X820166D01*
X815088D02*
X810009Y684530D01*
X804931D02*
X799853D01*
X802392D01*
Y699765D01*
X804931Y697226D01*
X792235Y699765D02*
X782078D01*
Y697226D01*
X792235Y687069D01*
Y684530D01*
X820166Y716280D02*
Y731515D01*
X812549D01*
X810009Y728976D01*
Y723897D01*
X812549Y721358D01*
X820166D01*
X815088D02*
X810009Y716280D01*
X804931D02*
X799853D01*
X802392D01*
Y731515D01*
X804931Y728976D01*
X782078Y731515D02*
X787157Y728976D01*
X792235Y723897D01*
Y718819D01*
X789696Y716280D01*
X784617D01*
X782078Y718819D01*
Y721358D01*
X784617Y723897D01*
X792235D01*
X820166Y745490D02*
Y760725D01*
X812549D01*
X810009Y758186D01*
Y753108D01*
X812549Y750568D01*
X820166D01*
X815088D02*
X810009Y745490D01*
X804931D02*
X799853D01*
X802392D01*
Y760725D01*
X804931Y758186D01*
X792235D02*
X789696Y760725D01*
X784617D01*
X782078Y758186D01*
Y755647D01*
X784617Y753108D01*
X787157D01*
X784617D01*
X782078Y750568D01*
Y748029D01*
X784617Y745490D01*
X789696D01*
X792235Y748029D01*
X970396Y890267D02*
Y875032D01*
X978014D01*
X980553Y877572D01*
Y882650D01*
X978014Y885189D01*
X970396D01*
X975475D02*
X980553Y890267D01*
X985631D02*
X990710D01*
X988171D01*
Y875032D01*
X985631Y877572D01*
X1008484Y890267D02*
X998327D01*
X1008484Y880111D01*
Y877572D01*
X1005945Y875032D01*
X1000867D01*
X998327Y877572D01*
X969016Y915667D02*
Y900432D01*
X976634D01*
X979173Y902972D01*
Y908050D01*
X976634Y910589D01*
X969016D01*
X974094D02*
X979173Y915667D01*
X984251D02*
X989330D01*
X986790D01*
Y900432D01*
X984251Y902972D01*
X996947D02*
X999486Y900432D01*
X1004565D01*
X1007104Y902972D01*
Y913128D01*
X1004565Y915667D01*
X999486D01*
X996947Y913128D01*
Y902972D01*
X996696Y1003046D02*
Y1018281D01*
X989079D01*
X986539Y1015742D01*
Y1010664D01*
X989079Y1008124D01*
X996696D01*
X991618D02*
X986539Y1003046D01*
X981461Y1005585D02*
X978922Y1003046D01*
X973843D01*
X971304Y1005585D01*
Y1015742D01*
X973843Y1018281D01*
X978922D01*
X981461Y1015742D01*
Y1013203D01*
X978922Y1010664D01*
X971304D01*
X1244346Y1054100D02*
Y1069335D01*
X1236729D01*
X1234189Y1066796D01*
Y1061718D01*
X1236729Y1059178D01*
X1244346D01*
X1239268D02*
X1234189Y1054100D01*
X1218954Y1069335D02*
X1224033Y1066796D01*
X1229111Y1061718D01*
Y1056639D01*
X1226572Y1054100D01*
X1221493D01*
X1218954Y1056639D01*
Y1059178D01*
X1221493Y1061718D01*
X1229111D01*
X1389380Y1240536D02*
Y1255771D01*
X1381763D01*
X1379223Y1253232D01*
Y1248154D01*
X1381763Y1245614D01*
X1389380D01*
X1384302D02*
X1379223Y1240536D01*
X1366527D02*
Y1255771D01*
X1374145Y1248154D01*
X1363988D01*
X1102360Y1116076D02*
Y1131311D01*
X1094743D01*
X1092203Y1128772D01*
Y1123693D01*
X1094743Y1121154D01*
X1102360D01*
X1097282D02*
X1092203Y1116076D01*
X1087125Y1128772D02*
X1084586Y1131311D01*
X1079507D01*
X1076968Y1128772D01*
Y1126233D01*
X1079507Y1123693D01*
X1082047D01*
X1079507D01*
X1076968Y1121154D01*
Y1118615D01*
X1079507Y1116076D01*
X1084586D01*
X1087125Y1118615D01*
X1293876Y1052830D02*
Y1068065D01*
X1286259D01*
X1283719Y1065526D01*
Y1060447D01*
X1286259Y1057908D01*
X1293876D01*
X1288798D02*
X1283719Y1052830D01*
X1268484D02*
X1278641D01*
X1268484Y1062987D01*
Y1065526D01*
X1271023Y1068065D01*
X1276102D01*
X1278641Y1065526D01*
X1418590Y1094740D02*
Y1109975D01*
X1410972D01*
X1408433Y1107436D01*
Y1102357D01*
X1410972Y1099818D01*
X1418590D01*
X1413512D02*
X1408433Y1094740D01*
X1403355D02*
X1398277D01*
X1400816D01*
Y1109975D01*
X1403355Y1107436D01*
X452374Y370581D02*
X447296D01*
X449835D01*
Y355346D01*
X452374D01*
X447296D01*
X439678D02*
X434600D01*
X437139D01*
Y370581D01*
X439678Y368042D01*
X1366523Y1295142D02*
X1369062Y1297681D01*
X1374141D01*
X1376680Y1295142D01*
Y1284985D01*
X1374141Y1282446D01*
X1369062D01*
X1366523Y1284985D01*
X1361445Y1282446D02*
X1356367D01*
X1358906D01*
Y1297681D01*
X1361445Y1295142D01*
X1338592Y1282446D02*
X1348749D01*
X1338592Y1292603D01*
Y1295142D01*
X1341131Y1297681D01*
X1346210D01*
X1348749Y1295142D01*
X1395733Y1295396D02*
X1398273Y1297935D01*
X1403351D01*
X1405890Y1295396D01*
Y1285239D01*
X1403351Y1282700D01*
X1398273D01*
X1395733Y1285239D01*
X1390655Y1282700D02*
X1385577D01*
X1388116D01*
Y1297935D01*
X1390655Y1295396D01*
X1377959Y1282700D02*
X1372881D01*
X1375420D01*
Y1297935D01*
X1377959Y1295396D01*
X1380239Y1228086D02*
X1382778Y1230625D01*
X1387857D01*
X1390396Y1228086D01*
Y1217929D01*
X1387857Y1215390D01*
X1382778D01*
X1380239Y1217929D01*
X1375161D02*
X1372622Y1215390D01*
X1367543D01*
X1365004Y1217929D01*
Y1228086D01*
X1367543Y1230625D01*
X1372622D01*
X1375161Y1228086D01*
Y1225547D01*
X1372622Y1223008D01*
X1365004D01*
X1443993Y894076D02*
X1446532Y896615D01*
X1451611D01*
X1454150Y894076D01*
Y883919D01*
X1451611Y881380D01*
X1446532D01*
X1443993Y883919D01*
X1438915Y894076D02*
X1436376Y896615D01*
X1431297D01*
X1428758Y894076D01*
Y891537D01*
X1431297Y888997D01*
X1428758Y886458D01*
Y883919D01*
X1431297Y881380D01*
X1436376D01*
X1438915Y883919D01*
Y886458D01*
X1436376Y888997D01*
X1438915Y891537D01*
Y894076D01*
X1436376Y888997D02*
X1431297D01*
X1470663Y895092D02*
X1473203Y897631D01*
X1478281D01*
X1480820Y895092D01*
Y884935D01*
X1478281Y882396D01*
X1473203D01*
X1470663Y884935D01*
X1465585Y897631D02*
X1455428D01*
Y895092D01*
X1465585Y884935D01*
Y882396D01*
X791467Y1092196D02*
X794007Y1094735D01*
X799085D01*
X801624Y1092196D01*
Y1082039D01*
X799085Y1079500D01*
X794007D01*
X791467Y1082039D01*
X776232Y1094735D02*
X786389D01*
Y1087117D01*
X781311Y1089657D01*
X778771D01*
X776232Y1087117D01*
Y1082039D01*
X778771Y1079500D01*
X783850D01*
X786389Y1082039D01*
X873763Y1095752D02*
X876302Y1098291D01*
X881381D01*
X883920Y1095752D01*
Y1085595D01*
X881381Y1083056D01*
X876302D01*
X873763Y1085595D01*
X858528Y1083056D02*
X868685D01*
X858528Y1093213D01*
Y1095752D01*
X861067Y1098291D01*
X866146D01*
X868685Y1095752D01*
X1435103Y1108706D02*
X1437643Y1111245D01*
X1442721D01*
X1445260Y1108706D01*
Y1098549D01*
X1442721Y1096010D01*
X1437643D01*
X1435103Y1098549D01*
X1430025Y1096010D02*
X1424947D01*
X1427486D01*
Y1111245D01*
X1430025Y1108706D01*
D12*
X1486072Y1063048D02*
Y1103572D01*
X1479492D02*
X1486072D01*
X1455248Y1063048D02*
Y1103572D01*
X1461828D01*
X1358138Y1039495D02*
X1374933D01*
X1590802Y895985D02*
Y1039495D01*
X1478107D02*
X1590802D01*
X1358138Y1019327D02*
Y1039495D01*
Y895985D02*
X1374933D01*
X1358138D02*
Y916153D01*
X1478107Y895985D02*
X1590802D01*
X797618Y803738D02*
X838142D01*
Y810318D01*
X797618Y834562D02*
X838142D01*
Y827982D02*
Y834562D01*
X987408Y858580D02*
X991218D01*
Y860612D01*
Y856548D02*
Y858580D01*
X997568D02*
Y860612D01*
Y856548D02*
Y858580D01*
X1001378D01*
X991218Y860612D02*
X997568D01*
X991218Y856548D02*
X997568D01*
X1003664Y842832D02*
Y874074D01*
X985122D02*
X1003664D01*
X985122Y842832D02*
X1003664D01*
X985122D02*
Y874074D01*
X873438Y861560D02*
X877248D01*
Y863592D01*
Y859528D02*
Y861560D01*
X883598D02*
Y863592D01*
Y859528D02*
Y861560D01*
X887408D01*
X877248Y863592D02*
X883598D01*
X877248Y859528D02*
X883598D01*
X889694Y845812D02*
Y877054D01*
X871152D02*
X889694D01*
X871152Y845812D02*
X889694D01*
X871152D02*
Y877054D01*
X798212Y862160D02*
X802022D01*
X798212Y860128D02*
Y862160D01*
Y864192D01*
X791862Y860128D02*
Y862160D01*
Y864192D01*
X788052Y862160D02*
X791862D01*
Y860128D02*
X798212D01*
X791862Y864192D02*
X798212D01*
X785766Y846666D02*
Y877908D01*
Y846666D02*
X804308D01*
X785766Y877908D02*
X804308D01*
Y846666D02*
Y877908D01*
X982930Y965852D02*
Y969662D01*
Y965852D02*
X984962D01*
X980898D02*
X982930D01*
Y959502D02*
X984962D01*
X980898D02*
X982930D01*
Y955692D02*
Y959502D01*
X984962D02*
Y965852D01*
X980898Y959502D02*
Y965852D01*
X967182Y953406D02*
X998424D01*
Y971948D01*
X967182Y953406D02*
Y971948D01*
X998424D01*
X201422Y283718D02*
Y294392D01*
Y312468D02*
Y345392D01*
X133858Y363468D02*
Y374142D01*
Y312468D02*
Y345392D01*
Y283718D02*
Y294392D01*
Y283718D02*
X201422D01*
Y363468D02*
Y374142D01*
X133858D02*
X201422D01*
X806280Y630538D02*
Y634348D01*
X804248D02*
X806280D01*
X808312D01*
X804248Y640698D02*
X806280D01*
X808312D01*
X806280D02*
Y644508D01*
X804248Y634348D02*
Y640698D01*
X808312Y634348D02*
Y640698D01*
X790786Y646794D02*
X822028D01*
X790786Y628252D02*
Y646794D01*
X822028Y628252D02*
Y646794D01*
X790786Y628252D02*
X822028D01*
X967316Y976232D02*
X998558D01*
Y994774D01*
X967316Y976232D02*
Y994774D01*
X998558D01*
X984842Y982328D02*
Y988678D01*
X980778Y982328D02*
Y988678D01*
X982810D02*
Y992488D01*
Y988678D02*
X984842D01*
X980778D02*
X982810D01*
Y982328D02*
X984842D01*
X980778D02*
X982810D01*
Y978518D02*
Y982328D01*
X967536Y930512D02*
X998778D01*
Y949054D01*
X967536Y930512D02*
Y949054D01*
X998778D01*
X985062Y936608D02*
Y942958D01*
X980998Y936608D02*
Y942958D01*
X983030D02*
Y946768D01*
Y942958D02*
X985062D01*
X980998D02*
X983030D01*
Y936608D02*
X985062D01*
X980998D02*
X983030D01*
Y932798D02*
Y936608D01*
X967536Y906382D02*
X998778D01*
Y924924D01*
X967536Y906382D02*
Y924924D01*
X998778D01*
X985062Y912478D02*
Y918828D01*
X980998Y912478D02*
Y918828D01*
X983030D02*
Y922638D01*
Y918828D02*
X985062D01*
X980998D02*
X983030D01*
Y912478D02*
X985062D01*
X980998D02*
X983030D01*
Y908668D02*
Y912478D01*
X1072836Y1089262D02*
X1104078D01*
Y1107804D01*
X1072836Y1089262D02*
Y1107804D01*
X1104078D01*
X1090362Y1095358D02*
Y1101708D01*
X1086298Y1095358D02*
Y1101708D01*
X1088330D02*
Y1105518D01*
Y1101708D02*
X1090362D01*
X1086298D02*
X1088330D01*
Y1095358D02*
X1090362D01*
X1086298D02*
X1088330D01*
Y1091548D02*
Y1095358D01*
X1359966Y1213722D02*
X1391208D01*
Y1232264D01*
X1359966Y1213722D02*
Y1232264D01*
X1391208D01*
X1377492Y1219818D02*
Y1226168D01*
X1373428Y1219818D02*
Y1226168D01*
X1375460D02*
Y1229978D01*
Y1226168D02*
X1377492D01*
X1373428D02*
X1375460D01*
Y1219818D02*
X1377492D01*
X1373428D02*
X1375460D01*
Y1216008D02*
Y1219818D01*
X1277222Y1013122D02*
Y1044364D01*
Y1013122D02*
X1295764D01*
X1277222Y1044364D02*
X1295764D01*
Y1013122D02*
Y1044364D01*
X1283318Y1026838D02*
X1289668D01*
X1283318Y1030902D02*
X1289668D01*
Y1028870D02*
X1293478D01*
X1289668Y1026838D02*
Y1028870D01*
Y1030902D01*
X1283318Y1026838D02*
Y1028870D01*
Y1030902D01*
X1279508Y1028870D02*
X1283318D01*
X1227692Y1014392D02*
Y1045634D01*
Y1014392D02*
X1246234D01*
X1227692Y1045634D02*
X1246234D01*
Y1014392D02*
Y1045634D01*
X1233788Y1028108D02*
X1240138D01*
X1233788Y1032172D02*
X1240138D01*
Y1030140D02*
X1243948D01*
X1240138Y1028108D02*
Y1030140D01*
Y1032172D01*
X1233788Y1028108D02*
Y1030140D01*
Y1032172D01*
X1229978Y1030140D02*
X1233788D01*
X1420258Y1055056D02*
Y1086298D01*
X1401716D02*
X1420258D01*
X1401716Y1055056D02*
X1420258D01*
X1401716D02*
Y1086298D01*
X1407812Y1072582D02*
X1414162D01*
X1407812Y1068518D02*
X1414162D01*
X1404002Y1070550D02*
X1407812D01*
Y1072582D01*
Y1068518D02*
Y1070550D01*
X1414162D02*
Y1072582D01*
Y1068518D02*
Y1070550D01*
X1417972D01*
X1407102Y1173422D02*
Y1180002D01*
X1366578D02*
X1407102D01*
Y1149178D02*
Y1155758D01*
X1366578Y1149178D02*
X1407102D01*
X806400Y762652D02*
Y766462D01*
Y762652D02*
X808432D01*
X804368D02*
X806400D01*
Y756302D02*
X808432D01*
X804368D02*
X806400D01*
Y752492D02*
Y756302D01*
X808432D02*
Y762652D01*
X804368Y756302D02*
Y762652D01*
X790652Y750206D02*
X821894D01*
Y768748D01*
X790652Y750206D02*
Y768748D01*
X821894D01*
X806400Y669942D02*
Y673752D01*
Y669942D02*
X808432D01*
X804368D02*
X806400D01*
Y663592D02*
X808432D01*
X804368D02*
X806400D01*
Y659782D02*
Y663592D01*
X808432D02*
Y669942D01*
X804368Y663592D02*
Y669942D01*
X790652Y657496D02*
X821894D01*
Y676038D01*
X790652Y657496D02*
Y676038D01*
X821894D01*
X806400Y701692D02*
Y705502D01*
Y701692D02*
X808432D01*
X804368D02*
X806400D01*
Y695342D02*
X808432D01*
X804368D02*
X806400D01*
Y691532D02*
Y695342D01*
X808432D02*
Y701692D01*
X804368Y695342D02*
Y701692D01*
X790652Y689246D02*
X821894D01*
Y707788D01*
X790652Y689246D02*
Y707788D01*
X821894D01*
X806510Y730902D02*
Y734712D01*
Y730902D02*
X808542D01*
X804478D02*
X806510D01*
Y724552D02*
X808542D01*
X804478D02*
X806510D01*
Y720742D02*
Y724552D01*
X808542D02*
Y730902D01*
X804478Y724552D02*
Y730902D01*
X790762Y718456D02*
X822004D01*
Y736998D01*
X790762Y718456D02*
Y736998D01*
X822004D01*
D30*
X1478661Y1083310D02*
G03*
X1478661Y1083310I-8001J0D01*
G01*
X825881Y819150D02*
G03*
X825881Y819150I-8001J0D01*
G01*
X1394841Y1164590D02*
G03*
X1394841Y1164590I-8001J0D01*
G01*
X423700Y417690D02*
Y463690D01*
X490700D01*
X423700Y417690D02*
X490700D01*
Y463690D01*
X806890Y950400D02*
Y1005400D01*
X861890Y950400D02*
Y1005400D01*
X806890D02*
X861890D01*
X806890Y950400D02*
X861890D01*
D73*
X484870Y425450D02*
G03*
X484870Y425450I-1000J0D01*
G01*
D95*
X841477Y847250D02*
G03*
X860282Y847159I9523J24769D01*
G01*
X860276Y877345D02*
G03*
X841458Y877320I-9376J-24825D01*
G01*
X902437Y846201D02*
G03*
X921242Y846109I9523J24769D01*
G01*
X921236Y876296D02*
G03*
X902418Y876271I-9376J-24825D01*
G01*
X756387Y847361D02*
G03*
X775192Y847269I9523J24769D01*
G01*
X775186Y877456D02*
G03*
X756368Y877430I-9376J-24825D01*
G01*
X813537Y847471D02*
G03*
X832342Y847379I9523J24769D01*
G01*
X832336Y877566D02*
G03*
X813518Y877541I-9376J-24825D01*
G01*
X967901Y899693D02*
G03*
X967809Y880888I24769J-9523D01*
G01*
X997996Y880894D02*
G03*
X997970Y899712I-24825J9376D01*
G01*
X519315Y330984D02*
G03*
X519290Y349802I-24825J9376D01*
G01*
X489221Y349783D02*
G03*
X489129Y330978I24769J-9523D01*
G01*
X278290Y297713D02*
G03*
X278199Y278908I24769J-9523D01*
G01*
X308385Y278914D02*
G03*
X308360Y297732I-24825J9376D01*
G01*
X558314Y432024D02*
G03*
X577132Y432049I9376J24825D01*
G01*
X577113Y462119D02*
G03*
X558308Y462211I-9523J-24769D01*
G01*
X1407646Y1272535D02*
G03*
X1388828Y1272510I-9376J-24825D01*
G01*
X1388847Y1242440D02*
G03*
X1407652Y1242349I9523J24769D01*
G01*
X1390535Y1188234D02*
G03*
X1390510Y1207052I-24825J9376D01*
G01*
X1360441Y1207033D02*
G03*
X1360349Y1188228I24769J-9523D01*
G01*
X1378436Y1272316D02*
G03*
X1359618Y1272291I-9376J-24825D01*
G01*
X1359637Y1242221D02*
G03*
X1378442Y1242129I9523J24769D01*
G01*
X1447016Y1085846D02*
G03*
X1428198Y1085821I-9376J-24825D01*
G01*
X1428217Y1055751D02*
G03*
X1447022Y1055659I9523J24769D01*
G01*
X1482576Y872266D02*
G03*
X1463758Y872240I-9376J-24825D01*
G01*
X1463777Y842171D02*
G03*
X1482582Y842079I9523J24769D01*
G01*
X1455906Y871216D02*
G03*
X1437088Y871191I-9376J-24825D01*
G01*
X1437107Y841121D02*
G03*
X1455912Y841029I9523J24769D01*
G01*
X803266Y1069476D02*
G03*
X784448Y1069451I-9376J-24825D01*
G01*
X784467Y1039381D02*
G03*
X803272Y1039289I9523J24769D01*
G01*
X885676Y1072926D02*
G03*
X866858Y1072900I-9376J-24825D01*
G01*
X866877Y1042831D02*
G03*
X885682Y1042739I9523J24769D01*
G01*
X848900Y860460D02*
Y863960D01*
X843400Y862210D02*
X848900D01*
X852650D02*
X858150D01*
X852650Y860460D02*
Y863960D01*
X860400Y847210D02*
Y877310D01*
X841400Y847310D02*
Y877210D01*
X909860Y859410D02*
Y862910D01*
X904360Y861160D02*
X909860D01*
X913610D02*
X919110D01*
X913610Y859410D02*
Y862910D01*
X921360Y846160D02*
Y876260D01*
X902360Y846260D02*
Y876160D01*
X763810Y860570D02*
Y864070D01*
X758310Y862320D02*
X763810D01*
X767560D02*
X773060D01*
X767560Y860570D02*
Y864070D01*
X775310Y847320D02*
Y877420D01*
X756310Y847420D02*
Y877320D01*
X820960Y860680D02*
Y864180D01*
X815460Y862430D02*
X820960D01*
X824710D02*
X830210D01*
X824710Y860680D02*
Y864180D01*
X832460Y847430D02*
Y877530D01*
X813460Y847530D02*
Y877430D01*
X981110Y892270D02*
X984610D01*
X982860D02*
Y897770D01*
Y883020D02*
Y888520D01*
X981110D02*
X984610D01*
X967860Y880770D02*
X997960D01*
X967960Y899770D02*
X997860D01*
X489280Y349860D02*
X519180D01*
X489180Y330860D02*
X519280D01*
X502430Y338610D02*
X505930D01*
X504180Y333110D02*
Y338610D01*
Y342360D02*
Y347860D01*
X502430Y342360D02*
X505930D01*
X291500Y290290D02*
X295000D01*
X293250D02*
Y295790D01*
Y281040D02*
Y286540D01*
X291500D02*
X295000D01*
X278250Y278790D02*
X308350D01*
X278350Y297790D02*
X308250D01*
X577190Y432160D02*
Y462060D01*
X558190Y432060D02*
Y462160D01*
X565940Y445410D02*
Y448910D01*
X560440Y447160D02*
X565940D01*
X569690D02*
X575190D01*
X569690Y445410D02*
Y448910D01*
X1388770Y1242500D02*
Y1272400D01*
X1407770Y1242400D02*
Y1272500D01*
X1400020Y1255650D02*
Y1259150D01*
Y1257400D02*
X1405520D01*
X1390770D02*
X1396270D01*
Y1255650D02*
Y1259150D01*
X1360500Y1207110D02*
X1390400D01*
X1360400Y1188110D02*
X1390500D01*
X1373650Y1195860D02*
X1377150D01*
X1375400Y1190360D02*
Y1195860D01*
Y1199610D02*
Y1205110D01*
X1373650Y1199610D02*
X1377150D01*
X1359560Y1242280D02*
Y1272180D01*
X1378560Y1242180D02*
Y1272280D01*
X1370810Y1255430D02*
Y1258930D01*
Y1257180D02*
X1376310D01*
X1361560D02*
X1367060D01*
Y1255430D02*
Y1258930D01*
X1428140Y1055810D02*
Y1085710D01*
X1447140Y1055710D02*
Y1085810D01*
X1439390Y1068960D02*
Y1072460D01*
Y1070710D02*
X1444890D01*
X1430140D02*
X1435640D01*
Y1068960D02*
Y1072460D01*
X1463700Y842230D02*
Y872130D01*
X1482700Y842130D02*
Y872230D01*
X1474950Y855380D02*
Y858880D01*
Y857130D02*
X1480450D01*
X1465700D02*
X1471200D01*
Y855380D02*
Y858880D01*
X1437030Y841180D02*
Y871080D01*
X1456030Y841080D02*
Y871180D01*
X1448280Y854330D02*
Y857830D01*
Y856080D02*
X1453780D01*
X1439030D02*
X1444530D01*
Y854330D02*
Y857830D01*
X784390Y1039440D02*
Y1069340D01*
X803390Y1039340D02*
Y1069440D01*
X795640Y1052590D02*
Y1056090D01*
Y1054340D02*
X801140D01*
X786390D02*
X791890D01*
Y1052590D02*
Y1056090D01*
X866800Y1042890D02*
Y1072790D01*
X885800Y1042790D02*
Y1072890D01*
X878050Y1056040D02*
Y1059540D01*
Y1057790D02*
X883550D01*
X868800D02*
X874300D01*
Y1056040D02*
Y1059540D01*
D96*
X515759Y258124D02*
G03*
X515698Y258124I-30J24999D01*
G01*
X504504Y439292D02*
G03*
X504504Y439341I20000J24D01*
G01*
X290516Y330339D02*
G03*
X290516Y330278I-24999J-30D01*
G01*
X542197Y256623D02*
Y309622D01*
X499198D02*
X542197D01*
X489198Y299622D02*
X499198Y309622D01*
X489198Y266623D02*
Y299622D01*
Y266623D02*
X499198Y256623D01*
X542197D01*
X528197Y261621D02*
Y304123D01*
X507303Y429341D02*
X541504D01*
X546005Y417840D02*
Y450842D01*
X536005Y460842D02*
X546005Y450842D01*
X513003Y460842D02*
X536005D01*
X503003Y450842D02*
X513003Y460842D01*
X503003Y417840D02*
Y450842D01*
Y417840D02*
X546005D01*
X244517Y342777D02*
X287019D01*
X292017Y313778D02*
Y356777D01*
X282017Y303778D02*
X292017Y313778D01*
X249018Y303778D02*
X282017D01*
X239018Y313778D02*
X249018Y303778D01*
X239018Y313778D02*
Y356777D01*
X292017D01*
D97*
X439402Y312907D02*
G03*
X432155Y320509I-2886J4504D01*
G01*
X356318Y320332D02*
G03*
X348719Y313085I-4506J-2883D01*
G01*
X348896Y237248D02*
G03*
X356143Y229646I2886J-4504D01*
G01*
X431980Y229824D02*
G03*
X439580Y237073I4503J2887D01*
G01*
D98*
X361899Y324579D02*
G03*
X335150Y275079I32250J-49405D01*
G01*
Y275079D02*
G03*
X361398Y226077I58999J73D01*
G01*
X426399Y225577D02*
G03*
X453148Y275079I-32250J49405D01*
G01*
Y275079D02*
G03*
X426900Y324078I-58999J-75D01*
G01*
D99*
X854890Y960400D02*
G03*
X854890Y960400I-3000J0D01*
G01*
D100*
X870140Y937400D02*
G03*
X870140Y937400I-1250J0D01*
G01*
D101*
X1455248Y1063048D02*
X1462068D01*
X1479251D02*
X1486072D01*
X797618Y827742D02*
Y834562D01*
Y803738D02*
Y810559D01*
X1366578Y1149178D02*
Y1155999D01*
Y1173182D02*
Y1180002D01*
D102*
X1026160Y874395D02*
X1035050D01*
Y866775D02*
Y874395D01*
Y845185D02*
Y852805D01*
X1026160Y845185D02*
X1035050D01*
X748030Y819150D02*
X751840D01*
X748030D02*
Y822960D01*
X744220Y819150D02*
X748030Y822960D01*
X744220Y819150D02*
X748030Y815340D01*
Y819150D01*
X744220Y815340D02*
Y822960D01*
X739140Y819150D02*
X744220D01*
X510450Y229870D02*
X515530D01*
Y226060D02*
Y233680D01*
X519340Y226060D02*
Y229870D01*
X515530D02*
X519340Y226060D01*
X515530Y229870D02*
X519340Y233680D01*
Y229870D02*
Y233680D01*
Y229870D02*
X523150D01*
X1445260Y1189810D02*
Y1193620D01*
X1441450Y1189810D02*
X1445260D01*
X1441450D02*
X1445260Y1186000D01*
X1449070Y1189810D01*
X1445260D02*
X1449070D01*
X1441450Y1186000D02*
X1449070D01*
X1445260Y1180920D02*
Y1186000D01*
X1376680Y1085850D02*
Y1089660D01*
X1380490D01*
X1376680Y1093470D02*
X1380490Y1089660D01*
X1372870D02*
X1376680Y1093470D01*
X1372870Y1089660D02*
X1376680D01*
X1372870Y1093470D02*
X1380490D01*
X1376680D02*
Y1098550D01*
X210340Y255270D02*
X234150D01*
X210340Y153670D02*
X234150D01*
Y255270D01*
D103*
X921219Y755915D02*
X925219D01*
X913590Y765376D02*
X917590D01*
X918220Y755414D02*
Y776415D01*
X928220Y755414D02*
Y776415D01*
X925219Y756217D02*
Y775915D01*
X921219Y756217D02*
Y775915D01*
X925219D01*
X928220Y765376D02*
X931219D01*
D104*
X1480816Y932815D02*
X1470236D01*
X1468120Y934931D01*
Y939163D01*
X1470236Y941279D01*
X1480816D01*
X1478700Y945511D02*
X1480816Y947627D01*
Y951859D01*
X1478700Y953975D01*
X1476584D01*
X1474468Y951859D01*
Y949743D01*
Y951859D01*
X1472352Y953975D01*
X1470236D01*
X1468120Y951859D01*
Y947627D01*
X1470236Y945511D01*
X1415200Y883920D02*
X1406736Y892384D01*
Y883920D02*
X1415200Y892384D01*
X1410968Y883920D02*
Y892384D01*
X1406736Y888152D02*
X1415200D01*
X117602Y282698D02*
X126066Y291162D01*
X117602D02*
X126066Y282698D01*
X117602Y286930D02*
X126066D01*
X121834Y291162D02*
Y282698D01*
X132715Y322584D02*
Y333164D01*
X134831Y335280D01*
X139063D01*
X141179Y333164D01*
Y322584D01*
X145411D02*
X153875D01*
Y324700D01*
X145411Y333164D01*
Y335280D01*
M02*
