G04*
G04 #@! TF.GenerationSoftware,Altium Limited,Altium Designer,25.0.2 (28)*
G04*
G04 Layer_Color=2752767*
%FSLAX44Y44*%
%MOMM*%
G71*
G04*
G04 #@! TF.SameCoordinates,EC434AE0-B9B9-438B-98C1-4E927CCEC0A2*
G04*
G04*
G04 #@! TF.FilePolarity,Positive*
G04*
G01*
G75*
%ADD102C,0.1270*%
%ADD107C,0.1693*%
D102*
X645160Y630911D02*
X640080Y641071D01*
X650240D01*
X645160Y630911D01*
Y755929D02*
X640080Y766089D01*
X650240D01*
X645160Y755929D01*
X695960Y630911D02*
X690880Y641071D01*
X701040D01*
X695960Y630911D01*
Y755929D02*
X690880Y766089D01*
X701040D01*
X695960Y755929D01*
X516890Y757199D02*
X511810Y767359D01*
X521970D01*
X516890Y757199D01*
Y632181D02*
X511810Y642341D01*
X521970D01*
X516890Y632181D01*
X466090Y757199D02*
X461010Y767359D01*
X471170D01*
X466090Y757199D01*
Y632181D02*
X461010Y642341D01*
X471170D01*
X466090Y632181D01*
X72390Y236220D02*
X74930Y241300D01*
X72390Y246380D01*
X77470Y243840D01*
X82550Y246380D01*
X80010Y241300D01*
X82550Y236220D01*
X77470Y238760D01*
X72390Y236220D01*
X609600Y237490D02*
X612140Y242570D01*
X609600Y247650D01*
X614680Y245110D01*
X619760Y247650D01*
X617220Y242570D01*
X619760Y237490D01*
X614680Y240030D01*
X609600Y237490D01*
X971080Y40110D02*
Y50270D01*
X981240D01*
Y40110D01*
X971080D01*
X1021080D02*
Y50270D01*
X1031240D01*
Y40110D01*
X1021080D01*
X921080D02*
Y50270D01*
X931240D01*
Y40110D01*
X921080D01*
X935355Y692150D02*
Y702310D01*
X945515D01*
Y692150D01*
X935355D01*
Y666750D02*
Y676910D01*
X945515D01*
Y666750D01*
X935355D01*
Y641350D02*
Y651510D01*
X945515D01*
Y641350D01*
X935355D01*
Y615950D02*
Y626110D01*
X945515D01*
Y615950D01*
X935355D01*
X34920Y1304920D02*
X37460Y1310000D01*
X34920Y1315080D01*
X40000Y1312540D01*
X45080Y1315080D01*
X42540Y1310000D01*
X45080Y1304920D01*
X40000Y1307460D01*
X34920Y1304920D01*
X1554920D02*
X1557460Y1310000D01*
X1554920Y1315080D01*
X1560000Y1312540D01*
X1565080Y1315080D01*
X1562540Y1310000D01*
X1565080Y1304920D01*
X1560000Y1307460D01*
X1554920Y1304920D01*
Y34920D02*
X1557460Y40000D01*
X1554920Y45080D01*
X1560000Y42540D01*
X1565080Y45080D01*
X1562540Y40000D01*
X1565080Y34920D01*
X1560000Y37460D01*
X1554920Y34920D01*
X34920D02*
X37460Y40000D01*
X34920Y45080D01*
X40000Y42540D01*
X45080Y45080D01*
X42540Y40000D01*
X45080Y34920D01*
X40000Y37460D01*
X34920Y34920D01*
X1114185Y141769D02*
X1109105Y151929D01*
X1119265D01*
X1114185Y141769D01*
X1234185D02*
X1229105Y151929D01*
X1239265D01*
X1234185Y141769D01*
Y263770D02*
X1229105Y273930D01*
X1239265D01*
X1234185Y263770D01*
X1114185D02*
X1109105Y273930D01*
X1119265D01*
X1114185Y263770D01*
X1174185Y283770D02*
X1169105Y293930D01*
X1179265D01*
X1174185Y283770D01*
X100330Y887730D02*
Y897890D01*
X110490D01*
Y887730D01*
X100330D01*
Y913130D02*
Y923290D01*
X110490D01*
Y913130D01*
X100330D01*
Y938530D02*
Y948690D01*
X110490D01*
Y938530D01*
X100330D01*
Y963930D02*
Y974090D01*
X110490D01*
Y963930D01*
X100330D01*
Y989330D02*
Y999490D01*
X110490D01*
Y989330D01*
X100330D01*
Y1014730D02*
Y1024890D01*
X110490D01*
Y1014730D01*
X100330D01*
Y1040130D02*
Y1050290D01*
X110490D01*
Y1040130D01*
X100330D01*
Y1065530D02*
Y1075690D01*
X110490D01*
Y1065530D01*
X100330D01*
Y1090930D02*
Y1101090D01*
X110490D01*
Y1090930D01*
X100330D01*
Y1116330D02*
Y1126490D01*
X110490D01*
Y1116330D01*
X100330D01*
Y1141730D02*
Y1151890D01*
X110490D01*
Y1141730D01*
X100330D01*
Y1167130D02*
Y1177290D01*
X110490D01*
Y1167130D01*
X100330D01*
Y1192530D02*
Y1202690D01*
X110490D01*
Y1192530D01*
X100330D01*
Y1217930D02*
Y1228090D01*
X110490D01*
Y1217930D01*
X100330D01*
X294640Y629641D02*
X289560Y639801D01*
X299720D01*
X294640Y629641D01*
Y754659D02*
X289560Y764819D01*
X299720D01*
X294640Y754659D01*
X345440Y629641D02*
X340360Y639801D01*
X350520D01*
X345440Y629641D01*
Y754659D02*
X340360Y764819D01*
X350520D01*
X345440Y754659D01*
X113030Y630911D02*
X107950Y641071D01*
X118110D01*
X113030Y630911D01*
Y755929D02*
X107950Y766089D01*
X118110D01*
X113030Y755929D01*
X163830Y630911D02*
X158750Y641071D01*
X168910D01*
X163830Y630911D01*
Y755929D02*
X158750Y766089D01*
X168910D01*
X163830Y755929D01*
X1240790Y343662D02*
Y353822D01*
X1250950D01*
Y343662D01*
X1240790D01*
X1164590D02*
Y353822D01*
X1174750D01*
Y343662D01*
X1164590D01*
X1125385Y38840D02*
Y49000D01*
X1135545D01*
Y38840D01*
X1125385D01*
X1225385D02*
Y49000D01*
X1235545D01*
Y38840D01*
X1225385D01*
X1175385D02*
Y49000D01*
X1185545D01*
Y38840D01*
X1175385D01*
X1244600Y497840D02*
Y508000D01*
X1254760D01*
Y497840D01*
X1244600D01*
X1117600D02*
Y508000D01*
X1127760D01*
Y497840D01*
X1117600D01*
X1168400Y406400D02*
Y416560D01*
X1178560D01*
Y406400D01*
X1168400D01*
Y381000D02*
Y391160D01*
X1178560D01*
Y381000D01*
X1168400D01*
X1244600Y406400D02*
Y416560D01*
X1254760D01*
Y406400D01*
X1244600D01*
Y381000D02*
Y391160D01*
X1254760D01*
Y381000D01*
X1244600D01*
Y450850D02*
Y461010D01*
X1254760D01*
Y450850D01*
X1244600D01*
X1117600D02*
Y461010D01*
X1127760D01*
Y450850D01*
X1117600D01*
X1441450Y343662D02*
Y353822D01*
X1451610D01*
Y343662D01*
X1441450D01*
X1365250D02*
Y353822D01*
X1375410D01*
Y343662D01*
X1365250D01*
X1326045Y38840D02*
Y49000D01*
X1336205D01*
Y38840D01*
X1326045D01*
X1426045D02*
Y49000D01*
X1436205D01*
Y38840D01*
X1426045D01*
X1376045D02*
Y49000D01*
X1386205D01*
Y38840D01*
X1376045D01*
X1443990Y497840D02*
Y508000D01*
X1454150D01*
Y497840D01*
X1443990D01*
X1316990D02*
Y508000D01*
X1327150D01*
Y497840D01*
X1316990D01*
X1374845Y283770D02*
X1369765Y293930D01*
X1379925D01*
X1374845Y283770D01*
X1314845Y263770D02*
X1309765Y273930D01*
X1319925D01*
X1314845Y263770D01*
X1434845D02*
X1429765Y273930D01*
X1439925D01*
X1434845Y263770D01*
Y141769D02*
X1429765Y151929D01*
X1439925D01*
X1434845Y141769D01*
X1314845D02*
X1309765Y151929D01*
X1319925D01*
X1314845Y141769D01*
X1367790Y406400D02*
Y416560D01*
X1377950D01*
Y406400D01*
X1367790D01*
Y381000D02*
Y391160D01*
X1377950D01*
Y381000D01*
X1367790D01*
X1443990Y406400D02*
Y416560D01*
X1454150D01*
Y406400D01*
X1443990D01*
Y381000D02*
Y391160D01*
X1454150D01*
Y381000D01*
X1443990D01*
Y450850D02*
Y461010D01*
X1454150D01*
Y450850D01*
X1443990D01*
X1316990D02*
Y461010D01*
X1327150D01*
Y450850D01*
X1316990D01*
X1563370Y858520D02*
Y868680D01*
X1573530D01*
Y858520D01*
X1563370D01*
Y833120D02*
Y843280D01*
X1573530D01*
Y833120D01*
X1563370D01*
Y807720D02*
Y817880D01*
X1573530D01*
Y807720D01*
X1563370D01*
Y782320D02*
Y792480D01*
X1573530D01*
Y782320D01*
X1563370D01*
Y756920D02*
Y767080D01*
X1573530D01*
Y756920D01*
X1563370D01*
X928370Y1300480D02*
Y1310640D01*
X938530D01*
Y1300480D01*
X928370D01*
X953371D02*
Y1310640D01*
X963531D01*
Y1300480D01*
X953371D01*
X978370D02*
Y1310640D01*
X988530D01*
Y1300480D01*
X978370D01*
X1003371D02*
Y1310640D01*
X1013531D01*
Y1300480D01*
X1003371D01*
X1075690Y1322070D02*
Y1332230D01*
X1085850D01*
Y1322070D01*
X1075690D01*
Y1296670D02*
Y1306830D01*
X1085850D01*
Y1296670D01*
X1075690D01*
Y1271270D02*
Y1281430D01*
X1085850D01*
Y1271270D01*
X1075690D01*
Y1245870D02*
Y1256030D01*
X1085850D01*
Y1245870D01*
X1075690D01*
Y1220470D02*
Y1230630D01*
X1085850D01*
Y1220470D01*
X1075690D01*
Y1195070D02*
Y1205230D01*
X1085850D01*
Y1195070D01*
X1075690D01*
X1061720Y916490D02*
X1064260Y919030D01*
X1066800D01*
X1064260Y921570D01*
X1066800Y924110D01*
X1064260D01*
X1061720Y926650D01*
X1059180Y924110D01*
X1056640D01*
X1059180Y921570D01*
X1056640Y919030D01*
X1059180D01*
X1061720Y916490D01*
Y929490D02*
X1064260Y932030D01*
X1066800D01*
X1064260Y934570D01*
X1066800Y937110D01*
X1064260D01*
X1061720Y939650D01*
X1059180Y937110D01*
X1056640D01*
X1059180Y934570D01*
X1056640Y932030D01*
X1059180D01*
X1061720Y929490D01*
Y942490D02*
X1064260Y945030D01*
X1066800D01*
X1064260Y947570D01*
X1066800Y950110D01*
X1064260D01*
X1061720Y952650D01*
X1059180Y950110D01*
X1056640D01*
X1059180Y947570D01*
X1056640Y945030D01*
X1059180D01*
X1061720Y942490D01*
Y955490D02*
X1064260Y958030D01*
X1066800D01*
X1064260Y960570D01*
X1066800Y963110D01*
X1064260D01*
X1061720Y965650D01*
X1059180Y963110D01*
X1056640D01*
X1059180Y960570D01*
X1056640Y958030D01*
X1059180D01*
X1061720Y955490D01*
X1337208Y652777D02*
Y662937D01*
X1347368D01*
Y652777D01*
X1337208D01*
X1410970Y652780D02*
Y662940D01*
X1421130D01*
Y652780D01*
X1410970D01*
X113030Y469100D02*
Y479260D01*
X123190D01*
Y469100D01*
X113030D01*
Y419100D02*
Y429260D01*
X123190D01*
Y419100D01*
X113030D01*
X969880Y285040D02*
X964800Y295200D01*
X974960D01*
X969880Y285040D01*
X909880Y265040D02*
X904800Y275200D01*
X914960D01*
X909880Y265040D01*
X1029880D02*
X1024800Y275200D01*
X1034960D01*
X1029880Y265040D01*
Y143039D02*
X1024800Y153199D01*
X1034960D01*
X1029880Y143039D01*
X909880D02*
X904800Y153199D01*
X914960D01*
X909880Y143039D01*
X1036320Y344932D02*
Y355092D01*
X1046480D01*
Y344932D01*
X1036320D01*
X960120D02*
Y355092D01*
X970280D01*
Y344932D01*
X960120D01*
X961390Y407670D02*
Y417830D01*
X971550D01*
Y407670D01*
X961390D01*
Y382270D02*
Y392430D01*
X971550D01*
Y382270D01*
X961390D01*
X1037590Y407670D02*
Y417830D01*
X1047750D01*
Y407670D01*
X1037590D01*
Y382270D02*
Y392430D01*
X1047750D01*
Y382270D01*
X1037590D01*
X1038860Y499110D02*
Y509270D01*
X1049020D01*
Y499110D01*
X1038860D01*
X911860D02*
Y509270D01*
X922020D01*
Y499110D01*
X911860D01*
X1038860Y452120D02*
Y462280D01*
X1049020D01*
Y452120D01*
X1038860D01*
X911860D02*
Y462280D01*
X922020D01*
Y452120D01*
X911860D01*
X718350Y38840D02*
Y49000D01*
X728510D01*
Y38840D01*
X718350D01*
X818350D02*
Y49000D01*
X828510D01*
Y38840D01*
X818350D01*
X768350D02*
Y49000D01*
X778510D01*
Y38840D01*
X768350D01*
X767150Y283770D02*
X762070Y293930D01*
X772230D01*
X767150Y283770D01*
X707150Y263770D02*
X702070Y273930D01*
X712230D01*
X707150Y263770D01*
X827150D02*
X822070Y273930D01*
X832230D01*
X827150Y263770D01*
Y141769D02*
X822070Y151929D01*
X832230D01*
X827150Y141769D01*
X707150D02*
X702070Y151929D01*
X712230D01*
X707150Y141769D01*
X831850Y343662D02*
Y353822D01*
X842010D01*
Y343662D01*
X831850D01*
X755650D02*
Y353822D01*
X765810D01*
Y343662D01*
X755650D01*
X758190Y406400D02*
Y416560D01*
X768350D01*
Y406400D01*
X758190D01*
Y381000D02*
Y391160D01*
X768350D01*
Y381000D01*
X758190D01*
X834390Y406400D02*
Y416560D01*
X844550D01*
Y406400D01*
X834390D01*
Y381000D02*
Y391160D01*
X844550D01*
Y381000D01*
X834390D01*
Y497840D02*
Y508000D01*
X844550D01*
Y497840D01*
X834390D01*
X707390D02*
Y508000D01*
X717550D01*
Y497840D01*
X707390D01*
X834390Y450850D02*
Y461010D01*
X844550D01*
Y450850D01*
X834390D01*
X707390D02*
Y461010D01*
X717550D01*
Y450850D01*
X707390D01*
X897890Y618490D02*
Y615950D01*
X902970D01*
Y618490D01*
X905510D01*
Y623570D01*
X902970D01*
Y626110D01*
X897890D01*
Y623570D01*
X895350D01*
Y618490D01*
X897890D01*
Y732790D02*
Y730250D01*
X902970D01*
Y732790D01*
X905510D01*
Y737870D01*
X902970D01*
Y740410D01*
X897890D01*
Y737870D01*
X895350D01*
Y732790D01*
X897890D01*
X694690Y1112520D02*
Y1109980D01*
X699770D01*
Y1112520D01*
X702310D01*
Y1117600D01*
X699770D01*
Y1120140D01*
X694690D01*
Y1117600D01*
X692150D01*
Y1112520D01*
X694690D01*
X693420Y877570D02*
Y875030D01*
X698500D01*
Y877570D01*
X701040D01*
Y882650D01*
X698500D01*
Y885190D01*
X693420D01*
Y882650D01*
X690880D01*
Y877570D01*
X693420D01*
X736600Y1115060D02*
Y1112520D01*
X741680D01*
Y1115060D01*
X744220D01*
Y1120140D01*
X741680D01*
Y1122680D01*
X736600D01*
Y1120140D01*
X734060D01*
Y1115060D01*
X736600D01*
X702310Y548640D02*
Y546100D01*
X707390D01*
Y548640D01*
X709930D01*
Y553720D01*
X707390D01*
Y556260D01*
X702310D01*
Y553720D01*
X699770D01*
Y548640D01*
X702310D01*
X624840D02*
Y546100D01*
X629920D01*
Y548640D01*
X632460D01*
Y553720D01*
X629920D01*
Y556260D01*
X624840D01*
Y553720D01*
X622300D01*
Y548640D01*
X624840D01*
X793750Y1117600D02*
Y1115060D01*
X798830D01*
Y1117600D01*
X801370D01*
Y1122680D01*
X798830D01*
Y1125220D01*
X793750D01*
Y1122680D01*
X791210D01*
Y1117600D01*
X793750D01*
X842010Y1193800D02*
Y1191260D01*
X847090D01*
Y1193800D01*
X849630D01*
Y1198880D01*
X847090D01*
Y1201420D01*
X842010D01*
Y1198880D01*
X839470D01*
Y1193800D01*
X842010D01*
Y1145540D02*
Y1143000D01*
X847090D01*
Y1145540D01*
X849630D01*
Y1150620D01*
X847090D01*
Y1153160D01*
X842010D01*
Y1150620D01*
X839470D01*
Y1145540D01*
X842010D01*
X721540Y865960D02*
Y863420D01*
X726620D01*
Y865960D01*
X729160D01*
Y871040D01*
X726620D01*
Y873580D01*
X721540D01*
Y871040D01*
X719000D01*
Y865960D01*
X721540D01*
D107*
X1117600Y344170D02*
G03*
X1117600Y344170I-5080J0D01*
G01*
Y369570D02*
G03*
X1117600Y369570I-5080J0D01*
G01*
Y394970D02*
G03*
X1117600Y394970I-5080J0D01*
G01*
X1316990Y344170D02*
G03*
X1316990Y344170I-5080J0D01*
G01*
Y369570D02*
G03*
X1316990Y369570I-5080J0D01*
G01*
Y394970D02*
G03*
X1316990Y394970I-5080J0D01*
G01*
X914400Y345440D02*
G03*
X914400Y345440I-5080J0D01*
G01*
Y370840D02*
G03*
X914400Y370840I-5080J0D01*
G01*
Y396240D02*
G03*
X914400Y396240I-5080J0D01*
G01*
X708660Y344170D02*
G03*
X708660Y344170I-5080J0D01*
G01*
Y369570D02*
G03*
X708660Y369570I-5080J0D01*
G01*
Y394970D02*
G03*
X708660Y394970I-5080J0D01*
G01*
M02*
